M48
METRIC,LZ,000.000
;FILE_FORMAT=3:3
;TYPE=PLATED
;Layer: PTH_Through
;EasyEDA v6.5.42, 2024-06-13 11:32:13
;d1ebce20da0e461893040d04fa24d534,1f4b798e1f424c36b07c5063a1ef9d4e,10
;Gerber Generator version 0.2
;Holesize 1 = 0.310 mm
T01C0.310
;Holesize 2 = 0.600 mm
T02C0.600
;Holesize 3 = 0.889 mm
T03C0.889
;Holesize 4 = 1.190 mm
T04C1.190
;Holesize 5 = 1.301 mm
T05C1.301
;Holesize 6 = 1.800 mm
T06C1.800
%
G05
G90
T01
X027178Y-018034
X026289Y-018034
X026289Y-022225
X027178Y-022225
X020828Y-028575
X016002Y-030734
X009017Y-030734
T02
X030131Y-033284G85X029051Y-033284
X030131Y-010658G85X029051Y-010658
T03
X035052Y-070104
X035052Y-067564
X035052Y-065024
X035052Y-062484
X035052Y-059944
X035052Y-057404
X035052Y-054864
X035052Y-052324
X035052Y-049784
X035052Y-047244
X035052Y-044704
X035052Y-042164
X035052Y-039624
X035052Y-037084
X035052Y-034544
X009525Y-034544
X009525Y-037084
X009525Y-039624
X009525Y-042164
X009525Y-044704
X009525Y-047244
X009525Y-049784
X009525Y-052324
X009525Y-054864
X009525Y-057404
X009525Y-059944
X009525Y-062484
X009525Y-065024
X009525Y-067564
X009525Y-070104
X017526Y-025273
X017526Y-022733
X017526Y-020193
X017526Y-017653
X017526Y-015113
X017526Y-012573
X002286Y-012573
X002286Y-015113
X002286Y-017653
X002286Y-020193
X002286Y-022733
X002286Y-025273
X020955Y-012573
X020955Y-015113
X020955Y-017653
X020955Y-020193
X020955Y-022733
X020955Y-025273
X036195Y-025273
X036195Y-022733
X036195Y-020193
X036195Y-017653
X036195Y-015113
X036195Y-012573
X011811Y-020701
X009271Y-020701
X006731Y-020701
X011811Y-024130
X009271Y-024130
X006731Y-024130
X011811Y-013843
X009271Y-013843
X006731Y-013843
X011811Y-017272
X009271Y-017272
X006731Y-017272
X022733Y-036195
X022733Y-033655
X022733Y-031115
X022733Y-028575
T04
X041299Y-047117
X003659Y-047117
X003659Y-065532
X041299Y-065532
T05
X030317Y-003175
X025309Y-003175
X020284Y-003175
X015276Y-003175
X041529Y-007965
X041529Y-002957
X003429Y-002957
X003429Y-007965
T06
X041402Y-015112
X041402Y-019812
X041402Y-024512
M30
