G04 Layer: TopSilkscreenLayer*
G04 EasyEDA v6.5.42, 2024-06-13 11:32:13*
G04 d1ebce20da0e461893040d04fa24d534,1f4b798e1f424c36b07c5063a1ef9d4e,10*
G04 Gerber Generator version 0.2*
G04 Scale: 100 percent, Rotated: No, Reflected: No *
G04 Dimensions in millimeters *
G04 leading zeros omitted , absolute positions ,4 integer and 5 decimal *
%FSLAX45Y45*%
%MOMM*%

%ADD10C,0.1524*%
%ADD11C,0.2540*%
%ADD12C,0.2032*%
%ADD13C,0.2030*%

%LPD*%
G36*
X565912Y-2686202D02*
G01*
X559257Y-2686608D01*
X551078Y-2687675D01*
X534111Y-2690571D01*
X527253Y-2692146D01*
X514045Y-2695956D01*
X508050Y-2698089D01*
X502716Y-2700274D01*
X498246Y-2702407D01*
X486613Y-2710027D01*
X480720Y-2711907D01*
X474319Y-2710230D01*
X458825Y-2702052D01*
X452424Y-2699258D01*
X445465Y-2696667D01*
X438150Y-2694330D01*
X430580Y-2692247D01*
X422909Y-2690520D01*
X415290Y-2689098D01*
X407822Y-2688031D01*
X400659Y-2687370D01*
X393954Y-2687116D01*
X387807Y-2687269D01*
X382371Y-2687929D01*
X376936Y-2689352D01*
X371246Y-2691536D01*
X365404Y-2694432D01*
X359562Y-2697988D01*
X353720Y-2702102D01*
X347980Y-2706725D01*
X342442Y-2711805D01*
X337210Y-2717190D01*
X332384Y-2722880D01*
X327964Y-2728722D01*
X324154Y-2734716D01*
X320954Y-2740761D01*
X316992Y-2749600D01*
X314147Y-2756763D01*
X312470Y-2762250D01*
X311912Y-2766212D01*
X312572Y-2768600D01*
X314299Y-2769565D01*
X317246Y-2769158D01*
X326237Y-2765450D01*
X332536Y-2763875D01*
X339394Y-2762808D01*
X345998Y-2762453D01*
X353618Y-2763113D01*
X359460Y-2765348D01*
X364236Y-2769616D01*
X372618Y-2782620D01*
X378256Y-2789732D01*
X384759Y-2796692D01*
X391363Y-2802686D01*
X396748Y-2806496D01*
X402691Y-2809646D01*
X409041Y-2812135D01*
X415747Y-2814015D01*
X422706Y-2815183D01*
X429717Y-2815742D01*
X436727Y-2815640D01*
X443636Y-2814828D01*
X450342Y-2813354D01*
X456692Y-2811221D01*
X462584Y-2808427D01*
X473760Y-2801010D01*
X478688Y-2798724D01*
X482447Y-2798165D01*
X484784Y-2799384D01*
X487273Y-2802382D01*
X490575Y-2805023D01*
X494487Y-2807411D01*
X499059Y-2809494D01*
X504088Y-2811221D01*
X509473Y-2812643D01*
X515213Y-2813710D01*
X521106Y-2814472D01*
X527151Y-2814828D01*
X533146Y-2814878D01*
X539089Y-2814523D01*
X544880Y-2813761D01*
X550367Y-2812643D01*
X555498Y-2811119D01*
X560171Y-2809189D01*
X564286Y-2806852D01*
X569772Y-2802331D01*
X576072Y-2795930D01*
X582371Y-2788412D01*
X594512Y-2771648D01*
X600506Y-2766060D01*
X607009Y-2763215D01*
X615035Y-2762453D01*
X621690Y-2762859D01*
X628700Y-2763977D01*
X635152Y-2765602D01*
X640283Y-2767634D01*
X645566Y-2770124D01*
X648157Y-2770174D01*
X648462Y-2767482D01*
X646938Y-2761640D01*
X644753Y-2755239D01*
X641908Y-2748737D01*
X638606Y-2742234D01*
X634796Y-2735783D01*
X630580Y-2729484D01*
X626059Y-2723388D01*
X621233Y-2717546D01*
X616153Y-2712110D01*
X610920Y-2707132D01*
X605637Y-2702661D01*
X600252Y-2698800D01*
X594918Y-2695600D01*
X587959Y-2691993D01*
X582117Y-2689301D01*
X576834Y-2687472D01*
X571601Y-2686456D01*
G37*
G36*
X370890Y-2872333D02*
G01*
X365760Y-2872892D01*
X360730Y-2874060D01*
X355904Y-2875889D01*
X351332Y-2878378D01*
X347014Y-2881477D01*
X343001Y-2885236D01*
X339394Y-2889554D01*
X336143Y-2894533D01*
X333400Y-2900070D01*
X331368Y-2905556D01*
X330047Y-2910941D01*
X329438Y-2916224D01*
X329438Y-2918460D01*
X346456Y-2918460D01*
X347167Y-2913176D01*
X349148Y-2907842D01*
X352094Y-2902559D01*
X355904Y-2897733D01*
X360273Y-2893517D01*
X364998Y-2890215D01*
X369874Y-2888030D01*
X374650Y-2887268D01*
X379171Y-2887726D01*
X383387Y-2889046D01*
X387197Y-2891129D01*
X390601Y-2893822D01*
X393598Y-2897124D01*
X396087Y-2900883D01*
X398170Y-2904998D01*
X399694Y-2909366D01*
X400659Y-2913938D01*
X401066Y-2918561D01*
X400862Y-2923133D01*
X400100Y-2927604D01*
X398627Y-2931820D01*
X396494Y-2935732D01*
X393649Y-2939237D01*
X390042Y-2942183D01*
X384911Y-2945434D01*
X380339Y-2947670D01*
X376123Y-2948940D01*
X372211Y-2949194D01*
X368452Y-2948432D01*
X364642Y-2946654D01*
X360680Y-2943910D01*
X356412Y-2940100D01*
X352552Y-2935376D01*
X349402Y-2929788D01*
X347268Y-2923895D01*
X346456Y-2918460D01*
X329438Y-2918460D01*
X329438Y-2921406D01*
X330047Y-2926384D01*
X331165Y-2931210D01*
X332841Y-2935833D01*
X334975Y-2940151D01*
X337566Y-2944266D01*
X340563Y-2948025D01*
X343916Y-2951480D01*
X347624Y-2954578D01*
X351586Y-2957322D01*
X355803Y-2959608D01*
X360222Y-2961436D01*
X364845Y-2962808D01*
X369620Y-2963672D01*
X374497Y-2964027D01*
X379374Y-2963773D01*
X384352Y-2962960D01*
X389280Y-2961538D01*
X394157Y-2959455D01*
X398932Y-2956712D01*
X403606Y-2953258D01*
X409498Y-2947263D01*
X414070Y-2940151D01*
X417372Y-2931820D01*
X419404Y-2922320D01*
X420116Y-2916224D01*
X420420Y-2911144D01*
X420116Y-2906826D01*
X419201Y-2903067D01*
X417525Y-2899511D01*
X414985Y-2895904D01*
X411530Y-2891993D01*
X407060Y-2887472D01*
X402183Y-2883255D01*
X397154Y-2879699D01*
X391972Y-2876854D01*
X386740Y-2874721D01*
X381457Y-2873248D01*
X376123Y-2872486D01*
G37*
G36*
X272846Y-2872638D02*
G01*
X267868Y-2873146D01*
X262839Y-2874213D01*
X257911Y-2875889D01*
X253034Y-2878175D01*
X248310Y-2881020D01*
X243687Y-2884424D01*
X239775Y-2887929D01*
X236626Y-2891180D01*
X234188Y-2894533D01*
X232359Y-2898089D01*
X231089Y-2902051D01*
X230327Y-2906623D01*
X229870Y-2912059D01*
X229770Y-2918561D01*
X247853Y-2918561D01*
X248158Y-2912719D01*
X249326Y-2907080D01*
X251409Y-2901797D01*
X254254Y-2897073D01*
X257860Y-2893060D01*
X262178Y-2889961D01*
X267157Y-2887980D01*
X272745Y-2887268D01*
X277723Y-2888030D01*
X282803Y-2890164D01*
X287680Y-2893415D01*
X292150Y-2897581D01*
X296011Y-2902407D01*
X299059Y-2907639D01*
X301040Y-2913075D01*
X301752Y-2918460D01*
X301091Y-2923641D01*
X299110Y-2928924D01*
X296164Y-2934157D01*
X292455Y-2939034D01*
X288188Y-2943301D01*
X283616Y-2946654D01*
X278942Y-2948889D01*
X274472Y-2949702D01*
X270764Y-2948940D01*
X266293Y-2946857D01*
X261518Y-2943809D01*
X257048Y-2940100D01*
X253136Y-2935325D01*
X250291Y-2930093D01*
X248564Y-2924403D01*
X247853Y-2918561D01*
X229770Y-2918561D01*
X229870Y-2924860D01*
X230327Y-2930296D01*
X231089Y-2934868D01*
X232359Y-2938881D01*
X234188Y-2942437D01*
X236626Y-2945739D01*
X239775Y-2949041D01*
X243687Y-2952496D01*
X248361Y-2955950D01*
X253238Y-2958846D01*
X258317Y-2961030D01*
X263448Y-2962656D01*
X268681Y-2963621D01*
X273913Y-2963976D01*
X279095Y-2963672D01*
X284226Y-2962757D01*
X289204Y-2961233D01*
X294030Y-2959049D01*
X298653Y-2956255D01*
X302971Y-2952800D01*
X306933Y-2948889D01*
X310388Y-2944723D01*
X313283Y-2940354D01*
X315671Y-2935833D01*
X317500Y-2931160D01*
X318770Y-2926384D01*
X319481Y-2921508D01*
X319633Y-2916631D01*
X319227Y-2911703D01*
X318211Y-2906877D01*
X316636Y-2902051D01*
X314452Y-2897378D01*
X311556Y-2892552D01*
X308254Y-2888234D01*
X304596Y-2884424D01*
X300685Y-2881122D01*
X296468Y-2878378D01*
X292049Y-2876143D01*
X287426Y-2874416D01*
X282651Y-2873298D01*
X277774Y-2872689D01*
G37*
G36*
X105664Y-2872790D02*
G01*
X99771Y-2872841D01*
X94030Y-2873349D01*
X88646Y-2874365D01*
X83769Y-2875838D01*
X79552Y-2877820D01*
X76149Y-2880410D01*
X72237Y-2884881D01*
X69596Y-2889504D01*
X68173Y-2894177D01*
X67970Y-2898800D01*
X68935Y-2903372D01*
X70967Y-2907792D01*
X74066Y-2912008D01*
X78232Y-2915970D01*
X83362Y-2919577D01*
X89458Y-2922727D01*
X96469Y-2925419D01*
X104343Y-2927604D01*
X109372Y-2929229D01*
X113283Y-2931515D01*
X116027Y-2934309D01*
X117551Y-2937306D01*
X117805Y-2940405D01*
X116687Y-2943352D01*
X114198Y-2945993D01*
X110235Y-2948076D01*
X106273Y-2948736D01*
X101142Y-2948482D01*
X95605Y-2947416D01*
X83972Y-2943148D01*
X79756Y-2942640D01*
X77012Y-2944063D01*
X75031Y-2947517D01*
X73558Y-2953664D01*
X75946Y-2957677D01*
X83210Y-2960319D01*
X96520Y-2962402D01*
X105664Y-2962960D01*
X113690Y-2962198D01*
X120751Y-2960116D01*
X127000Y-2956712D01*
X131267Y-2953308D01*
X134518Y-2949702D01*
X136702Y-2945993D01*
X137871Y-2942183D01*
X138023Y-2938322D01*
X137210Y-2934411D01*
X135382Y-2930550D01*
X132588Y-2926689D01*
X128778Y-2922930D01*
X124053Y-2919272D01*
X118414Y-2915716D01*
X102666Y-2907741D01*
X95148Y-2903270D01*
X90068Y-2899359D01*
X88239Y-2896616D01*
X88950Y-2893720D01*
X90932Y-2891434D01*
X94030Y-2889707D01*
X98094Y-2888589D01*
X102870Y-2888183D01*
X108153Y-2888437D01*
X113842Y-2889453D01*
X127254Y-2893618D01*
X132537Y-2894330D01*
X136194Y-2893415D01*
X138785Y-2890824D01*
X139954Y-2887878D01*
X139750Y-2885135D01*
X138226Y-2882595D01*
X135636Y-2880258D01*
X132080Y-2878226D01*
X127711Y-2876448D01*
X122732Y-2875026D01*
X117297Y-2873908D01*
X111556Y-2873146D01*
G37*
G36*
X862939Y-2872841D02*
G01*
X861009Y-2874162D01*
X859434Y-2877820D01*
X858367Y-2883154D01*
X857961Y-2889656D01*
X857910Y-2895142D01*
X857605Y-2899308D01*
X856792Y-2902305D01*
X855218Y-2904286D01*
X852627Y-2905556D01*
X848766Y-2906166D01*
X836421Y-2906471D01*
X827633Y-2906979D01*
X820013Y-2908401D01*
X813460Y-2910840D01*
X808075Y-2914142D01*
X803859Y-2918409D01*
X800862Y-2923590D01*
X798982Y-2929636D01*
X798773Y-2932023D01*
X808634Y-2932023D01*
X809650Y-2927096D01*
X812038Y-2923082D01*
X815848Y-2919984D01*
X821080Y-2917799D01*
X827786Y-2916478D01*
X835964Y-2916072D01*
X857961Y-2916072D01*
X857961Y-2954477D01*
X835964Y-2954477D01*
X824941Y-2954070D01*
X817727Y-2952546D01*
X813308Y-2949600D01*
X810818Y-2944876D01*
X809040Y-2937967D01*
X808634Y-2932023D01*
X798773Y-2932023D01*
X798372Y-2936595D01*
X798728Y-2940761D01*
X799795Y-2944622D01*
X801471Y-2948178D01*
X803859Y-2951429D01*
X806856Y-2954274D01*
X810463Y-2956814D01*
X814679Y-2958998D01*
X819505Y-2960776D01*
X824839Y-2962198D01*
X830783Y-2963265D01*
X837234Y-2963875D01*
X844194Y-2964078D01*
X867918Y-2964078D01*
X867816Y-2908706D01*
X867105Y-2892094D01*
X866546Y-2885440D01*
X865835Y-2880106D01*
X864971Y-2876143D01*
X864006Y-2873705D01*
G37*
G36*
X718108Y-2872841D02*
G01*
X717042Y-2874162D01*
X717702Y-2877718D01*
X719988Y-2883001D01*
X723747Y-2889402D01*
X734314Y-2905963D01*
X724154Y-2915818D01*
X720242Y-2920085D01*
X717296Y-2924352D01*
X715314Y-2928670D01*
X714108Y-2933496D01*
X725119Y-2933496D01*
X725932Y-2928112D01*
X728268Y-2921762D01*
X732282Y-2918104D01*
X739444Y-2916478D01*
X751281Y-2916072D01*
X773531Y-2916072D01*
X773531Y-2941574D01*
X773226Y-2946349D01*
X772515Y-2949752D01*
X771093Y-2952038D01*
X768807Y-2953461D01*
X765403Y-2954172D01*
X754278Y-2954477D01*
X746201Y-2953918D01*
X738784Y-2952445D01*
X732790Y-2950159D01*
X728929Y-2947314D01*
X726694Y-2943606D01*
X725424Y-2938780D01*
X725119Y-2933496D01*
X714108Y-2933496D01*
X713892Y-2937002D01*
X714451Y-2941015D01*
X715772Y-2944825D01*
X717854Y-2948381D01*
X720699Y-2951734D01*
X724255Y-2954731D01*
X728472Y-2957423D01*
X733348Y-2959709D01*
X738835Y-2961538D01*
X744880Y-2962910D01*
X751535Y-2963773D01*
X758647Y-2964078D01*
X783488Y-2964078D01*
X783386Y-2908706D01*
X782675Y-2892094D01*
X782116Y-2885440D01*
X781405Y-2880106D01*
X780542Y-2876143D01*
X779576Y-2873705D01*
X778510Y-2872841D01*
X776579Y-2874162D01*
X775004Y-2877820D01*
X773938Y-2883154D01*
X773176Y-2898749D01*
X771296Y-2903829D01*
X766927Y-2906014D01*
X759053Y-2906471D01*
X751535Y-2905658D01*
X745337Y-2902915D01*
X739698Y-2897784D01*
X729284Y-2883154D01*
X724763Y-2877820D01*
X720902Y-2874162D01*
G37*
G36*
X656844Y-2872841D02*
G01*
X651560Y-2873146D01*
X646480Y-2874060D01*
X641705Y-2875483D01*
X637133Y-2877464D01*
X632917Y-2879902D01*
X629005Y-2882849D01*
X625449Y-2886151D01*
X622249Y-2889859D01*
X619506Y-2893923D01*
X617169Y-2898292D01*
X615289Y-2902915D01*
X613867Y-2907792D01*
X612952Y-2912922D01*
X612649Y-2918256D01*
X624332Y-2918256D01*
X624636Y-2912618D01*
X625551Y-2907080D01*
X626922Y-2901899D01*
X628853Y-2897174D01*
X631342Y-2893110D01*
X634339Y-2889808D01*
X638759Y-2886405D01*
X643382Y-2883865D01*
X648004Y-2882087D01*
X652678Y-2881071D01*
X657352Y-2880766D01*
X661873Y-2881223D01*
X666292Y-2882290D01*
X670458Y-2884068D01*
X674370Y-2886405D01*
X677926Y-2889351D01*
X681075Y-2892856D01*
X683818Y-2896870D01*
X686054Y-2901391D01*
X687730Y-2906369D01*
X688746Y-2911805D01*
X689102Y-2917647D01*
X688492Y-2926029D01*
X686816Y-2933954D01*
X684225Y-2940761D01*
X680923Y-2945688D01*
X676452Y-2949295D01*
X670915Y-2951937D01*
X664616Y-2953562D01*
X657961Y-2954172D01*
X651205Y-2953766D01*
X644702Y-2952394D01*
X638708Y-2949956D01*
X633628Y-2946552D01*
X630732Y-2943301D01*
X628345Y-2939237D01*
X626516Y-2934563D01*
X625246Y-2929382D01*
X624535Y-2923895D01*
X624332Y-2918256D01*
X612649Y-2918256D01*
X612851Y-2923641D01*
X613613Y-2929178D01*
X614883Y-2933496D01*
X616762Y-2937764D01*
X619302Y-2941929D01*
X622350Y-2945942D01*
X625856Y-2949702D01*
X629767Y-2953156D01*
X633933Y-2956204D01*
X638352Y-2958896D01*
X642975Y-2961081D01*
X647598Y-2962706D01*
X652272Y-2963722D01*
X656844Y-2964078D01*
X664565Y-2963316D01*
X671982Y-2960979D01*
X678942Y-2957220D01*
X685393Y-2951988D01*
X689660Y-2947365D01*
X693166Y-2942539D01*
X696010Y-2937510D01*
X698144Y-2932379D01*
X699668Y-2927096D01*
X700532Y-2921812D01*
X700836Y-2916529D01*
X700481Y-2911348D01*
X699566Y-2906217D01*
X698093Y-2901289D01*
X696112Y-2896616D01*
X693572Y-2892196D01*
X690524Y-2888081D01*
X687019Y-2884373D01*
X683056Y-2881071D01*
X678637Y-2878226D01*
X673760Y-2875991D01*
X668528Y-2874264D01*
X662889Y-2873248D01*
G37*
G36*
X589788Y-2872841D02*
G01*
X587857Y-2874568D01*
X586282Y-2879140D01*
X585216Y-2885897D01*
X584860Y-2894177D01*
X584860Y-2915564D01*
X537667Y-2919120D01*
X569010Y-2920339D01*
X574852Y-2920796D01*
X579018Y-2921558D01*
X581863Y-2922879D01*
X583590Y-2924962D01*
X584454Y-2927959D01*
X584809Y-2932125D01*
X584860Y-2954477D01*
X560324Y-2954477D01*
X550519Y-2954832D01*
X542086Y-2955899D01*
X535838Y-2957423D01*
X532688Y-2959303D01*
X533603Y-2961284D01*
X539038Y-2962808D01*
X548690Y-2963773D01*
X562203Y-2964078D01*
X594766Y-2964078D01*
X594664Y-2908706D01*
X594004Y-2892094D01*
X592683Y-2880106D01*
X591820Y-2876143D01*
X590854Y-2873705D01*
G37*
G36*
X477723Y-2872841D02*
G01*
X469341Y-2872994D01*
X461924Y-2873400D01*
X455422Y-2874060D01*
X449783Y-2875076D01*
X445008Y-2876397D01*
X440994Y-2878074D01*
X437692Y-2880156D01*
X435152Y-2882646D01*
X433222Y-2885592D01*
X431901Y-2888996D01*
X431139Y-2892806D01*
X430885Y-2897174D01*
X431086Y-2899257D01*
X450748Y-2899257D01*
X451307Y-2892958D01*
X453745Y-2889300D01*
X458978Y-2887675D01*
X468122Y-2887268D01*
X477266Y-2887675D01*
X482549Y-2889300D01*
X484936Y-2892958D01*
X485495Y-2899257D01*
X484936Y-2905556D01*
X482549Y-2909214D01*
X477266Y-2910890D01*
X468122Y-2911246D01*
X458978Y-2910890D01*
X453745Y-2909214D01*
X451307Y-2905556D01*
X450748Y-2899257D01*
X431086Y-2899257D01*
X431444Y-2902966D01*
X432917Y-2908096D01*
X435152Y-2912008D01*
X437845Y-2914142D01*
X441198Y-2915970D01*
X442366Y-2918561D01*
X441248Y-2922828D01*
X434746Y-2936341D01*
X434482Y-2937662D01*
X453237Y-2937662D01*
X453999Y-2932988D01*
X456692Y-2929788D01*
X461670Y-2927756D01*
X469392Y-2926588D01*
X478028Y-2926130D01*
X482904Y-2927350D01*
X485038Y-2930956D01*
X485495Y-2937662D01*
X485038Y-2944368D01*
X482904Y-2947974D01*
X478028Y-2949194D01*
X469392Y-2948787D01*
X461670Y-2947568D01*
X456692Y-2945536D01*
X453999Y-2942336D01*
X453237Y-2937662D01*
X434482Y-2937662D01*
X433679Y-2941675D01*
X434695Y-2946501D01*
X437794Y-2951937D01*
X439928Y-2954578D01*
X442417Y-2956763D01*
X445516Y-2958592D01*
X449326Y-2960014D01*
X453999Y-2961132D01*
X459689Y-2961995D01*
X474929Y-2963113D01*
X505358Y-2964535D01*
X505358Y-2872841D01*
G37*
G36*
X187553Y-2872841D02*
G01*
X184505Y-2873044D01*
X182168Y-2873908D01*
X180390Y-2875737D01*
X179171Y-2878886D01*
X178358Y-2883662D01*
X177901Y-2890418D01*
X177596Y-2911246D01*
X177596Y-2949702D01*
X162712Y-2949702D01*
X156210Y-2950108D01*
X151536Y-2951480D01*
X148742Y-2953715D01*
X147828Y-2956864D01*
X148183Y-2958846D01*
X149504Y-2960471D01*
X151942Y-2961690D01*
X155651Y-2962656D01*
X160883Y-2963316D01*
X167843Y-2963773D01*
X187553Y-2964078D01*
X207264Y-2963773D01*
X214172Y-2963316D01*
X219405Y-2962656D01*
X223164Y-2961690D01*
X225552Y-2960471D01*
X226872Y-2958846D01*
X227279Y-2956864D01*
X226364Y-2953715D01*
X223570Y-2951480D01*
X218897Y-2950108D01*
X212394Y-2949702D01*
X197459Y-2949702D01*
X197408Y-2899511D01*
X197205Y-2890418D01*
X196748Y-2883662D01*
X195935Y-2878886D01*
X194665Y-2875737D01*
X192938Y-2873908D01*
X190601Y-2873044D01*
G37*
G36*
X703072Y-3017824D02*
G01*
X697941Y-3018383D01*
X694842Y-3020872D01*
X692353Y-3027121D01*
X690473Y-3029966D01*
X687578Y-3032607D01*
X683666Y-3035147D01*
X678688Y-3037535D01*
X672693Y-3039770D01*
X665683Y-3041853D01*
X657656Y-3043783D01*
X648665Y-3045510D01*
X638657Y-3047136D01*
X627684Y-3048609D01*
X602792Y-3051048D01*
X574090Y-3052826D01*
X541629Y-3053994D01*
X505459Y-3054502D01*
X465632Y-3054350D01*
X420065Y-3053537D01*
X373278Y-3052064D01*
X336194Y-3050133D01*
X321005Y-3048965D01*
X307898Y-3047644D01*
X296722Y-3046120D01*
X287375Y-3044393D01*
X279704Y-3042462D01*
X273710Y-3040329D01*
X269138Y-3037941D01*
X267360Y-3036671D01*
X265887Y-3035300D01*
X264769Y-3033877D01*
X263906Y-3032353D01*
X261467Y-3024479D01*
X260045Y-3023006D01*
X257708Y-3022650D01*
X253898Y-3023565D01*
X248158Y-3025698D01*
X228803Y-3033877D01*
X213207Y-3040989D01*
X206806Y-3044240D01*
X201269Y-3047390D01*
X196494Y-3050489D01*
X192532Y-3053486D01*
X189331Y-3056534D01*
X186791Y-3059582D01*
X184861Y-3062681D01*
X183591Y-3065881D01*
X182829Y-3069234D01*
X182575Y-3072739D01*
X182880Y-3075787D01*
X183743Y-3078734D01*
X185267Y-3081680D01*
X187350Y-3084525D01*
X189992Y-3087268D01*
X193192Y-3090011D01*
X197002Y-3092653D01*
X201371Y-3095244D01*
X206349Y-3097733D01*
X211836Y-3100171D01*
X217881Y-3102508D01*
X231648Y-3106978D01*
X247599Y-3111144D01*
X265734Y-3114954D01*
X285902Y-3118408D01*
X301040Y-3120542D01*
X321056Y-3122676D01*
X344982Y-3124657D01*
X371652Y-3126384D01*
X406755Y-3128162D01*
X434746Y-3129178D01*
X461264Y-3129737D01*
X490423Y-3129838D01*
X509016Y-3129330D01*
X541172Y-3127044D01*
X576630Y-3123844D01*
X609396Y-3120136D01*
X639368Y-3115970D01*
X653288Y-3113735D01*
X679043Y-3108858D01*
X690778Y-3106267D01*
X701802Y-3103575D01*
X721614Y-3097834D01*
X730351Y-3094786D01*
X738327Y-3091688D01*
X745540Y-3088436D01*
X751941Y-3085134D01*
X757529Y-3081680D01*
X762355Y-3078175D01*
X766368Y-3074568D01*
X768045Y-3072739D01*
X771550Y-3067558D01*
X773328Y-3062274D01*
X773379Y-3057042D01*
X771702Y-3051810D01*
X768400Y-3046679D01*
X763422Y-3041751D01*
X756869Y-3037027D01*
X748741Y-3032607D01*
X738835Y-3028188D01*
X728421Y-3024174D01*
X718667Y-3020923D01*
X710946Y-3018942D01*
G37*
G36*
X299516Y-3133699D02*
G01*
X297738Y-3134106D01*
X296164Y-3135223D01*
X294741Y-3137204D01*
X293319Y-3140202D01*
X291896Y-3144367D01*
X290423Y-3149854D01*
X287070Y-3165449D01*
X280365Y-3200603D01*
X274726Y-3232251D01*
X268224Y-3271113D01*
X264109Y-3297224D01*
X257352Y-3342690D01*
X249072Y-3405276D01*
X243789Y-3451707D01*
X241655Y-3473145D01*
X239928Y-3493160D01*
X236414Y-3541979D01*
X305511Y-3541979D01*
X307187Y-3541522D01*
X332740Y-3544570D01*
X345389Y-3545687D01*
X358190Y-3546500D01*
X371195Y-3547059D01*
X384302Y-3547313D01*
X404114Y-3547160D01*
X417423Y-3546754D01*
X444144Y-3545078D01*
X470712Y-3542334D01*
X483920Y-3540556D01*
X497027Y-3538524D01*
X522833Y-3533749D01*
X535482Y-3531006D01*
X547928Y-3527958D01*
X560120Y-3524707D01*
X572058Y-3521252D01*
X583692Y-3517544D01*
X595020Y-3513582D01*
X606044Y-3509416D01*
X616661Y-3505047D01*
X650951Y-3490264D01*
X647700Y-3349294D01*
X647242Y-3321761D01*
X647192Y-3301746D01*
X647547Y-3289249D01*
X647954Y-3285845D01*
X648462Y-3284321D01*
X648766Y-3284270D01*
X649528Y-3285591D01*
X650443Y-3288842D01*
X652729Y-3301034D01*
X659587Y-3348532D01*
X664260Y-3383889D01*
X670814Y-3436213D01*
X672744Y-3454908D01*
X673760Y-3469487D01*
X673811Y-3480562D01*
X673506Y-3485032D01*
X672896Y-3488842D01*
X672033Y-3492093D01*
X670966Y-3494887D01*
X669594Y-3497275D01*
X667969Y-3499408D01*
X663905Y-3502964D01*
X658723Y-3506266D01*
X651560Y-3509975D01*
X642366Y-3514039D01*
X631444Y-3518357D01*
X619099Y-3522827D01*
X591312Y-3531768D01*
X561594Y-3540201D01*
X546760Y-3543960D01*
X532333Y-3547313D01*
X518718Y-3550107D01*
X506171Y-3552342D01*
X493674Y-3554018D01*
X479907Y-3555390D01*
X465226Y-3556406D01*
X449884Y-3557117D01*
X434136Y-3557524D01*
X418236Y-3557574D01*
X402539Y-3557371D01*
X387197Y-3556863D01*
X372567Y-3556050D01*
X358851Y-3554933D01*
X346405Y-3553561D01*
X335432Y-3551936D01*
X326288Y-3550005D01*
X319125Y-3547821D01*
X309422Y-3543960D01*
X305511Y-3541979D01*
X236414Y-3541979D01*
X235915Y-3548989D01*
X259892Y-3560673D01*
X271322Y-3565296D01*
X284632Y-3570071D01*
X298145Y-3574338D01*
X308406Y-3577082D01*
X317500Y-3578910D01*
X327964Y-3580536D01*
X339598Y-3581958D01*
X365760Y-3584244D01*
X394360Y-3585667D01*
X423926Y-3586175D01*
X438607Y-3586124D01*
X452932Y-3585819D01*
X479755Y-3584498D01*
X491896Y-3583432D01*
X502970Y-3582162D01*
X528777Y-3577894D01*
X555040Y-3572713D01*
X579729Y-3567074D01*
X602792Y-3560927D01*
X624281Y-3554222D01*
X644245Y-3547008D01*
X653694Y-3543198D01*
X662686Y-3539236D01*
X705408Y-3519119D01*
X700786Y-3448354D01*
X698347Y-3421126D01*
X695401Y-3393287D01*
X692302Y-3368243D01*
X688797Y-3344316D01*
X678738Y-3283915D01*
X666953Y-3219196D01*
X656336Y-3165449D01*
X652373Y-3147364D01*
X649732Y-3137662D01*
X649325Y-3136798D01*
X648360Y-3135934D01*
X646684Y-3135223D01*
X644296Y-3134664D01*
X637082Y-3134106D01*
X626414Y-3134156D01*
X611987Y-3134918D01*
X578002Y-3137662D01*
X556514Y-3138932D01*
X530199Y-3139846D01*
X500430Y-3140405D01*
X452374Y-3140608D01*
X412089Y-3140252D01*
X381609Y-3139643D01*
X354177Y-3138728D01*
X331114Y-3137560D01*
X313893Y-3136138D01*
X307848Y-3135325D01*
X301498Y-3133852D01*
G37*
D10*
X3060700Y-966215D02*
G01*
X3060700Y-857250D01*
X3060700Y-857250D02*
G01*
X2998470Y-857250D01*
X2964179Y-903986D02*
G01*
X2870454Y-903986D01*
X2836163Y-966215D02*
G01*
X2836163Y-857250D01*
X2836163Y-966215D02*
G01*
X2794761Y-857250D01*
X2753106Y-966215D02*
G01*
X2794761Y-857250D01*
X2753106Y-966215D02*
G01*
X2753106Y-857250D01*
X2682493Y-966215D02*
G01*
X2682493Y-857250D01*
X2718815Y-966215D02*
G01*
X2646172Y-966215D01*
X2611881Y-966215D02*
G01*
X2611881Y-857250D01*
X2611881Y-966215D02*
G01*
X2565145Y-966215D01*
X2549397Y-961136D01*
X2544318Y-955802D01*
X2538984Y-945387D01*
X2538984Y-934973D01*
X2544318Y-924560D01*
X2549397Y-919479D01*
X2565145Y-914400D01*
X2611881Y-914400D01*
X2575559Y-914400D02*
G01*
X2538984Y-857250D01*
X2057400Y-966215D02*
G01*
X2057400Y-857250D01*
X2057400Y-966215D02*
G01*
X2010663Y-966215D01*
X1995170Y-961136D01*
X1989836Y-955802D01*
X1984756Y-945387D01*
X1984756Y-934973D01*
X1989836Y-924560D01*
X1995170Y-919479D01*
X2010663Y-914400D01*
X2057400Y-914400D01*
X2021077Y-914400D02*
G01*
X1984756Y-857250D01*
X1950465Y-903986D02*
G01*
X1856739Y-903986D01*
X1822450Y-966215D02*
G01*
X1822450Y-857250D01*
X1822450Y-966215D02*
G01*
X1781047Y-857250D01*
X1739392Y-966215D02*
G01*
X1781047Y-857250D01*
X1739392Y-966215D02*
G01*
X1739392Y-857250D01*
X1668779Y-966215D02*
G01*
X1668779Y-857250D01*
X1705102Y-966215D02*
G01*
X1632457Y-966215D01*
X1598168Y-966215D02*
G01*
X1598168Y-857250D01*
X1598168Y-966215D02*
G01*
X1551431Y-966215D01*
X1535684Y-961136D01*
X1530604Y-955802D01*
X1525270Y-945387D01*
X1525270Y-934973D01*
X1530604Y-924560D01*
X1535684Y-919479D01*
X1551431Y-914400D01*
X1598168Y-914400D01*
X1561845Y-914400D02*
G01*
X1525270Y-857250D01*
X3529584Y-682244D02*
G01*
X3638550Y-723900D01*
X3529584Y-682244D02*
G01*
X3638550Y-640842D01*
X3602227Y-708405D02*
G01*
X3602227Y-656336D01*
X3529584Y-606552D02*
G01*
X3607561Y-606552D01*
X3623056Y-601218D01*
X3633470Y-590804D01*
X3638550Y-575310D01*
X3638550Y-564895D01*
X3633470Y-549402D01*
X3623056Y-538987D01*
X3607561Y-533654D01*
X3529584Y-533654D01*
X3529584Y-499363D02*
G01*
X3638550Y-426720D01*
X3529584Y-426720D02*
G01*
X3638550Y-499363D01*
X3550411Y-392429D02*
G01*
X3545077Y-382015D01*
X3529584Y-366521D01*
X3638550Y-366521D01*
X1544320Y-2121407D02*
G01*
X1544320Y-2126487D01*
X1538986Y-2136902D01*
X1533905Y-2142236D01*
X1523492Y-2147315D01*
X1502663Y-2147315D01*
X1492250Y-2142236D01*
X1487170Y-2136902D01*
X1481836Y-2126487D01*
X1481836Y-2116073D01*
X1487170Y-2105660D01*
X1497329Y-2090165D01*
X1549400Y-2038350D01*
X1476755Y-2038350D01*
X1437131Y-2121407D02*
G01*
X1437131Y-2126487D01*
X1432052Y-2136902D01*
X1426718Y-2142236D01*
X1416304Y-2147315D01*
X1395729Y-2147315D01*
X1385315Y-2142236D01*
X1379981Y-2136902D01*
X1374902Y-2126487D01*
X1374902Y-2116073D01*
X1379981Y-2105660D01*
X1390395Y-2090165D01*
X1442465Y-2038350D01*
X1369568Y-2038350D01*
X1544320Y-2438907D02*
G01*
X1544320Y-2443987D01*
X1538986Y-2454402D01*
X1533905Y-2459736D01*
X1523492Y-2464815D01*
X1502663Y-2464815D01*
X1492250Y-2459736D01*
X1487170Y-2454402D01*
X1481836Y-2443987D01*
X1481836Y-2433573D01*
X1487170Y-2423160D01*
X1497329Y-2407665D01*
X1549400Y-2355850D01*
X1476755Y-2355850D01*
X1432052Y-2464815D02*
G01*
X1374902Y-2464815D01*
X1405889Y-2423160D01*
X1390395Y-2423160D01*
X1379981Y-2418079D01*
X1374902Y-2413000D01*
X1369568Y-2397252D01*
X1369568Y-2386837D01*
X1374902Y-2371344D01*
X1385315Y-2360929D01*
X1400810Y-2355850D01*
X1416304Y-2355850D01*
X1432052Y-2360929D01*
X1437131Y-2366010D01*
X1442465Y-2376423D01*
X1612900Y-1436115D02*
G01*
X1612900Y-1327150D01*
X1612900Y-1436115D02*
G01*
X1566163Y-1436115D01*
X1550670Y-1431036D01*
X1545336Y-1425702D01*
X1540255Y-1415287D01*
X1540255Y-1404873D01*
X1545336Y-1394460D01*
X1550670Y-1389379D01*
X1566163Y-1384300D01*
X1612900Y-1384300D01*
X1576578Y-1384300D02*
G01*
X1540255Y-1327150D01*
X1505965Y-1436115D02*
G01*
X1433068Y-1327150D01*
X1433068Y-1436115D02*
G01*
X1505965Y-1327150D01*
X1367789Y-1436115D02*
G01*
X1383284Y-1431036D01*
X1393697Y-1415287D01*
X1398778Y-1389379D01*
X1398778Y-1373886D01*
X1393697Y-1347723D01*
X1383284Y-1332229D01*
X1367789Y-1327150D01*
X1357376Y-1327150D01*
X1341628Y-1332229D01*
X1331213Y-1347723D01*
X1326134Y-1373886D01*
X1326134Y-1389379D01*
X1331213Y-1415287D01*
X1341628Y-1431036D01*
X1357376Y-1436115D01*
X1367789Y-1436115D01*
X1576578Y-1779015D02*
G01*
X1576578Y-1670050D01*
X1612900Y-1779015D02*
G01*
X1540255Y-1779015D01*
X1505965Y-1779015D02*
G01*
X1433068Y-1670050D01*
X1433068Y-1779015D02*
G01*
X1505965Y-1670050D01*
X1367789Y-1779015D02*
G01*
X1383284Y-1773936D01*
X1393697Y-1758187D01*
X1398778Y-1732279D01*
X1398778Y-1716786D01*
X1393697Y-1690623D01*
X1383284Y-1675129D01*
X1367789Y-1670050D01*
X1357376Y-1670050D01*
X1341628Y-1675129D01*
X1331213Y-1690623D01*
X1326134Y-1716786D01*
X1326134Y-1732279D01*
X1331213Y-1758187D01*
X1341628Y-1773936D01*
X1357376Y-1779015D01*
X1367789Y-1779015D01*
X966215Y-371855D02*
G01*
X857250Y-330200D01*
X966215Y-371855D02*
G01*
X857250Y-413257D01*
X893571Y-345694D02*
G01*
X893571Y-397763D01*
X966215Y-447547D02*
G01*
X888237Y-447547D01*
X872744Y-452881D01*
X862329Y-463295D01*
X857250Y-478789D01*
X857250Y-489204D01*
X862329Y-504697D01*
X872744Y-515112D01*
X888237Y-520445D01*
X966215Y-520445D01*
X966215Y-554736D02*
G01*
X857250Y-627379D01*
X966215Y-627379D02*
G01*
X857250Y-554736D01*
X940307Y-666750D02*
G01*
X945387Y-666750D01*
X955802Y-672084D01*
X961136Y-677163D01*
X966215Y-687578D01*
X966215Y-708405D01*
X961136Y-718820D01*
X955802Y-723900D01*
X945387Y-729234D01*
X934973Y-729234D01*
X924560Y-723900D01*
X909065Y-713739D01*
X857250Y-661670D01*
X857250Y-734313D01*
X2247900Y-5817615D02*
G01*
X2247900Y-5708650D01*
X2247900Y-5817615D02*
G01*
X2201163Y-5817615D01*
X2185670Y-5812536D01*
X2180336Y-5807202D01*
X2175256Y-5796787D01*
X2175256Y-5786373D01*
X2180336Y-5775960D01*
X2185670Y-5770879D01*
X2201163Y-5765800D01*
X2247900Y-5765800D02*
G01*
X2201163Y-5765800D01*
X2185670Y-5760465D01*
X2180336Y-5755386D01*
X2175256Y-5744971D01*
X2175256Y-5729223D01*
X2180336Y-5718810D01*
X2185670Y-5713729D01*
X2201163Y-5708650D01*
X2247900Y-5708650D01*
X2140965Y-5796787D02*
G01*
X2130552Y-5802121D01*
X2114804Y-5817615D01*
X2114804Y-5708650D01*
X2247900Y-5447284D02*
G01*
X2247900Y-5556250D01*
X2247900Y-5447284D02*
G01*
X2294636Y-5447284D01*
X2310129Y-5452363D01*
X2315463Y-5457697D01*
X2320543Y-5468112D01*
X2320543Y-5478526D01*
X2315463Y-5488939D01*
X2310129Y-5494020D01*
X2294636Y-5499100D01*
X2247900Y-5499100D02*
G01*
X2294636Y-5499100D01*
X2310129Y-5504434D01*
X2315463Y-5509513D01*
X2320543Y-5519928D01*
X2320543Y-5535676D01*
X2315463Y-5546089D01*
X2310129Y-5551170D01*
X2294636Y-5556250D01*
X2247900Y-5556250D01*
X2360168Y-5473192D02*
G01*
X2360168Y-5468112D01*
X2365247Y-5457697D01*
X2370581Y-5452363D01*
X2380995Y-5447284D01*
X2401570Y-5447284D01*
X2411984Y-5452363D01*
X2417318Y-5457697D01*
X2422397Y-5468112D01*
X2422397Y-5478526D01*
X2417318Y-5488939D01*
X2406904Y-5504434D01*
X2354834Y-5556250D01*
X2427731Y-5556250D01*
X2005584Y-3263900D02*
G01*
X2114550Y-3263900D01*
X2005584Y-3263900D02*
G01*
X2005584Y-3217163D01*
X2010663Y-3201670D01*
X2015997Y-3196336D01*
X2026411Y-3191255D01*
X2036825Y-3191255D01*
X2047240Y-3196336D01*
X2052320Y-3201670D01*
X2057400Y-3217163D01*
X2057400Y-3263900D02*
G01*
X2057400Y-3217163D01*
X2062734Y-3201670D01*
X2067813Y-3196336D01*
X2078227Y-3191255D01*
X2093975Y-3191255D01*
X2104390Y-3196336D01*
X2109470Y-3201670D01*
X2114550Y-3217163D01*
X2114550Y-3263900D01*
X2031491Y-3078987D02*
G01*
X2021077Y-3084068D01*
X2010663Y-3094481D01*
X2005584Y-3104895D01*
X2005584Y-3125723D01*
X2010663Y-3136137D01*
X2021077Y-3146552D01*
X2031491Y-3151631D01*
X2047240Y-3156965D01*
X2073147Y-3156965D01*
X2088641Y-3151631D01*
X2099056Y-3146552D01*
X2109470Y-3136137D01*
X2114550Y-3125723D01*
X2114550Y-3104895D01*
X2109470Y-3094481D01*
X2099056Y-3084068D01*
X2088641Y-3078987D01*
D11*
X3281299Y-95707D02*
G01*
X2281300Y-95707D01*
X3281832Y-710133D02*
G01*
X3321304Y-727499D01*
X3321304Y-627499D01*
X3281832Y-647192D01*
X3281299Y-777499D02*
G01*
X2281300Y-777499D01*
X3281299Y-777499D02*
G01*
X3281299Y-17500D01*
X2281300Y-777499D02*
G01*
X2281300Y-17500D01*
X3281299Y-17500D02*
G01*
X2281300Y-17500D01*
X3281299Y-557580D02*
G01*
X2281300Y-557580D01*
X2277999Y-95707D02*
G01*
X1278001Y-95707D01*
X2278532Y-710133D02*
G01*
X2318004Y-727499D01*
X2318004Y-627499D01*
X2278532Y-647192D01*
X2277999Y-777499D02*
G01*
X1278001Y-777499D01*
X2277999Y-777499D02*
G01*
X2277999Y-17500D01*
X1278001Y-777499D02*
G01*
X1278001Y-17500D01*
X2277999Y-17500D02*
G01*
X1278001Y-17500D01*
X2277999Y-557580D02*
G01*
X1278001Y-557580D01*
X4374692Y-1046098D02*
G01*
X4374692Y-46101D01*
X3760266Y-1046632D02*
G01*
X3742900Y-1086104D01*
X3842900Y-1086104D01*
X3823208Y-1046632D01*
X3692900Y-1046098D02*
G01*
X3692900Y-46101D01*
X3692900Y-1046098D02*
G01*
X4452899Y-1046098D01*
X3692900Y-46101D02*
G01*
X4452899Y-46101D01*
X4452899Y-1046098D02*
G01*
X4452899Y-46101D01*
X3912819Y-1046098D02*
G01*
X3912819Y-46101D01*
D12*
X736600Y-1943100D02*
G01*
X546100Y-1943100D01*
X546100Y-2197100D01*
X1308100Y-2197100D01*
X1308100Y-1943100D01*
D13*
X1308100Y-1943100D02*
G01*
X736600Y-1943100D01*
D12*
X736600Y-2286000D02*
G01*
X546100Y-2286000D01*
X546100Y-2540000D01*
X1308100Y-2540000D01*
X1308100Y-2286000D01*
D13*
X1308100Y-2286000D02*
G01*
X736600Y-2286000D01*
D12*
X736600Y-1257300D02*
G01*
X546100Y-1257300D01*
X546100Y-1511300D01*
X1308100Y-1511300D01*
X1308100Y-1257300D01*
D13*
X1308100Y-1257300D02*
G01*
X736600Y-1257300D01*
D12*
X736600Y-1600200D02*
G01*
X546100Y-1600200D01*
X546100Y-1854200D01*
X1308100Y-1854200D01*
X1308100Y-1600200D01*
D13*
X1308100Y-1600200D02*
G01*
X736600Y-1600200D01*
D11*
X121107Y-46101D02*
G01*
X121107Y-1046098D01*
X735533Y-45567D02*
G01*
X752899Y-6095D01*
X652899Y-6095D01*
X672592Y-45567D01*
X802899Y-46101D02*
G01*
X802899Y-1046098D01*
X802899Y-46101D02*
G01*
X42900Y-46101D01*
X802899Y-1046098D02*
G01*
X42900Y-1046098D01*
X42900Y-46101D02*
G01*
X42900Y-1046098D01*
X582980Y-46101D02*
G01*
X582980Y-1046098D01*
X596900Y-4711700D02*
G01*
X1104900Y-4711700D01*
X3898900Y-4711700D02*
G01*
X3390900Y-4711700D01*
X3644900Y-4965700D02*
G01*
X3644900Y-4457700D01*
X4412396Y-3802202D02*
G01*
X83403Y-3802202D01*
X4055595Y-5621197D02*
G01*
X83403Y-5621197D01*
X4412396Y-5621197D02*
G01*
X4240197Y-5621197D01*
X83403Y-5621197D02*
G01*
X83403Y-3802202D01*
X4412396Y-5621197D02*
G01*
X4412396Y-3802202D01*
X3898900Y-6553200D02*
G01*
X3390900Y-6553200D01*
X596900Y-6553200D02*
G01*
X1104900Y-6553200D01*
X850900Y-6299200D02*
G01*
X850900Y-6807200D01*
X83403Y-7462697D02*
G01*
X4412396Y-7462697D01*
X440204Y-5643702D02*
G01*
X4412396Y-5643702D01*
X83403Y-5643702D02*
G01*
X255602Y-5643702D01*
X4412396Y-5643702D02*
G01*
X4412396Y-7462697D01*
X83403Y-5643702D02*
G01*
X83403Y-7462697D01*
D12*
X2146300Y-2730500D02*
G01*
X2400300Y-2730500D01*
X2400300Y-3746500D01*
X2146300Y-3746500D01*
X2146300Y-3556000D01*
D13*
X2146300Y-2730500D02*
G01*
X2146300Y-3556000D01*
D11*
X3404031Y-1071397D02*
G01*
X3404031Y-3331387D01*
X2584018Y-3251377D02*
G01*
X2584018Y-1141399D01*
X3324021Y-1141399D01*
X3324021Y-3251377D01*
X2584018Y-3251377D01*
X2594025Y-1151381D02*
G01*
X3314014Y-3241395D01*
X2504033Y-3331387D02*
G01*
X2816047Y-3331387D01*
X3102152Y-3331387D02*
G01*
X3404031Y-3331387D01*
X3404031Y-1071397D02*
G01*
X3101997Y-1071397D01*
X2816202Y-1071397D02*
G01*
X2504033Y-1071397D01*
X2504033Y-3331387D02*
G01*
X2504033Y-1071397D01*
X4475200Y-1346200D02*
G01*
X4475200Y-2616200D01*
X3805199Y-2616200D01*
X3805199Y-1346200D01*
X4475200Y-1346200D01*
M02*
