G04 Layer: BottomLayer*
G04 EasyEDA v6.5.42, 2024-06-13 11:32:13*
G04 d1ebce20da0e461893040d04fa24d534,1f4b798e1f424c36b07c5063a1ef9d4e,10*
G04 Gerber Generator version 0.2*
G04 Scale: 100 percent, Rotated: No, Reflected: No *
G04 Dimensions in millimeters *
G04 leading zeros omitted , absolute positions ,4 integer and 5 decimal *
%FSLAX45Y45*%
%MOMM*%

%AMMACRO1*21,1,$1,$2,0,0,$3*%
%ADD10C,1.0000*%
%ADD11C,0.2540*%
%ADD12C,1.5748*%
%ADD13MACRO1,1.5748X1.5748X-90.0000*%
%ADD14MACRO1,1.5748X1.5748X90.0000*%
%ADD15C,2.0000*%
%ADD16R,1.5748X1.5748*%
%ADD17C,1.8000*%
%ADD18O,2.3999952X0.9999979999999999*%
%ADD19C,2.5000*%
%ADD20C,0.6200*%
%ADD21C,0.8000*%
%ADD22C,0.0163*%

%LPD*%
G36*
X36068Y-7474102D02*
G01*
X32156Y-7473289D01*
X28905Y-7471105D01*
X26670Y-7467803D01*
X25908Y-7463942D01*
X25908Y-36068D01*
X26670Y-32156D01*
X28905Y-28905D01*
X32156Y-26670D01*
X36068Y-25908D01*
X4463948Y-25908D01*
X4467809Y-26670D01*
X4471111Y-28905D01*
X4473295Y-32156D01*
X4474108Y-36068D01*
X4474108Y-7463942D01*
X4473295Y-7467803D01*
X4471111Y-7471105D01*
X4467809Y-7473289D01*
X4463948Y-7474102D01*
G37*

%LPC*%
G36*
X874268Y-7129678D02*
G01*
X1030732Y-7129678D01*
X1039114Y-7128814D01*
X1046734Y-7126528D01*
X1053744Y-7122769D01*
X1059840Y-7117740D01*
X1064869Y-7111644D01*
X1068628Y-7104634D01*
X1070914Y-7097014D01*
X1071778Y-7088631D01*
X1071778Y-6932168D01*
X1070914Y-6923786D01*
X1068628Y-6916166D01*
X1064869Y-6909155D01*
X1059840Y-6903059D01*
X1053744Y-6898030D01*
X1046734Y-6894271D01*
X1039114Y-6891985D01*
X1030732Y-6891172D01*
X874268Y-6891172D01*
X865886Y-6891985D01*
X858266Y-6894271D01*
X851255Y-6898030D01*
X845159Y-6903059D01*
X840130Y-6909155D01*
X836371Y-6916166D01*
X834085Y-6923786D01*
X833272Y-6932168D01*
X833272Y-7088631D01*
X834085Y-7097014D01*
X836371Y-7104634D01*
X840130Y-7111644D01*
X845159Y-7117740D01*
X851255Y-7122769D01*
X858266Y-7126528D01*
X865886Y-7128814D01*
G37*
G36*
X3497884Y-7129424D02*
G01*
X3512515Y-7129424D01*
X3527094Y-7127595D01*
X3541369Y-7124039D01*
X3555034Y-7118705D01*
X3567988Y-7111796D01*
X3579926Y-7103313D01*
X3590798Y-7093407D01*
X3600348Y-7082231D01*
X3608476Y-7070039D01*
X3614978Y-7056881D01*
X3619906Y-7043013D01*
X3623005Y-7028688D01*
X3624376Y-7014057D01*
X3623919Y-6999376D01*
X3621684Y-6984898D01*
X3617671Y-6970775D01*
X3611930Y-6957263D01*
X3604615Y-6944563D01*
X3595725Y-6932828D01*
X3585514Y-6922262D01*
X3574084Y-6913067D01*
X3561587Y-6905345D01*
X3548278Y-6899198D01*
X3534257Y-6894779D01*
X3519830Y-6892086D01*
X3505200Y-6891172D01*
X3490569Y-6892086D01*
X3476142Y-6894779D01*
X3462121Y-6899198D01*
X3448812Y-6905345D01*
X3436315Y-6913067D01*
X3424885Y-6922262D01*
X3414674Y-6932828D01*
X3405784Y-6944563D01*
X3398469Y-6957263D01*
X3392728Y-6970775D01*
X3388715Y-6984898D01*
X3386480Y-6999376D01*
X3386023Y-7014057D01*
X3387394Y-7028688D01*
X3390493Y-7043013D01*
X3395421Y-7056881D01*
X3401923Y-7070039D01*
X3410051Y-7082231D01*
X3419601Y-7093407D01*
X3430473Y-7103313D01*
X3442411Y-7111796D01*
X3455365Y-7118705D01*
X3469030Y-7124039D01*
X3483305Y-7127595D01*
G37*
G36*
X369773Y-6683654D02*
G01*
X385165Y-6682282D01*
X400304Y-6679082D01*
X414934Y-6674103D01*
X428904Y-6667500D01*
X441959Y-6659219D01*
X453999Y-6649466D01*
X464769Y-6638391D01*
X474116Y-6626098D01*
X481990Y-6612788D01*
X488238Y-6598615D01*
X492759Y-6583832D01*
X495503Y-6568643D01*
X496417Y-6553200D01*
X495503Y-6537756D01*
X492759Y-6522567D01*
X488238Y-6507784D01*
X481990Y-6493611D01*
X474116Y-6480302D01*
X464769Y-6468008D01*
X453999Y-6456934D01*
X441959Y-6447180D01*
X428904Y-6438900D01*
X414934Y-6432296D01*
X400304Y-6427317D01*
X385165Y-6424117D01*
X369773Y-6422745D01*
X354330Y-6423202D01*
X339039Y-6425488D01*
X324104Y-6429603D01*
X309778Y-6435394D01*
X296265Y-6442862D01*
X283667Y-6451854D01*
X272288Y-6462318D01*
X262178Y-6474002D01*
X253542Y-6486855D01*
X246481Y-6500571D01*
X241096Y-6515100D01*
X237490Y-6530136D01*
X235661Y-6545478D01*
X235661Y-6560921D01*
X237490Y-6576263D01*
X241096Y-6591300D01*
X246481Y-6605828D01*
X253542Y-6619544D01*
X262178Y-6632397D01*
X272288Y-6644081D01*
X283667Y-6654546D01*
X296265Y-6663537D01*
X309778Y-6671005D01*
X324104Y-6676796D01*
X339039Y-6680911D01*
X354330Y-6683197D01*
G37*
G36*
X952500Y-6621627D02*
G01*
X967130Y-6620713D01*
X981557Y-6618020D01*
X995578Y-6613601D01*
X1008887Y-6607454D01*
X1021384Y-6599732D01*
X1032814Y-6590538D01*
X1043025Y-6579971D01*
X1051915Y-6568236D01*
X1059230Y-6555536D01*
X1064971Y-6542024D01*
X1068984Y-6527901D01*
X1071219Y-6513423D01*
X1071676Y-6498742D01*
X1070305Y-6484112D01*
X1067206Y-6469786D01*
X1062278Y-6455918D01*
X1055776Y-6442760D01*
X1047648Y-6430568D01*
X1038098Y-6419392D01*
X1027226Y-6409486D01*
X1015288Y-6401003D01*
X1002334Y-6394094D01*
X988669Y-6388760D01*
X974191Y-6385153D01*
X970635Y-6383477D01*
X967994Y-6380581D01*
X966622Y-6376924D01*
X966774Y-6373012D01*
X968349Y-6369456D01*
X971143Y-6366764D01*
X974801Y-6365290D01*
X981557Y-6364020D01*
X995578Y-6359601D01*
X1008887Y-6353454D01*
X1021384Y-6345732D01*
X1032814Y-6336538D01*
X1043025Y-6325971D01*
X1051915Y-6314236D01*
X1059230Y-6301536D01*
X1064971Y-6288024D01*
X1068984Y-6273901D01*
X1071219Y-6259423D01*
X1071676Y-6244742D01*
X1070305Y-6230112D01*
X1067206Y-6215786D01*
X1062278Y-6201918D01*
X1055776Y-6188760D01*
X1047648Y-6176568D01*
X1038098Y-6165392D01*
X1027226Y-6155486D01*
X1015288Y-6147003D01*
X1002334Y-6140094D01*
X988669Y-6134760D01*
X974191Y-6131153D01*
X970635Y-6129477D01*
X967994Y-6126581D01*
X966622Y-6122924D01*
X966774Y-6119012D01*
X968349Y-6115456D01*
X971143Y-6112764D01*
X974801Y-6111290D01*
X981557Y-6110020D01*
X995578Y-6105601D01*
X1008887Y-6099454D01*
X1021384Y-6091732D01*
X1032814Y-6082538D01*
X1043025Y-6071971D01*
X1051915Y-6060236D01*
X1059230Y-6047536D01*
X1064971Y-6034024D01*
X1068984Y-6019901D01*
X1071219Y-6005423D01*
X1071676Y-5990742D01*
X1070305Y-5976112D01*
X1067206Y-5961786D01*
X1062278Y-5947918D01*
X1055776Y-5934760D01*
X1047648Y-5922568D01*
X1038098Y-5911392D01*
X1027226Y-5901486D01*
X1015288Y-5893003D01*
X1002334Y-5886094D01*
X988669Y-5880760D01*
X974191Y-5877153D01*
X970635Y-5875477D01*
X967994Y-5872581D01*
X966622Y-5868924D01*
X966774Y-5865012D01*
X968349Y-5861456D01*
X971143Y-5858764D01*
X974801Y-5857290D01*
X981557Y-5856020D01*
X995578Y-5851601D01*
X1008887Y-5845454D01*
X1021384Y-5837732D01*
X1032814Y-5828538D01*
X1043025Y-5817971D01*
X1051915Y-5806236D01*
X1059230Y-5793536D01*
X1064971Y-5780024D01*
X1068984Y-5765901D01*
X1071219Y-5751423D01*
X1071676Y-5736742D01*
X1070305Y-5722112D01*
X1067206Y-5707786D01*
X1062278Y-5693918D01*
X1055776Y-5680760D01*
X1047648Y-5668568D01*
X1038098Y-5657392D01*
X1027226Y-5647486D01*
X1015288Y-5639003D01*
X1002334Y-5632094D01*
X988669Y-5626760D01*
X974191Y-5623153D01*
X970635Y-5621477D01*
X967994Y-5618581D01*
X966622Y-5614924D01*
X966774Y-5611012D01*
X968349Y-5607456D01*
X971143Y-5604764D01*
X974801Y-5603290D01*
X981557Y-5602020D01*
X995578Y-5597601D01*
X1008887Y-5591454D01*
X1021384Y-5583732D01*
X1032814Y-5574538D01*
X1043025Y-5563971D01*
X1051915Y-5552236D01*
X1059230Y-5539536D01*
X1064971Y-5526024D01*
X1068984Y-5511901D01*
X1071219Y-5497423D01*
X1071676Y-5482742D01*
X1070305Y-5468112D01*
X1067206Y-5453786D01*
X1062278Y-5439918D01*
X1055776Y-5426760D01*
X1047648Y-5414568D01*
X1038098Y-5403392D01*
X1027226Y-5393486D01*
X1015288Y-5385003D01*
X1002334Y-5378094D01*
X988669Y-5372760D01*
X974191Y-5369153D01*
X970635Y-5367477D01*
X967994Y-5364581D01*
X966622Y-5360924D01*
X966774Y-5357012D01*
X968349Y-5353456D01*
X971143Y-5350764D01*
X974801Y-5349290D01*
X981557Y-5348020D01*
X995578Y-5343601D01*
X1008887Y-5337454D01*
X1021384Y-5329732D01*
X1032814Y-5320538D01*
X1043025Y-5309971D01*
X1051915Y-5298236D01*
X1059230Y-5285536D01*
X1064971Y-5272024D01*
X1068984Y-5257901D01*
X1071219Y-5243423D01*
X1071676Y-5228742D01*
X1070305Y-5214112D01*
X1067206Y-5199786D01*
X1062278Y-5185918D01*
X1055776Y-5172760D01*
X1047648Y-5160568D01*
X1038098Y-5149392D01*
X1027226Y-5139486D01*
X1015288Y-5131003D01*
X1002334Y-5124094D01*
X988669Y-5118760D01*
X974191Y-5115153D01*
X970635Y-5113477D01*
X967994Y-5110581D01*
X966622Y-5106924D01*
X966774Y-5103012D01*
X968349Y-5099456D01*
X971143Y-5096764D01*
X974801Y-5095290D01*
X981557Y-5094020D01*
X995578Y-5089601D01*
X1008887Y-5083454D01*
X1021384Y-5075732D01*
X1032814Y-5066538D01*
X1043025Y-5055971D01*
X1051915Y-5044236D01*
X1059230Y-5031536D01*
X1064971Y-5018024D01*
X1068984Y-5003901D01*
X1071219Y-4989423D01*
X1071676Y-4974742D01*
X1070305Y-4960112D01*
X1067206Y-4945786D01*
X1062278Y-4931918D01*
X1055776Y-4918760D01*
X1047648Y-4906568D01*
X1038098Y-4895392D01*
X1027226Y-4885486D01*
X1015288Y-4877003D01*
X1002334Y-4870094D01*
X988669Y-4864760D01*
X974191Y-4861153D01*
X970635Y-4859477D01*
X967994Y-4856581D01*
X966622Y-4852924D01*
X966774Y-4849012D01*
X968349Y-4845456D01*
X971143Y-4842764D01*
X974801Y-4841290D01*
X981557Y-4840020D01*
X995578Y-4835601D01*
X1008887Y-4829454D01*
X1021384Y-4821732D01*
X1032814Y-4812538D01*
X1043025Y-4801971D01*
X1051915Y-4790236D01*
X1059230Y-4777536D01*
X1064971Y-4764024D01*
X1068984Y-4749901D01*
X1071219Y-4735423D01*
X1071676Y-4720742D01*
X1070305Y-4706112D01*
X1067206Y-4691786D01*
X1062278Y-4677918D01*
X1055776Y-4664760D01*
X1047648Y-4652568D01*
X1038098Y-4641392D01*
X1027226Y-4631486D01*
X1015288Y-4623003D01*
X1002334Y-4616094D01*
X988669Y-4610760D01*
X974191Y-4607153D01*
X970635Y-4605477D01*
X967994Y-4602581D01*
X966622Y-4598924D01*
X966774Y-4595012D01*
X968349Y-4591456D01*
X971143Y-4588764D01*
X974801Y-4587290D01*
X981557Y-4586020D01*
X995578Y-4581601D01*
X1008887Y-4575454D01*
X1021384Y-4567732D01*
X1032814Y-4558538D01*
X1043025Y-4547971D01*
X1051915Y-4536236D01*
X1059230Y-4523536D01*
X1064971Y-4510024D01*
X1068984Y-4495901D01*
X1071219Y-4481423D01*
X1071676Y-4466742D01*
X1070305Y-4452112D01*
X1067206Y-4437786D01*
X1062278Y-4423918D01*
X1055776Y-4410760D01*
X1047648Y-4398568D01*
X1038098Y-4387392D01*
X1027226Y-4377486D01*
X1015288Y-4369003D01*
X1002334Y-4362094D01*
X988669Y-4356760D01*
X974191Y-4353153D01*
X970635Y-4351477D01*
X967994Y-4348581D01*
X966622Y-4344924D01*
X966774Y-4341012D01*
X968349Y-4337456D01*
X971143Y-4334764D01*
X974801Y-4333290D01*
X981557Y-4332020D01*
X995578Y-4327601D01*
X1008887Y-4321454D01*
X1021384Y-4313732D01*
X1032814Y-4304538D01*
X1043025Y-4293971D01*
X1051915Y-4282236D01*
X1059230Y-4269536D01*
X1064971Y-4256024D01*
X1068984Y-4241901D01*
X1071219Y-4227423D01*
X1071676Y-4212742D01*
X1070305Y-4198112D01*
X1067206Y-4183786D01*
X1062278Y-4169918D01*
X1055776Y-4156760D01*
X1047648Y-4144568D01*
X1038098Y-4133392D01*
X1027226Y-4123486D01*
X1015288Y-4115003D01*
X1002334Y-4108094D01*
X988669Y-4102760D01*
X974191Y-4099153D01*
X970635Y-4097477D01*
X967994Y-4094581D01*
X966622Y-4090924D01*
X966774Y-4087012D01*
X968349Y-4083456D01*
X971143Y-4080764D01*
X974801Y-4079290D01*
X981557Y-4078020D01*
X995578Y-4073601D01*
X1008887Y-4067454D01*
X1021384Y-4059732D01*
X1032814Y-4050537D01*
X1043025Y-4039971D01*
X1051915Y-4028236D01*
X1059230Y-4015536D01*
X1064971Y-4002024D01*
X1068984Y-3987901D01*
X1071219Y-3973423D01*
X1071676Y-3958742D01*
X1070305Y-3944112D01*
X1067206Y-3929786D01*
X1062278Y-3915918D01*
X1055776Y-3902760D01*
X1047648Y-3890568D01*
X1038098Y-3879392D01*
X1027226Y-3869486D01*
X1015288Y-3861003D01*
X1002334Y-3854094D01*
X988669Y-3848760D01*
X974191Y-3845153D01*
X970635Y-3843477D01*
X967994Y-3840581D01*
X966622Y-3836924D01*
X966774Y-3833012D01*
X968349Y-3829456D01*
X971143Y-3826764D01*
X974801Y-3825290D01*
X981557Y-3824020D01*
X995578Y-3819601D01*
X1008887Y-3813454D01*
X1021384Y-3805732D01*
X1032814Y-3796537D01*
X1043025Y-3785971D01*
X1051915Y-3774236D01*
X1059230Y-3761536D01*
X1064971Y-3748024D01*
X1068984Y-3733901D01*
X1071219Y-3719423D01*
X1071676Y-3704742D01*
X1070305Y-3690112D01*
X1067206Y-3675786D01*
X1062278Y-3661918D01*
X1055776Y-3648760D01*
X1047648Y-3636568D01*
X1038098Y-3625392D01*
X1027226Y-3615486D01*
X1015288Y-3607003D01*
X1002334Y-3600094D01*
X988669Y-3594760D01*
X974191Y-3591153D01*
X970635Y-3589477D01*
X967994Y-3586581D01*
X966622Y-3582924D01*
X966774Y-3579012D01*
X968349Y-3575456D01*
X971143Y-3572764D01*
X974801Y-3571290D01*
X981557Y-3570020D01*
X995578Y-3565601D01*
X1008887Y-3559454D01*
X1021384Y-3551732D01*
X1032814Y-3542537D01*
X1043025Y-3531971D01*
X1051915Y-3520236D01*
X1059230Y-3507536D01*
X1064971Y-3494024D01*
X1068984Y-3479901D01*
X1071219Y-3465423D01*
X1071676Y-3450742D01*
X1070305Y-3436112D01*
X1067206Y-3421786D01*
X1062278Y-3407918D01*
X1055776Y-3394760D01*
X1047648Y-3382568D01*
X1038098Y-3371392D01*
X1027226Y-3361486D01*
X1015288Y-3353003D01*
X1002334Y-3346094D01*
X988669Y-3340760D01*
X974394Y-3337204D01*
X959815Y-3335375D01*
X945184Y-3335375D01*
X930605Y-3337204D01*
X916330Y-3340760D01*
X902665Y-3346094D01*
X889711Y-3353003D01*
X877773Y-3361486D01*
X866902Y-3371392D01*
X857351Y-3382568D01*
X849223Y-3394760D01*
X842721Y-3407918D01*
X837793Y-3421786D01*
X834694Y-3436112D01*
X833323Y-3450742D01*
X833780Y-3465423D01*
X836015Y-3479901D01*
X840028Y-3494024D01*
X845769Y-3507536D01*
X853084Y-3520236D01*
X861974Y-3531971D01*
X872185Y-3542537D01*
X883615Y-3551732D01*
X896112Y-3559454D01*
X909421Y-3565601D01*
X923442Y-3570020D01*
X930198Y-3571290D01*
X933856Y-3572764D01*
X936650Y-3575456D01*
X938225Y-3579012D01*
X938377Y-3582924D01*
X937006Y-3586581D01*
X934364Y-3589477D01*
X930808Y-3591153D01*
X916330Y-3594760D01*
X902665Y-3600094D01*
X889711Y-3607003D01*
X877773Y-3615486D01*
X866902Y-3625392D01*
X857351Y-3636568D01*
X849223Y-3648760D01*
X842721Y-3661918D01*
X837793Y-3675786D01*
X834694Y-3690112D01*
X833323Y-3704742D01*
X833780Y-3719423D01*
X836015Y-3733901D01*
X840028Y-3748024D01*
X845769Y-3761536D01*
X853084Y-3774236D01*
X861974Y-3785971D01*
X872185Y-3796537D01*
X883615Y-3805732D01*
X896112Y-3813454D01*
X909421Y-3819601D01*
X923442Y-3824020D01*
X930198Y-3825290D01*
X933856Y-3826764D01*
X936650Y-3829456D01*
X938225Y-3833012D01*
X938377Y-3836924D01*
X937006Y-3840581D01*
X934364Y-3843477D01*
X930808Y-3845153D01*
X916330Y-3848760D01*
X902665Y-3854094D01*
X889711Y-3861003D01*
X877773Y-3869486D01*
X866902Y-3879392D01*
X857351Y-3890568D01*
X849223Y-3902760D01*
X842721Y-3915918D01*
X837793Y-3929786D01*
X834694Y-3944112D01*
X833323Y-3958742D01*
X833780Y-3973423D01*
X836015Y-3987901D01*
X840028Y-4002024D01*
X845769Y-4015536D01*
X853084Y-4028236D01*
X861974Y-4039971D01*
X872185Y-4050537D01*
X883615Y-4059732D01*
X896112Y-4067454D01*
X909421Y-4073601D01*
X923442Y-4078020D01*
X930198Y-4079290D01*
X933856Y-4080764D01*
X936650Y-4083456D01*
X938225Y-4087012D01*
X938377Y-4090924D01*
X937006Y-4094581D01*
X934364Y-4097477D01*
X930808Y-4099153D01*
X916330Y-4102760D01*
X902665Y-4108094D01*
X889711Y-4115003D01*
X877773Y-4123486D01*
X866902Y-4133392D01*
X857351Y-4144568D01*
X849223Y-4156760D01*
X842721Y-4169918D01*
X837793Y-4183786D01*
X834694Y-4198112D01*
X833323Y-4212742D01*
X833780Y-4227423D01*
X836015Y-4241901D01*
X840028Y-4256024D01*
X845769Y-4269536D01*
X853084Y-4282236D01*
X861974Y-4293971D01*
X872185Y-4304538D01*
X883615Y-4313732D01*
X896112Y-4321454D01*
X909421Y-4327601D01*
X923442Y-4332020D01*
X930198Y-4333290D01*
X933856Y-4334764D01*
X936650Y-4337456D01*
X938225Y-4341012D01*
X938377Y-4344924D01*
X937006Y-4348581D01*
X934364Y-4351477D01*
X930808Y-4353153D01*
X916330Y-4356760D01*
X902665Y-4362094D01*
X889711Y-4369003D01*
X877773Y-4377486D01*
X866902Y-4387392D01*
X857351Y-4398568D01*
X849223Y-4410760D01*
X842721Y-4423918D01*
X837793Y-4437786D01*
X834694Y-4452112D01*
X833323Y-4466742D01*
X833780Y-4481423D01*
X836015Y-4495901D01*
X840028Y-4510024D01*
X845769Y-4523536D01*
X853084Y-4536236D01*
X861974Y-4547971D01*
X872185Y-4558538D01*
X883615Y-4567732D01*
X896112Y-4575454D01*
X909421Y-4581601D01*
X923442Y-4586020D01*
X930198Y-4587290D01*
X933856Y-4588764D01*
X936650Y-4591456D01*
X938225Y-4595012D01*
X938377Y-4598924D01*
X937006Y-4602581D01*
X934364Y-4605477D01*
X930808Y-4607153D01*
X916330Y-4610760D01*
X902665Y-4616094D01*
X889711Y-4623003D01*
X877773Y-4631486D01*
X866902Y-4641392D01*
X857351Y-4652568D01*
X849223Y-4664760D01*
X842721Y-4677918D01*
X837793Y-4691786D01*
X834694Y-4706112D01*
X833323Y-4720742D01*
X833780Y-4735423D01*
X836015Y-4749901D01*
X840028Y-4764024D01*
X845769Y-4777536D01*
X853084Y-4790236D01*
X861974Y-4801971D01*
X872185Y-4812538D01*
X883615Y-4821732D01*
X896112Y-4829454D01*
X909421Y-4835601D01*
X923442Y-4840020D01*
X930198Y-4841290D01*
X933856Y-4842764D01*
X936650Y-4845456D01*
X938225Y-4849012D01*
X938377Y-4852924D01*
X937006Y-4856581D01*
X934364Y-4859477D01*
X930808Y-4861153D01*
X916330Y-4864760D01*
X902665Y-4870094D01*
X889711Y-4877003D01*
X877773Y-4885486D01*
X866902Y-4895392D01*
X857351Y-4906568D01*
X849223Y-4918760D01*
X842721Y-4931918D01*
X837793Y-4945786D01*
X834694Y-4960112D01*
X833323Y-4974742D01*
X833780Y-4989423D01*
X836015Y-5003901D01*
X840028Y-5018024D01*
X845769Y-5031536D01*
X853084Y-5044236D01*
X861974Y-5055971D01*
X872185Y-5066538D01*
X883615Y-5075732D01*
X896112Y-5083454D01*
X909421Y-5089601D01*
X923442Y-5094020D01*
X930198Y-5095290D01*
X933856Y-5096764D01*
X936650Y-5099456D01*
X938225Y-5103012D01*
X938377Y-5106924D01*
X937006Y-5110581D01*
X934364Y-5113477D01*
X930808Y-5115153D01*
X916330Y-5118760D01*
X902665Y-5124094D01*
X889711Y-5131003D01*
X877773Y-5139486D01*
X866902Y-5149392D01*
X857351Y-5160568D01*
X849223Y-5172760D01*
X842721Y-5185918D01*
X837793Y-5199786D01*
X834694Y-5214112D01*
X833323Y-5228742D01*
X833780Y-5243423D01*
X836015Y-5257901D01*
X840028Y-5272024D01*
X845769Y-5285536D01*
X853084Y-5298236D01*
X861974Y-5309971D01*
X872185Y-5320538D01*
X883615Y-5329732D01*
X896112Y-5337454D01*
X909421Y-5343601D01*
X923442Y-5348020D01*
X930198Y-5349290D01*
X933856Y-5350764D01*
X936650Y-5353456D01*
X938225Y-5357012D01*
X938377Y-5360924D01*
X937006Y-5364581D01*
X934364Y-5367477D01*
X930808Y-5369153D01*
X916330Y-5372760D01*
X902665Y-5378094D01*
X889711Y-5385003D01*
X877773Y-5393486D01*
X866902Y-5403392D01*
X857351Y-5414568D01*
X849223Y-5426760D01*
X842721Y-5439918D01*
X837793Y-5453786D01*
X834694Y-5468112D01*
X833323Y-5482742D01*
X833780Y-5497423D01*
X836015Y-5511901D01*
X840028Y-5526024D01*
X845769Y-5539536D01*
X853084Y-5552236D01*
X861974Y-5563971D01*
X872185Y-5574538D01*
X883615Y-5583732D01*
X896112Y-5591454D01*
X909421Y-5597601D01*
X923442Y-5602020D01*
X930198Y-5603290D01*
X933856Y-5604764D01*
X936650Y-5607456D01*
X938225Y-5611012D01*
X938377Y-5614924D01*
X937006Y-5618581D01*
X934364Y-5621477D01*
X930808Y-5623153D01*
X916330Y-5626760D01*
X902665Y-5632094D01*
X889711Y-5639003D01*
X877773Y-5647486D01*
X866902Y-5657392D01*
X857351Y-5668568D01*
X849223Y-5680760D01*
X842721Y-5693918D01*
X837793Y-5707786D01*
X834694Y-5722112D01*
X833323Y-5736742D01*
X833780Y-5751423D01*
X836015Y-5765901D01*
X840028Y-5780024D01*
X845769Y-5793536D01*
X853084Y-5806236D01*
X861974Y-5817971D01*
X872185Y-5828538D01*
X883615Y-5837732D01*
X896112Y-5845454D01*
X909421Y-5851601D01*
X923442Y-5856020D01*
X930198Y-5857290D01*
X933856Y-5858764D01*
X936650Y-5861456D01*
X938225Y-5865012D01*
X938377Y-5868924D01*
X937006Y-5872581D01*
X934364Y-5875477D01*
X930808Y-5877153D01*
X916330Y-5880760D01*
X902665Y-5886094D01*
X889711Y-5893003D01*
X877773Y-5901486D01*
X866902Y-5911392D01*
X857351Y-5922568D01*
X849223Y-5934760D01*
X842721Y-5947918D01*
X837793Y-5961786D01*
X834694Y-5976112D01*
X833323Y-5990742D01*
X833780Y-6005423D01*
X836015Y-6019901D01*
X840028Y-6034024D01*
X845769Y-6047536D01*
X853084Y-6060236D01*
X861974Y-6071971D01*
X872185Y-6082538D01*
X883615Y-6091732D01*
X896112Y-6099454D01*
X909421Y-6105601D01*
X923442Y-6110020D01*
X930198Y-6111290D01*
X933856Y-6112764D01*
X936650Y-6115456D01*
X938225Y-6119012D01*
X938377Y-6122924D01*
X937006Y-6126581D01*
X934364Y-6129477D01*
X930808Y-6131153D01*
X916330Y-6134760D01*
X902665Y-6140094D01*
X889711Y-6147003D01*
X877773Y-6155486D01*
X866902Y-6165392D01*
X857351Y-6176568D01*
X849223Y-6188760D01*
X842721Y-6201918D01*
X837793Y-6215786D01*
X834694Y-6230112D01*
X833323Y-6244742D01*
X833780Y-6259423D01*
X836015Y-6273901D01*
X840028Y-6288024D01*
X845769Y-6301536D01*
X853084Y-6314236D01*
X861974Y-6325971D01*
X872185Y-6336538D01*
X883615Y-6345732D01*
X896112Y-6353454D01*
X909421Y-6359601D01*
X923442Y-6364020D01*
X930198Y-6365290D01*
X933856Y-6366764D01*
X936650Y-6369456D01*
X938225Y-6373012D01*
X938377Y-6376924D01*
X937006Y-6380581D01*
X934364Y-6383477D01*
X930808Y-6385153D01*
X916330Y-6388760D01*
X902665Y-6394094D01*
X889711Y-6401003D01*
X877773Y-6409486D01*
X866902Y-6419392D01*
X857351Y-6430568D01*
X849223Y-6442760D01*
X842721Y-6455918D01*
X837793Y-6469786D01*
X834694Y-6484112D01*
X833323Y-6498742D01*
X833780Y-6513423D01*
X836015Y-6527901D01*
X840028Y-6542024D01*
X845769Y-6555536D01*
X853084Y-6568236D01*
X861974Y-6579971D01*
X872185Y-6590538D01*
X883615Y-6599732D01*
X896112Y-6607454D01*
X909421Y-6613601D01*
X923442Y-6618020D01*
X937869Y-6620713D01*
G37*
G36*
X3497884Y-6621424D02*
G01*
X3512515Y-6621424D01*
X3527094Y-6619595D01*
X3541369Y-6616039D01*
X3555034Y-6610705D01*
X3567988Y-6603796D01*
X3579926Y-6595313D01*
X3590798Y-6585407D01*
X3600348Y-6574231D01*
X3608476Y-6562039D01*
X3614978Y-6548881D01*
X3619906Y-6535013D01*
X3623005Y-6520688D01*
X3624376Y-6506057D01*
X3623919Y-6491376D01*
X3621684Y-6476898D01*
X3617671Y-6462776D01*
X3611930Y-6449263D01*
X3604615Y-6436563D01*
X3595725Y-6424828D01*
X3585514Y-6414262D01*
X3574084Y-6405067D01*
X3561587Y-6397345D01*
X3548278Y-6391198D01*
X3534257Y-6386779D01*
X3527501Y-6385509D01*
X3523843Y-6384036D01*
X3521049Y-6381343D01*
X3519474Y-6377787D01*
X3519322Y-6373876D01*
X3520694Y-6370218D01*
X3523335Y-6367322D01*
X3526891Y-6365646D01*
X3541369Y-6362039D01*
X3555034Y-6356705D01*
X3567988Y-6349796D01*
X3579926Y-6341313D01*
X3590798Y-6331407D01*
X3600348Y-6320231D01*
X3608476Y-6308039D01*
X3614978Y-6294882D01*
X3619906Y-6281013D01*
X3623005Y-6266688D01*
X3624376Y-6252057D01*
X3623919Y-6237376D01*
X3621684Y-6222898D01*
X3617671Y-6208776D01*
X3611930Y-6195263D01*
X3604615Y-6182563D01*
X3595725Y-6170828D01*
X3585514Y-6160262D01*
X3574084Y-6151067D01*
X3561587Y-6143345D01*
X3548278Y-6137198D01*
X3534257Y-6132779D01*
X3527501Y-6131509D01*
X3523843Y-6130036D01*
X3521049Y-6127343D01*
X3519474Y-6123787D01*
X3519322Y-6119876D01*
X3520694Y-6116218D01*
X3523335Y-6113322D01*
X3526891Y-6111646D01*
X3541369Y-6108039D01*
X3555034Y-6102705D01*
X3567988Y-6095796D01*
X3579926Y-6087313D01*
X3590798Y-6077407D01*
X3600348Y-6066231D01*
X3608476Y-6054039D01*
X3614978Y-6040882D01*
X3619906Y-6027013D01*
X3623005Y-6012688D01*
X3624376Y-5998057D01*
X3623919Y-5983376D01*
X3621684Y-5968898D01*
X3617671Y-5954776D01*
X3611930Y-5941263D01*
X3604615Y-5928563D01*
X3595725Y-5916828D01*
X3585514Y-5906262D01*
X3574084Y-5897067D01*
X3561587Y-5889345D01*
X3548278Y-5883198D01*
X3534257Y-5878779D01*
X3527501Y-5877509D01*
X3523843Y-5876036D01*
X3521049Y-5873343D01*
X3519474Y-5869787D01*
X3519322Y-5865876D01*
X3520694Y-5862218D01*
X3523335Y-5859322D01*
X3526891Y-5857646D01*
X3541369Y-5854039D01*
X3555034Y-5848705D01*
X3567988Y-5841796D01*
X3579926Y-5833313D01*
X3590798Y-5823407D01*
X3600348Y-5812231D01*
X3608476Y-5800039D01*
X3614978Y-5786882D01*
X3619906Y-5773013D01*
X3623005Y-5758688D01*
X3624376Y-5744057D01*
X3623919Y-5729376D01*
X3621684Y-5714898D01*
X3617671Y-5700776D01*
X3611930Y-5687263D01*
X3604615Y-5674563D01*
X3595725Y-5662828D01*
X3585514Y-5652262D01*
X3574084Y-5643067D01*
X3561587Y-5635345D01*
X3548278Y-5629198D01*
X3534257Y-5624779D01*
X3527501Y-5623509D01*
X3523843Y-5622036D01*
X3521049Y-5619343D01*
X3519474Y-5615787D01*
X3519322Y-5611876D01*
X3520694Y-5608218D01*
X3523335Y-5605322D01*
X3526891Y-5603646D01*
X3541369Y-5600039D01*
X3555034Y-5594705D01*
X3567988Y-5587796D01*
X3579926Y-5579313D01*
X3590798Y-5569407D01*
X3600348Y-5558231D01*
X3608476Y-5546039D01*
X3614978Y-5532882D01*
X3619906Y-5519013D01*
X3623005Y-5504688D01*
X3624376Y-5490057D01*
X3623919Y-5475376D01*
X3621684Y-5460898D01*
X3617671Y-5446776D01*
X3611930Y-5433263D01*
X3604615Y-5420563D01*
X3595725Y-5408828D01*
X3585514Y-5398262D01*
X3574084Y-5389067D01*
X3561587Y-5381345D01*
X3548278Y-5375198D01*
X3534257Y-5370779D01*
X3527501Y-5369509D01*
X3523843Y-5368036D01*
X3521049Y-5365343D01*
X3519474Y-5361787D01*
X3519322Y-5357876D01*
X3520694Y-5354218D01*
X3523335Y-5351322D01*
X3526891Y-5349646D01*
X3541369Y-5346039D01*
X3555034Y-5340705D01*
X3567988Y-5333796D01*
X3579926Y-5325313D01*
X3590798Y-5315407D01*
X3600348Y-5304231D01*
X3608476Y-5292039D01*
X3614978Y-5278882D01*
X3619906Y-5265013D01*
X3623005Y-5250688D01*
X3624376Y-5236057D01*
X3623919Y-5221376D01*
X3621684Y-5206898D01*
X3617671Y-5192776D01*
X3611930Y-5179263D01*
X3604615Y-5166563D01*
X3595725Y-5154828D01*
X3585514Y-5144262D01*
X3574084Y-5135067D01*
X3561587Y-5127345D01*
X3548278Y-5121198D01*
X3534257Y-5116779D01*
X3527501Y-5115509D01*
X3523843Y-5114036D01*
X3521049Y-5111343D01*
X3519474Y-5107787D01*
X3519322Y-5103876D01*
X3520694Y-5100218D01*
X3523335Y-5097322D01*
X3526891Y-5095646D01*
X3541369Y-5092039D01*
X3555034Y-5086705D01*
X3567988Y-5079796D01*
X3579926Y-5071313D01*
X3590798Y-5061407D01*
X3600348Y-5050231D01*
X3608476Y-5038039D01*
X3614978Y-5024882D01*
X3619906Y-5011013D01*
X3623005Y-4996688D01*
X3624376Y-4982057D01*
X3623919Y-4967376D01*
X3621684Y-4952898D01*
X3617671Y-4938776D01*
X3611930Y-4925263D01*
X3604615Y-4912563D01*
X3595725Y-4900828D01*
X3585514Y-4890262D01*
X3574084Y-4881067D01*
X3561587Y-4873345D01*
X3548278Y-4867198D01*
X3534257Y-4862779D01*
X3527501Y-4861509D01*
X3523843Y-4860036D01*
X3521049Y-4857343D01*
X3519474Y-4853787D01*
X3519322Y-4849876D01*
X3520694Y-4846218D01*
X3523335Y-4843322D01*
X3526891Y-4841646D01*
X3541369Y-4838039D01*
X3555034Y-4832705D01*
X3567988Y-4825796D01*
X3579926Y-4817313D01*
X3590798Y-4807407D01*
X3600348Y-4796231D01*
X3608476Y-4784039D01*
X3614978Y-4770882D01*
X3619906Y-4757013D01*
X3623005Y-4742688D01*
X3624376Y-4728057D01*
X3623919Y-4713376D01*
X3621684Y-4698898D01*
X3617671Y-4684776D01*
X3611930Y-4671263D01*
X3604615Y-4658563D01*
X3595725Y-4646828D01*
X3585514Y-4636262D01*
X3574084Y-4627067D01*
X3561587Y-4619345D01*
X3548278Y-4613198D01*
X3534257Y-4608779D01*
X3527501Y-4607509D01*
X3523843Y-4606036D01*
X3521049Y-4603343D01*
X3519474Y-4599787D01*
X3519322Y-4595876D01*
X3520694Y-4592218D01*
X3523335Y-4589322D01*
X3526891Y-4587646D01*
X3541369Y-4584039D01*
X3555034Y-4578705D01*
X3567988Y-4571796D01*
X3579926Y-4563313D01*
X3590798Y-4553407D01*
X3600348Y-4542231D01*
X3608476Y-4530039D01*
X3614978Y-4516882D01*
X3619906Y-4503013D01*
X3623005Y-4488688D01*
X3624376Y-4474057D01*
X3623919Y-4459376D01*
X3621684Y-4444898D01*
X3617671Y-4430776D01*
X3611930Y-4417263D01*
X3604615Y-4404563D01*
X3595725Y-4392828D01*
X3585514Y-4382262D01*
X3574084Y-4373067D01*
X3561587Y-4365345D01*
X3548278Y-4359198D01*
X3534257Y-4354779D01*
X3527501Y-4353509D01*
X3523843Y-4352036D01*
X3521049Y-4349343D01*
X3519474Y-4345787D01*
X3519322Y-4341876D01*
X3520694Y-4338218D01*
X3523335Y-4335322D01*
X3526891Y-4333646D01*
X3541369Y-4330039D01*
X3555034Y-4324705D01*
X3567988Y-4317796D01*
X3579926Y-4309313D01*
X3590798Y-4299407D01*
X3600348Y-4288231D01*
X3608476Y-4276039D01*
X3614978Y-4262882D01*
X3619906Y-4249013D01*
X3623005Y-4234688D01*
X3624376Y-4220057D01*
X3623919Y-4205376D01*
X3621684Y-4190898D01*
X3617671Y-4176776D01*
X3611930Y-4163263D01*
X3604615Y-4150563D01*
X3595725Y-4138828D01*
X3585514Y-4128262D01*
X3574084Y-4119067D01*
X3561587Y-4111345D01*
X3548278Y-4105198D01*
X3534257Y-4100779D01*
X3527501Y-4099509D01*
X3523843Y-4098036D01*
X3521049Y-4095343D01*
X3519474Y-4091787D01*
X3519322Y-4087876D01*
X3520694Y-4084218D01*
X3523335Y-4081322D01*
X3526891Y-4079646D01*
X3541369Y-4076039D01*
X3555034Y-4070705D01*
X3567988Y-4063796D01*
X3579926Y-4055313D01*
X3590798Y-4045407D01*
X3600348Y-4034231D01*
X3608476Y-4022039D01*
X3614978Y-4008882D01*
X3619906Y-3995013D01*
X3623005Y-3980687D01*
X3624376Y-3966057D01*
X3623919Y-3951376D01*
X3621684Y-3936898D01*
X3617671Y-3922776D01*
X3611930Y-3909263D01*
X3604615Y-3896563D01*
X3595725Y-3884828D01*
X3585514Y-3874262D01*
X3574084Y-3865067D01*
X3561587Y-3857345D01*
X3548278Y-3851198D01*
X3534257Y-3846779D01*
X3527501Y-3845509D01*
X3523843Y-3844036D01*
X3521049Y-3841343D01*
X3519474Y-3837787D01*
X3519322Y-3833876D01*
X3520694Y-3830218D01*
X3523335Y-3827322D01*
X3526891Y-3825646D01*
X3541369Y-3822039D01*
X3555034Y-3816705D01*
X3567988Y-3809796D01*
X3579926Y-3801313D01*
X3590798Y-3791407D01*
X3600348Y-3780231D01*
X3608476Y-3768039D01*
X3614978Y-3754882D01*
X3619906Y-3741013D01*
X3623005Y-3726687D01*
X3624376Y-3712057D01*
X3623919Y-3697376D01*
X3621684Y-3682898D01*
X3617671Y-3668776D01*
X3611930Y-3655263D01*
X3604615Y-3642563D01*
X3595725Y-3630828D01*
X3585514Y-3620262D01*
X3574084Y-3611067D01*
X3561587Y-3603345D01*
X3548278Y-3597198D01*
X3536594Y-3593490D01*
X3532987Y-3591509D01*
X3530498Y-3588258D01*
X3529482Y-3584295D01*
X3530142Y-3580282D01*
X3532276Y-3576828D01*
X3535629Y-3574491D01*
X3539642Y-3573678D01*
X3583432Y-3573678D01*
X3591814Y-3572814D01*
X3599434Y-3570528D01*
X3606444Y-3566769D01*
X3612540Y-3561740D01*
X3617569Y-3555644D01*
X3621328Y-3548634D01*
X3623614Y-3541014D01*
X3624427Y-3532632D01*
X3624427Y-3376168D01*
X3623614Y-3367786D01*
X3621328Y-3360165D01*
X3617569Y-3353155D01*
X3612540Y-3347059D01*
X3606444Y-3342030D01*
X3599434Y-3338271D01*
X3591814Y-3335985D01*
X3583432Y-3335172D01*
X3426968Y-3335172D01*
X3418586Y-3335985D01*
X3410965Y-3338271D01*
X3403955Y-3342030D01*
X3397859Y-3347059D01*
X3392830Y-3353155D01*
X3389071Y-3360165D01*
X3386785Y-3367786D01*
X3385972Y-3376168D01*
X3385972Y-3532632D01*
X3386785Y-3541014D01*
X3389071Y-3548634D01*
X3392830Y-3555644D01*
X3397859Y-3561740D01*
X3403955Y-3566769D01*
X3410965Y-3570528D01*
X3418586Y-3572814D01*
X3426968Y-3573678D01*
X3470757Y-3573678D01*
X3474770Y-3574491D01*
X3478123Y-3576828D01*
X3480257Y-3580282D01*
X3480917Y-3584295D01*
X3479901Y-3588258D01*
X3477412Y-3591509D01*
X3473805Y-3593490D01*
X3462121Y-3597198D01*
X3448812Y-3603345D01*
X3436315Y-3611067D01*
X3424885Y-3620262D01*
X3414674Y-3630828D01*
X3405784Y-3642563D01*
X3398469Y-3655263D01*
X3392728Y-3668776D01*
X3388715Y-3682898D01*
X3386480Y-3697376D01*
X3386023Y-3712057D01*
X3387394Y-3726687D01*
X3390493Y-3741013D01*
X3395421Y-3754882D01*
X3401923Y-3768039D01*
X3410051Y-3780231D01*
X3419601Y-3791407D01*
X3430473Y-3801313D01*
X3442411Y-3809796D01*
X3455365Y-3816705D01*
X3469030Y-3822039D01*
X3483508Y-3825646D01*
X3487064Y-3827322D01*
X3489706Y-3830218D01*
X3491077Y-3833876D01*
X3490925Y-3837787D01*
X3489350Y-3841343D01*
X3486556Y-3844036D01*
X3482898Y-3845509D01*
X3476142Y-3846779D01*
X3462121Y-3851198D01*
X3448812Y-3857345D01*
X3436315Y-3865067D01*
X3424885Y-3874262D01*
X3414674Y-3884828D01*
X3405784Y-3896563D01*
X3398469Y-3909263D01*
X3392728Y-3922776D01*
X3388715Y-3936898D01*
X3386480Y-3951376D01*
X3386023Y-3966057D01*
X3387394Y-3980687D01*
X3390493Y-3995013D01*
X3395421Y-4008882D01*
X3401923Y-4022039D01*
X3410051Y-4034231D01*
X3419601Y-4045407D01*
X3430473Y-4055313D01*
X3442411Y-4063796D01*
X3455365Y-4070705D01*
X3469030Y-4076039D01*
X3483508Y-4079646D01*
X3487064Y-4081322D01*
X3489706Y-4084218D01*
X3491077Y-4087876D01*
X3490925Y-4091787D01*
X3489350Y-4095343D01*
X3486556Y-4098036D01*
X3482898Y-4099509D01*
X3476142Y-4100779D01*
X3462121Y-4105198D01*
X3448812Y-4111345D01*
X3436315Y-4119067D01*
X3424885Y-4128262D01*
X3414674Y-4138828D01*
X3405784Y-4150563D01*
X3398469Y-4163263D01*
X3392728Y-4176776D01*
X3388715Y-4190898D01*
X3386480Y-4205376D01*
X3386023Y-4220057D01*
X3387394Y-4234688D01*
X3390493Y-4249013D01*
X3395421Y-4262882D01*
X3401923Y-4276039D01*
X3410051Y-4288231D01*
X3419601Y-4299407D01*
X3430473Y-4309313D01*
X3442411Y-4317796D01*
X3455365Y-4324705D01*
X3469030Y-4330039D01*
X3483508Y-4333646D01*
X3487064Y-4335322D01*
X3489706Y-4338218D01*
X3491077Y-4341876D01*
X3490925Y-4345787D01*
X3489350Y-4349343D01*
X3486556Y-4352036D01*
X3482898Y-4353509D01*
X3476142Y-4354779D01*
X3462121Y-4359198D01*
X3448812Y-4365345D01*
X3436315Y-4373067D01*
X3424885Y-4382262D01*
X3414674Y-4392828D01*
X3405784Y-4404563D01*
X3398469Y-4417263D01*
X3392728Y-4430776D01*
X3388715Y-4444898D01*
X3386480Y-4459376D01*
X3386023Y-4474057D01*
X3387394Y-4488688D01*
X3390493Y-4503013D01*
X3395421Y-4516882D01*
X3401923Y-4530039D01*
X3410051Y-4542231D01*
X3419601Y-4553407D01*
X3430473Y-4563313D01*
X3442411Y-4571796D01*
X3455365Y-4578705D01*
X3469030Y-4584039D01*
X3483508Y-4587646D01*
X3487064Y-4589322D01*
X3489706Y-4592218D01*
X3491077Y-4595876D01*
X3490925Y-4599787D01*
X3489350Y-4603343D01*
X3486556Y-4606036D01*
X3482898Y-4607509D01*
X3476142Y-4608779D01*
X3462121Y-4613198D01*
X3448812Y-4619345D01*
X3436315Y-4627067D01*
X3424885Y-4636262D01*
X3414674Y-4646828D01*
X3405784Y-4658563D01*
X3398469Y-4671263D01*
X3392728Y-4684776D01*
X3388715Y-4698898D01*
X3386480Y-4713376D01*
X3386023Y-4728057D01*
X3387394Y-4742688D01*
X3390493Y-4757013D01*
X3395421Y-4770882D01*
X3401923Y-4784039D01*
X3410051Y-4796231D01*
X3419601Y-4807407D01*
X3430473Y-4817313D01*
X3442411Y-4825796D01*
X3455365Y-4832705D01*
X3469030Y-4838039D01*
X3483508Y-4841646D01*
X3487064Y-4843322D01*
X3489706Y-4846218D01*
X3491077Y-4849876D01*
X3490925Y-4853787D01*
X3489350Y-4857343D01*
X3486556Y-4860036D01*
X3482898Y-4861509D01*
X3476142Y-4862779D01*
X3462121Y-4867198D01*
X3448812Y-4873345D01*
X3436315Y-4881067D01*
X3424885Y-4890262D01*
X3414674Y-4900828D01*
X3405784Y-4912563D01*
X3398469Y-4925263D01*
X3392728Y-4938776D01*
X3388715Y-4952898D01*
X3386480Y-4967376D01*
X3386023Y-4982057D01*
X3387394Y-4996688D01*
X3390493Y-5011013D01*
X3395421Y-5024882D01*
X3401923Y-5038039D01*
X3410051Y-5050231D01*
X3419601Y-5061407D01*
X3430473Y-5071313D01*
X3442411Y-5079796D01*
X3455365Y-5086705D01*
X3469030Y-5092039D01*
X3483508Y-5095646D01*
X3487064Y-5097322D01*
X3489706Y-5100218D01*
X3491077Y-5103876D01*
X3490925Y-5107787D01*
X3489350Y-5111343D01*
X3486556Y-5114036D01*
X3482898Y-5115509D01*
X3476142Y-5116779D01*
X3462121Y-5121198D01*
X3448812Y-5127345D01*
X3436315Y-5135067D01*
X3424885Y-5144262D01*
X3414674Y-5154828D01*
X3405784Y-5166563D01*
X3398469Y-5179263D01*
X3392728Y-5192776D01*
X3388715Y-5206898D01*
X3386480Y-5221376D01*
X3386023Y-5236057D01*
X3387394Y-5250688D01*
X3390493Y-5265013D01*
X3395421Y-5278882D01*
X3401923Y-5292039D01*
X3410051Y-5304231D01*
X3419601Y-5315407D01*
X3430473Y-5325313D01*
X3442411Y-5333796D01*
X3455365Y-5340705D01*
X3469030Y-5346039D01*
X3483508Y-5349646D01*
X3487064Y-5351322D01*
X3489706Y-5354218D01*
X3491077Y-5357876D01*
X3490925Y-5361787D01*
X3489350Y-5365343D01*
X3486556Y-5368036D01*
X3482898Y-5369509D01*
X3476142Y-5370779D01*
X3462121Y-5375198D01*
X3448812Y-5381345D01*
X3436315Y-5389067D01*
X3424885Y-5398262D01*
X3414674Y-5408828D01*
X3405784Y-5420563D01*
X3398469Y-5433263D01*
X3392728Y-5446776D01*
X3388715Y-5460898D01*
X3386480Y-5475376D01*
X3386023Y-5490057D01*
X3387394Y-5504688D01*
X3390493Y-5519013D01*
X3395421Y-5532882D01*
X3401923Y-5546039D01*
X3410051Y-5558231D01*
X3419601Y-5569407D01*
X3430473Y-5579313D01*
X3442411Y-5587796D01*
X3455365Y-5594705D01*
X3469030Y-5600039D01*
X3483508Y-5603646D01*
X3487064Y-5605322D01*
X3489706Y-5608218D01*
X3491077Y-5611876D01*
X3490925Y-5615787D01*
X3489350Y-5619343D01*
X3486556Y-5622036D01*
X3482898Y-5623509D01*
X3476142Y-5624779D01*
X3462121Y-5629198D01*
X3448812Y-5635345D01*
X3436315Y-5643067D01*
X3424885Y-5652262D01*
X3414674Y-5662828D01*
X3405784Y-5674563D01*
X3398469Y-5687263D01*
X3392728Y-5700776D01*
X3388715Y-5714898D01*
X3386480Y-5729376D01*
X3386023Y-5744057D01*
X3387394Y-5758688D01*
X3390493Y-5773013D01*
X3395421Y-5786882D01*
X3401923Y-5800039D01*
X3410051Y-5812231D01*
X3419601Y-5823407D01*
X3430473Y-5833313D01*
X3442411Y-5841796D01*
X3455365Y-5848705D01*
X3469030Y-5854039D01*
X3483508Y-5857646D01*
X3487064Y-5859322D01*
X3489706Y-5862218D01*
X3491077Y-5865876D01*
X3490925Y-5869787D01*
X3489350Y-5873343D01*
X3486556Y-5876036D01*
X3482898Y-5877509D01*
X3476142Y-5878779D01*
X3462121Y-5883198D01*
X3448812Y-5889345D01*
X3436315Y-5897067D01*
X3424885Y-5906262D01*
X3414674Y-5916828D01*
X3405784Y-5928563D01*
X3398469Y-5941263D01*
X3392728Y-5954776D01*
X3388715Y-5968898D01*
X3386480Y-5983376D01*
X3386023Y-5998057D01*
X3387394Y-6012688D01*
X3390493Y-6027013D01*
X3395421Y-6040882D01*
X3401923Y-6054039D01*
X3410051Y-6066231D01*
X3419601Y-6077407D01*
X3430473Y-6087313D01*
X3442411Y-6095796D01*
X3455365Y-6102705D01*
X3469030Y-6108039D01*
X3483508Y-6111646D01*
X3487064Y-6113322D01*
X3489706Y-6116218D01*
X3491077Y-6119876D01*
X3490925Y-6123787D01*
X3489350Y-6127343D01*
X3486556Y-6130036D01*
X3482898Y-6131509D01*
X3476142Y-6132779D01*
X3462121Y-6137198D01*
X3448812Y-6143345D01*
X3436315Y-6151067D01*
X3424885Y-6160262D01*
X3414674Y-6170828D01*
X3405784Y-6182563D01*
X3398469Y-6195263D01*
X3392728Y-6208776D01*
X3388715Y-6222898D01*
X3386480Y-6237376D01*
X3386023Y-6252057D01*
X3387394Y-6266688D01*
X3390493Y-6281013D01*
X3395421Y-6294882D01*
X3401923Y-6308039D01*
X3410051Y-6320231D01*
X3419601Y-6331407D01*
X3430473Y-6341313D01*
X3442411Y-6349796D01*
X3455365Y-6356705D01*
X3469030Y-6362039D01*
X3483508Y-6365646D01*
X3487064Y-6367322D01*
X3489706Y-6370218D01*
X3491077Y-6373876D01*
X3490925Y-6377787D01*
X3489350Y-6381343D01*
X3486556Y-6384036D01*
X3482898Y-6385509D01*
X3476142Y-6386779D01*
X3462121Y-6391198D01*
X3448812Y-6397345D01*
X3436315Y-6405067D01*
X3424885Y-6414262D01*
X3414674Y-6424828D01*
X3405784Y-6436563D01*
X3398469Y-6449263D01*
X3392728Y-6462776D01*
X3388715Y-6476898D01*
X3386480Y-6491376D01*
X3386023Y-6506057D01*
X3387394Y-6520688D01*
X3390493Y-6535013D01*
X3395421Y-6548881D01*
X3401923Y-6562039D01*
X3410051Y-6574231D01*
X3419601Y-6585407D01*
X3430473Y-6595313D01*
X3442411Y-6603796D01*
X3455365Y-6610705D01*
X3469030Y-6616039D01*
X3483305Y-6619595D01*
G37*
G36*
X343916Y-5859627D02*
G01*
X359918Y-5859170D01*
X375818Y-5856884D01*
X391312Y-5852820D01*
X406247Y-5846978D01*
X420471Y-5839510D01*
X433679Y-5830468D01*
X445820Y-5819952D01*
X456692Y-5808116D01*
X466090Y-5795162D01*
X473964Y-5781192D01*
X480212Y-5766409D01*
X484733Y-5751017D01*
X487476Y-5735218D01*
X488391Y-5719216D01*
X487476Y-5703163D01*
X484733Y-5687364D01*
X480212Y-5671972D01*
X473964Y-5657189D01*
X466090Y-5643219D01*
X456692Y-5630265D01*
X445820Y-5618429D01*
X433679Y-5607913D01*
X420471Y-5598871D01*
X406247Y-5591403D01*
X391312Y-5585561D01*
X375818Y-5581497D01*
X359918Y-5579211D01*
X343916Y-5578754D01*
X327914Y-5580126D01*
X312166Y-5583326D01*
X296926Y-5588254D01*
X282346Y-5594908D01*
X268579Y-5603240D01*
X255879Y-5612993D01*
X244398Y-5624169D01*
X234238Y-5636615D01*
X225552Y-5650128D01*
X218490Y-5664504D01*
X213106Y-5679592D01*
X209448Y-5695238D01*
X207619Y-5711190D01*
X207619Y-5727192D01*
X209448Y-5743143D01*
X213106Y-5758789D01*
X218490Y-5773877D01*
X225552Y-5788253D01*
X234238Y-5801766D01*
X244398Y-5814212D01*
X255879Y-5825388D01*
X268579Y-5835142D01*
X282346Y-5843473D01*
X296926Y-5850128D01*
X312166Y-5855055D01*
X327914Y-5858256D01*
G37*
G36*
X4143908Y-5686145D02*
G01*
X4159910Y-5685688D01*
X4175810Y-5683402D01*
X4191304Y-5679338D01*
X4206240Y-5673496D01*
X4220464Y-5666028D01*
X4233672Y-5656986D01*
X4245813Y-5646470D01*
X4256684Y-5634634D01*
X4266082Y-5621680D01*
X4273956Y-5607710D01*
X4280204Y-5592927D01*
X4284726Y-5577535D01*
X4287469Y-5561736D01*
X4288383Y-5545734D01*
X4287469Y-5529681D01*
X4284726Y-5513882D01*
X4280204Y-5498490D01*
X4273956Y-5483707D01*
X4266082Y-5469737D01*
X4256684Y-5456783D01*
X4245813Y-5444947D01*
X4233672Y-5434431D01*
X4220464Y-5425389D01*
X4206240Y-5417921D01*
X4191304Y-5412079D01*
X4175810Y-5408015D01*
X4159910Y-5405729D01*
X4143908Y-5405272D01*
X4127906Y-5406644D01*
X4112158Y-5409844D01*
X4096918Y-5414772D01*
X4082338Y-5421426D01*
X4068572Y-5429758D01*
X4055872Y-5439511D01*
X4044391Y-5450687D01*
X4034231Y-5463133D01*
X4025544Y-5476646D01*
X4018483Y-5491022D01*
X4013098Y-5506110D01*
X4009440Y-5521756D01*
X4007612Y-5537708D01*
X4007612Y-5553710D01*
X4009440Y-5569661D01*
X4013098Y-5585307D01*
X4018483Y-5600395D01*
X4025544Y-5614771D01*
X4034231Y-5628284D01*
X4044391Y-5640730D01*
X4055872Y-5651906D01*
X4068572Y-5661660D01*
X4082338Y-5669991D01*
X4096918Y-5676646D01*
X4112158Y-5681573D01*
X4127906Y-5684774D01*
G37*
G36*
X4126026Y-4842154D02*
G01*
X4141470Y-4841697D01*
X4156760Y-4839411D01*
X4171696Y-4835296D01*
X4186021Y-4829505D01*
X4199534Y-4822037D01*
X4212132Y-4813046D01*
X4223512Y-4802581D01*
X4233621Y-4790897D01*
X4242257Y-4778044D01*
X4249318Y-4764328D01*
X4254703Y-4749800D01*
X4258310Y-4734763D01*
X4260138Y-4719421D01*
X4260138Y-4703978D01*
X4258310Y-4688636D01*
X4254703Y-4673600D01*
X4249318Y-4659071D01*
X4242257Y-4645355D01*
X4233621Y-4632502D01*
X4223512Y-4620818D01*
X4212132Y-4610354D01*
X4199534Y-4601362D01*
X4186021Y-4593894D01*
X4171696Y-4588103D01*
X4156760Y-4583988D01*
X4141470Y-4581702D01*
X4126026Y-4581245D01*
X4110634Y-4582617D01*
X4095496Y-4585817D01*
X4080865Y-4590796D01*
X4066895Y-4597400D01*
X4053840Y-4605680D01*
X4041800Y-4615434D01*
X4031030Y-4626508D01*
X4021683Y-4638802D01*
X4013809Y-4652111D01*
X4007561Y-4666284D01*
X4003040Y-4681067D01*
X4000296Y-4696256D01*
X3999382Y-4711700D01*
X4000296Y-4727143D01*
X4003040Y-4742332D01*
X4007561Y-4757115D01*
X4013809Y-4771288D01*
X4021683Y-4784598D01*
X4031030Y-4796891D01*
X4041800Y-4807966D01*
X4053840Y-4817719D01*
X4066895Y-4826000D01*
X4080865Y-4832604D01*
X4095496Y-4837582D01*
X4110634Y-4840782D01*
G37*
G36*
X362051Y-4842154D02*
G01*
X377494Y-4841697D01*
X392785Y-4839411D01*
X407720Y-4835296D01*
X422046Y-4829505D01*
X435559Y-4822037D01*
X448106Y-4813046D01*
X459536Y-4802581D01*
X469646Y-4790897D01*
X478282Y-4778044D01*
X485343Y-4764328D01*
X490728Y-4749800D01*
X494334Y-4734763D01*
X496163Y-4719421D01*
X496163Y-4703978D01*
X494334Y-4688636D01*
X490728Y-4673600D01*
X485343Y-4659071D01*
X478282Y-4645355D01*
X469646Y-4632502D01*
X459536Y-4620818D01*
X448106Y-4610354D01*
X435559Y-4601362D01*
X422046Y-4593894D01*
X407720Y-4588103D01*
X392785Y-4583988D01*
X377494Y-4581702D01*
X362051Y-4581245D01*
X346659Y-4582617D01*
X331520Y-4585817D01*
X316839Y-4590796D01*
X302920Y-4597400D01*
X289814Y-4605680D01*
X277825Y-4615434D01*
X267055Y-4626508D01*
X257657Y-4638802D01*
X249834Y-4652111D01*
X243586Y-4666284D01*
X239064Y-4681067D01*
X236321Y-4696256D01*
X235407Y-4711700D01*
X236321Y-4727143D01*
X239064Y-4742332D01*
X243586Y-4757115D01*
X249834Y-4771288D01*
X257657Y-4784598D01*
X267055Y-4796891D01*
X277825Y-4807966D01*
X289814Y-4817719D01*
X302920Y-4826000D01*
X316839Y-4832604D01*
X331520Y-4837582D01*
X346659Y-4840782D01*
G37*
G36*
X2195068Y-3738778D02*
G01*
X2351532Y-3738778D01*
X2359914Y-3737914D01*
X2367534Y-3735628D01*
X2374544Y-3731869D01*
X2380640Y-3726840D01*
X2385669Y-3720744D01*
X2389428Y-3713734D01*
X2391714Y-3706114D01*
X2392527Y-3697732D01*
X2392527Y-3541268D01*
X2391714Y-3532886D01*
X2389428Y-3525265D01*
X2385669Y-3518255D01*
X2380640Y-3512159D01*
X2374544Y-3507130D01*
X2367534Y-3503371D01*
X2359914Y-3501085D01*
X2351532Y-3500272D01*
X2307488Y-3500272D01*
X2303424Y-3499408D01*
X2300020Y-3496970D01*
X2297887Y-3493363D01*
X2297379Y-3489248D01*
X2298598Y-3485235D01*
X2301290Y-3482086D01*
X2305050Y-3480257D01*
X2309469Y-3479139D01*
X2323134Y-3473805D01*
X2336088Y-3466896D01*
X2348026Y-3458413D01*
X2358898Y-3448507D01*
X2368448Y-3437331D01*
X2376576Y-3425139D01*
X2383078Y-3411982D01*
X2388006Y-3398113D01*
X2391105Y-3383787D01*
X2392476Y-3369157D01*
X2392019Y-3354476D01*
X2389784Y-3339998D01*
X2385771Y-3325876D01*
X2380030Y-3312363D01*
X2372715Y-3299663D01*
X2363825Y-3287928D01*
X2353614Y-3277362D01*
X2342184Y-3268167D01*
X2329688Y-3260445D01*
X2316378Y-3254298D01*
X2302357Y-3249879D01*
X2287930Y-3247186D01*
X2273300Y-3246272D01*
X2258669Y-3247186D01*
X2244242Y-3249879D01*
X2230221Y-3254298D01*
X2216912Y-3260445D01*
X2204415Y-3268167D01*
X2192985Y-3277362D01*
X2182774Y-3287928D01*
X2173884Y-3299663D01*
X2166569Y-3312363D01*
X2160828Y-3325876D01*
X2156815Y-3339998D01*
X2154580Y-3354476D01*
X2154123Y-3369157D01*
X2155494Y-3383787D01*
X2158593Y-3398113D01*
X2163521Y-3411982D01*
X2170023Y-3425139D01*
X2178151Y-3437331D01*
X2187702Y-3448507D01*
X2198573Y-3458413D01*
X2210511Y-3466896D01*
X2223465Y-3473805D01*
X2237130Y-3479139D01*
X2241550Y-3480257D01*
X2245309Y-3482086D01*
X2248001Y-3485235D01*
X2249220Y-3489248D01*
X2248712Y-3493363D01*
X2246579Y-3496970D01*
X2243175Y-3499408D01*
X2239111Y-3500272D01*
X2195068Y-3500272D01*
X2186686Y-3501085D01*
X2179066Y-3503371D01*
X2172055Y-3507130D01*
X2165959Y-3512159D01*
X2160930Y-3518255D01*
X2157171Y-3525265D01*
X2154885Y-3532886D01*
X2154072Y-3541268D01*
X2154072Y-3697732D01*
X2154885Y-3706114D01*
X2157171Y-3713734D01*
X2160930Y-3720744D01*
X2165959Y-3726840D01*
X2172055Y-3731869D01*
X2179066Y-3735628D01*
X2186686Y-3737914D01*
G37*
G36*
X2889453Y-3418890D02*
G01*
X3028746Y-3418890D01*
X3041446Y-3418027D01*
X3053537Y-3415537D01*
X3065170Y-3411372D01*
X3076092Y-3405682D01*
X3086201Y-3398570D01*
X3095244Y-3390137D01*
X3103016Y-3380587D01*
X3109468Y-3370021D01*
X3114344Y-3358692D01*
X3117697Y-3346805D01*
X3119374Y-3334562D01*
X3119374Y-3322218D01*
X3117697Y-3309975D01*
X3114344Y-3298088D01*
X3109468Y-3286760D01*
X3103016Y-3276193D01*
X3095244Y-3266643D01*
X3086201Y-3258210D01*
X3076092Y-3251098D01*
X3065170Y-3245408D01*
X3053537Y-3241243D01*
X3041446Y-3238754D01*
X3028746Y-3237890D01*
X2889453Y-3237890D01*
X2876804Y-3238754D01*
X2864662Y-3241243D01*
X2853029Y-3245408D01*
X2842107Y-3251098D01*
X2831998Y-3258210D01*
X2822956Y-3266643D01*
X2815183Y-3276193D01*
X2808732Y-3286760D01*
X2803855Y-3298088D01*
X2800502Y-3309975D01*
X2798826Y-3322218D01*
X2798826Y-3334562D01*
X2800502Y-3346805D01*
X2803855Y-3358692D01*
X2808732Y-3370021D01*
X2815183Y-3380587D01*
X2822956Y-3390137D01*
X2831998Y-3398570D01*
X2842107Y-3405682D01*
X2853029Y-3411372D01*
X2864662Y-3415537D01*
X2876804Y-3418027D01*
G37*
G36*
X4237075Y-3301949D02*
G01*
X4256024Y-3301492D01*
X4274870Y-3299104D01*
X4293412Y-3294887D01*
X4311396Y-3288842D01*
X4328718Y-3281019D01*
X4345178Y-3271520D01*
X4360570Y-3260445D01*
X4374794Y-3247898D01*
X4387748Y-3233928D01*
X4399178Y-3218789D01*
X4409084Y-3202584D01*
X4417364Y-3185515D01*
X4423816Y-3167634D01*
X4428540Y-3149244D01*
X4431334Y-3130448D01*
X4432300Y-3111500D01*
X4431334Y-3092551D01*
X4428540Y-3073755D01*
X4423816Y-3055366D01*
X4417364Y-3037484D01*
X4409084Y-3020415D01*
X4399178Y-3004210D01*
X4387748Y-2989072D01*
X4374794Y-2975152D01*
X4360570Y-2962554D01*
X4345178Y-2951480D01*
X4328718Y-2941980D01*
X4311396Y-2934157D01*
X4293412Y-2928112D01*
X4274870Y-2923895D01*
X4256024Y-2921508D01*
X4237075Y-2921050D01*
X4218127Y-2922473D01*
X4199432Y-2925775D01*
X4181144Y-2930906D01*
X4163466Y-2937865D01*
X4146550Y-2946501D01*
X4130598Y-2956814D01*
X4115765Y-2968650D01*
X4102150Y-2981909D01*
X4089958Y-2996488D01*
X4079240Y-3012186D01*
X4070146Y-3028848D01*
X4062780Y-3046323D01*
X4057192Y-3064510D01*
X4053433Y-3083102D01*
X4051554Y-3102000D01*
X4051554Y-3120999D01*
X4053433Y-3139897D01*
X4057192Y-3158490D01*
X4062780Y-3176676D01*
X4070146Y-3194151D01*
X4079240Y-3210814D01*
X4089958Y-3226511D01*
X4102150Y-3241090D01*
X4115765Y-3254349D01*
X4130598Y-3266186D01*
X4146550Y-3276498D01*
X4163466Y-3285134D01*
X4181144Y-3292094D01*
X4199432Y-3297224D01*
X4218127Y-3300526D01*
G37*
G36*
X902055Y-3163925D02*
G01*
X1599844Y-3163925D01*
X1612544Y-3163062D01*
X1624634Y-3160522D01*
X1636268Y-3156407D01*
X1647240Y-3150717D01*
X1657299Y-3143605D01*
X1666341Y-3135172D01*
X1674114Y-3125571D01*
X1680565Y-3115056D01*
X1685442Y-3103727D01*
X1688795Y-3091789D01*
X1690471Y-3079597D01*
X1690471Y-3067202D01*
X1688795Y-3055010D01*
X1685442Y-3043072D01*
X1680565Y-3031744D01*
X1674114Y-3021228D01*
X1666341Y-3011627D01*
X1657299Y-3003194D01*
X1647240Y-2996082D01*
X1636268Y-2990392D01*
X1624634Y-2986278D01*
X1612544Y-2983738D01*
X1599844Y-2982874D01*
X902055Y-2982874D01*
X889355Y-2983738D01*
X877265Y-2986278D01*
X865632Y-2990392D01*
X854659Y-2996082D01*
X844600Y-3003194D01*
X835558Y-3011627D01*
X827786Y-3021228D01*
X821334Y-3031744D01*
X816457Y-3043072D01*
X813104Y-3055010D01*
X811428Y-3067202D01*
X811428Y-3079597D01*
X813104Y-3091789D01*
X816457Y-3103727D01*
X821334Y-3115056D01*
X827786Y-3125571D01*
X835558Y-3135172D01*
X844600Y-3143605D01*
X854659Y-3150717D01*
X865632Y-3156407D01*
X877265Y-3160522D01*
X889355Y-3163062D01*
G37*
G36*
X2265984Y-2976524D02*
G01*
X2280615Y-2976524D01*
X2295194Y-2974695D01*
X2309469Y-2971139D01*
X2323134Y-2965805D01*
X2336088Y-2958896D01*
X2348026Y-2950413D01*
X2358898Y-2940507D01*
X2368448Y-2929331D01*
X2376576Y-2917139D01*
X2383078Y-2903982D01*
X2388006Y-2890113D01*
X2391105Y-2875788D01*
X2392476Y-2861157D01*
X2392019Y-2846476D01*
X2389784Y-2831998D01*
X2385771Y-2817876D01*
X2380030Y-2804363D01*
X2372715Y-2791663D01*
X2363825Y-2779928D01*
X2353614Y-2769362D01*
X2342184Y-2760167D01*
X2329688Y-2752445D01*
X2316378Y-2746298D01*
X2302357Y-2741879D01*
X2287930Y-2739186D01*
X2273300Y-2738272D01*
X2258669Y-2739186D01*
X2244242Y-2741879D01*
X2230221Y-2746298D01*
X2216912Y-2752445D01*
X2204415Y-2760167D01*
X2192985Y-2769362D01*
X2182774Y-2779928D01*
X2173884Y-2791663D01*
X2166569Y-2804363D01*
X2165096Y-2807868D01*
X2162708Y-2811322D01*
X2159152Y-2813507D01*
X2154986Y-2814066D01*
X2150973Y-2812897D01*
X2147773Y-2810256D01*
X2141778Y-2802737D01*
X2132990Y-2794558D01*
X2123033Y-2787802D01*
X2117648Y-2785059D01*
X2110790Y-2780182D01*
X2099818Y-2774492D01*
X2088184Y-2770378D01*
X2076094Y-2767838D01*
X2063394Y-2766974D01*
X1413306Y-2766974D01*
X1409395Y-2766212D01*
X1406093Y-2764028D01*
X1190447Y-2548331D01*
X1188059Y-2544572D01*
X1187500Y-2540203D01*
X1188872Y-2535986D01*
X1191920Y-2532735D01*
X1196086Y-2531110D01*
X1206601Y-2529484D01*
X1220724Y-2525471D01*
X1234236Y-2519730D01*
X1246936Y-2512415D01*
X1258671Y-2503525D01*
X1269238Y-2493314D01*
X1278432Y-2481884D01*
X1286154Y-2469388D01*
X1292301Y-2456078D01*
X1296720Y-2442057D01*
X1299413Y-2427630D01*
X1300327Y-2413000D01*
X1299413Y-2398369D01*
X1296720Y-2383942D01*
X1292301Y-2369921D01*
X1286154Y-2356612D01*
X1278432Y-2344115D01*
X1269238Y-2332685D01*
X1258671Y-2322474D01*
X1246936Y-2313584D01*
X1234236Y-2306269D01*
X1220724Y-2300528D01*
X1206601Y-2296515D01*
X1192123Y-2294280D01*
X1177442Y-2293823D01*
X1162812Y-2295194D01*
X1148486Y-2298293D01*
X1134618Y-2303221D01*
X1121460Y-2309723D01*
X1109268Y-2317851D01*
X1098092Y-2327402D01*
X1088186Y-2338273D01*
X1079703Y-2350211D01*
X1072794Y-2363165D01*
X1067460Y-2376830D01*
X1063853Y-2391308D01*
X1062177Y-2394864D01*
X1059281Y-2397506D01*
X1055624Y-2398877D01*
X1051712Y-2398725D01*
X1048156Y-2397150D01*
X1045464Y-2394356D01*
X1043990Y-2390698D01*
X1042720Y-2383942D01*
X1038301Y-2369921D01*
X1032154Y-2356612D01*
X1024432Y-2344115D01*
X1019860Y-2338425D01*
X1018184Y-2335428D01*
X1017625Y-2332075D01*
X1017625Y-2151024D01*
X1018184Y-2147671D01*
X1019860Y-2144674D01*
X1024432Y-2138984D01*
X1032154Y-2126488D01*
X1038301Y-2113178D01*
X1042720Y-2099157D01*
X1043990Y-2092401D01*
X1045464Y-2088743D01*
X1048156Y-2085949D01*
X1051712Y-2084374D01*
X1055624Y-2084222D01*
X1059281Y-2085593D01*
X1062177Y-2088235D01*
X1063853Y-2091791D01*
X1067460Y-2106269D01*
X1072794Y-2119934D01*
X1079703Y-2132888D01*
X1088186Y-2144826D01*
X1098092Y-2155698D01*
X1109268Y-2165248D01*
X1121460Y-2173376D01*
X1134618Y-2179878D01*
X1148486Y-2184806D01*
X1162812Y-2187905D01*
X1177442Y-2189276D01*
X1192123Y-2188819D01*
X1206601Y-2186584D01*
X1220724Y-2182571D01*
X1234236Y-2176830D01*
X1246936Y-2169515D01*
X1258671Y-2160625D01*
X1269238Y-2150414D01*
X1278432Y-2138984D01*
X1286154Y-2126488D01*
X1292301Y-2113178D01*
X1296720Y-2099157D01*
X1299413Y-2084730D01*
X1300327Y-2070100D01*
X1299413Y-2055469D01*
X1296720Y-2041042D01*
X1292301Y-2027021D01*
X1286154Y-2013712D01*
X1278432Y-2001215D01*
X1269238Y-1989785D01*
X1258671Y-1979574D01*
X1246936Y-1970684D01*
X1234236Y-1963369D01*
X1220724Y-1957628D01*
X1206601Y-1953615D01*
X1192123Y-1951380D01*
X1177442Y-1950923D01*
X1162812Y-1952294D01*
X1148486Y-1955393D01*
X1134618Y-1960321D01*
X1121460Y-1966823D01*
X1109268Y-1974951D01*
X1098092Y-1984502D01*
X1088186Y-1995373D01*
X1079703Y-2007311D01*
X1072794Y-2020265D01*
X1067460Y-2033930D01*
X1063853Y-2048408D01*
X1062177Y-2051964D01*
X1059281Y-2054606D01*
X1055624Y-2055977D01*
X1051712Y-2055825D01*
X1048156Y-2054250D01*
X1045464Y-2051456D01*
X1043990Y-2047798D01*
X1042720Y-2041042D01*
X1038301Y-2027021D01*
X1032154Y-2013712D01*
X1024432Y-2001215D01*
X1019860Y-1995525D01*
X1018184Y-1992528D01*
X1017625Y-1989175D01*
X1017625Y-1808124D01*
X1018184Y-1804771D01*
X1019860Y-1801774D01*
X1024432Y-1796084D01*
X1032154Y-1783588D01*
X1038301Y-1770278D01*
X1042720Y-1756257D01*
X1043990Y-1749501D01*
X1045464Y-1745843D01*
X1048156Y-1743049D01*
X1051712Y-1741474D01*
X1055624Y-1741322D01*
X1059281Y-1742693D01*
X1062177Y-1745335D01*
X1063853Y-1748891D01*
X1067460Y-1763369D01*
X1072794Y-1777034D01*
X1079703Y-1789988D01*
X1088186Y-1801926D01*
X1098092Y-1812798D01*
X1109268Y-1822348D01*
X1121460Y-1830476D01*
X1134618Y-1836978D01*
X1148486Y-1841906D01*
X1162812Y-1845005D01*
X1177442Y-1846376D01*
X1192123Y-1845919D01*
X1206601Y-1843684D01*
X1220724Y-1839671D01*
X1234236Y-1833930D01*
X1246936Y-1826615D01*
X1258671Y-1817725D01*
X1269238Y-1807514D01*
X1278432Y-1796084D01*
X1286154Y-1783588D01*
X1292301Y-1770278D01*
X1296720Y-1756257D01*
X1299413Y-1741830D01*
X1300327Y-1727200D01*
X1299413Y-1712569D01*
X1296720Y-1698142D01*
X1292301Y-1684121D01*
X1286154Y-1670812D01*
X1278432Y-1658315D01*
X1269238Y-1646885D01*
X1258671Y-1636674D01*
X1246936Y-1627784D01*
X1234236Y-1620469D01*
X1220724Y-1614728D01*
X1206601Y-1610715D01*
X1192123Y-1608480D01*
X1177442Y-1608023D01*
X1162812Y-1609394D01*
X1148486Y-1612493D01*
X1134618Y-1617421D01*
X1121460Y-1623923D01*
X1109268Y-1632051D01*
X1098092Y-1641602D01*
X1088186Y-1652473D01*
X1079703Y-1664411D01*
X1072794Y-1677365D01*
X1067460Y-1691030D01*
X1063853Y-1705508D01*
X1062177Y-1709064D01*
X1059281Y-1711706D01*
X1055624Y-1713077D01*
X1051712Y-1712925D01*
X1048156Y-1711350D01*
X1045464Y-1708556D01*
X1043990Y-1704898D01*
X1042720Y-1698142D01*
X1038301Y-1684121D01*
X1032154Y-1670812D01*
X1024432Y-1658315D01*
X1019860Y-1652625D01*
X1018184Y-1649628D01*
X1017625Y-1646275D01*
X1017625Y-1465224D01*
X1018184Y-1461871D01*
X1019860Y-1458874D01*
X1024432Y-1453184D01*
X1032154Y-1440688D01*
X1038301Y-1427378D01*
X1042720Y-1413357D01*
X1043990Y-1406601D01*
X1045464Y-1402943D01*
X1048156Y-1400149D01*
X1051712Y-1398574D01*
X1055624Y-1398422D01*
X1059281Y-1399794D01*
X1062177Y-1402435D01*
X1063853Y-1405991D01*
X1067460Y-1420469D01*
X1072794Y-1434134D01*
X1079703Y-1447088D01*
X1088186Y-1459026D01*
X1098092Y-1469898D01*
X1109268Y-1479448D01*
X1121460Y-1487576D01*
X1134618Y-1494078D01*
X1148486Y-1499006D01*
X1162812Y-1502105D01*
X1177442Y-1503476D01*
X1192123Y-1503019D01*
X1206601Y-1500784D01*
X1220724Y-1496771D01*
X1234236Y-1491030D01*
X1246936Y-1483715D01*
X1258671Y-1474825D01*
X1269238Y-1464614D01*
X1278432Y-1453184D01*
X1286154Y-1440688D01*
X1292301Y-1427378D01*
X1296720Y-1413357D01*
X1299413Y-1398930D01*
X1300327Y-1384300D01*
X1299413Y-1369669D01*
X1296720Y-1355242D01*
X1292301Y-1341221D01*
X1286154Y-1327912D01*
X1278432Y-1315415D01*
X1269238Y-1303985D01*
X1258671Y-1293774D01*
X1246936Y-1284884D01*
X1234236Y-1277569D01*
X1220724Y-1271828D01*
X1206601Y-1267815D01*
X1192123Y-1265580D01*
X1177442Y-1265123D01*
X1162812Y-1266494D01*
X1148486Y-1269593D01*
X1134618Y-1274521D01*
X1121460Y-1281023D01*
X1109268Y-1289151D01*
X1098092Y-1298702D01*
X1088186Y-1309573D01*
X1079703Y-1321511D01*
X1072794Y-1334465D01*
X1067460Y-1348130D01*
X1063853Y-1362608D01*
X1062177Y-1366164D01*
X1059281Y-1368806D01*
X1055624Y-1370177D01*
X1051712Y-1370025D01*
X1048156Y-1368450D01*
X1045464Y-1365656D01*
X1043990Y-1361998D01*
X1042720Y-1355242D01*
X1038301Y-1341221D01*
X1032154Y-1327912D01*
X1024432Y-1315415D01*
X1015237Y-1303985D01*
X1004671Y-1293774D01*
X992936Y-1284884D01*
X980236Y-1277569D01*
X966724Y-1271828D01*
X952601Y-1267815D01*
X938123Y-1265580D01*
X923442Y-1265123D01*
X908812Y-1266494D01*
X894486Y-1269593D01*
X880618Y-1274521D01*
X867460Y-1281023D01*
X855268Y-1289151D01*
X844092Y-1298702D01*
X834186Y-1309573D01*
X825703Y-1321511D01*
X818794Y-1334465D01*
X813460Y-1348130D01*
X809904Y-1362405D01*
X808075Y-1376984D01*
X808075Y-1391615D01*
X809904Y-1406194D01*
X813460Y-1420469D01*
X818794Y-1434134D01*
X825703Y-1447038D01*
X834694Y-1459738D01*
X836117Y-1462532D01*
X836574Y-1465580D01*
X836574Y-1645920D01*
X836117Y-1648968D01*
X834694Y-1651812D01*
X825703Y-1664462D01*
X818794Y-1677365D01*
X813460Y-1691030D01*
X809904Y-1705305D01*
X808075Y-1719884D01*
X808075Y-1734515D01*
X809904Y-1749094D01*
X813460Y-1763369D01*
X818794Y-1777034D01*
X825703Y-1789938D01*
X834694Y-1802638D01*
X836117Y-1805432D01*
X836574Y-1808480D01*
X836574Y-1988820D01*
X836117Y-1991868D01*
X834694Y-1994712D01*
X825703Y-2007362D01*
X818794Y-2020265D01*
X813460Y-2033930D01*
X809904Y-2048205D01*
X808075Y-2062784D01*
X808075Y-2077415D01*
X809904Y-2091994D01*
X813460Y-2106269D01*
X818794Y-2119934D01*
X825703Y-2132838D01*
X834694Y-2145538D01*
X836117Y-2148332D01*
X836574Y-2151380D01*
X836574Y-2331720D01*
X836117Y-2334768D01*
X834694Y-2337612D01*
X825703Y-2350262D01*
X818794Y-2363165D01*
X813460Y-2376830D01*
X809904Y-2391105D01*
X808075Y-2405684D01*
X808075Y-2420315D01*
X809904Y-2434894D01*
X813460Y-2449169D01*
X818794Y-2462834D01*
X825703Y-2475788D01*
X834186Y-2487726D01*
X844092Y-2498598D01*
X855268Y-2508148D01*
X867460Y-2516276D01*
X880618Y-2522778D01*
X894486Y-2527706D01*
X908812Y-2530805D01*
X914095Y-2531313D01*
X917448Y-2532227D01*
X920343Y-2534259D01*
X1307388Y-2921304D01*
X1314602Y-2927807D01*
X1316786Y-2929534D01*
X1324711Y-2934919D01*
X1335684Y-2940608D01*
X1347368Y-2944723D01*
X1359458Y-2947212D01*
X1362151Y-2947517D01*
X1371854Y-2948025D01*
X2063394Y-2948025D01*
X2076094Y-2947162D01*
X2088184Y-2944622D01*
X2099818Y-2940507D01*
X2110790Y-2934817D01*
X2119122Y-2929077D01*
X2123033Y-2927197D01*
X2132990Y-2920441D01*
X2141778Y-2912262D01*
X2147773Y-2904794D01*
X2150872Y-2902153D01*
X2154732Y-2900984D01*
X2158746Y-2901442D01*
X2162302Y-2903372D01*
X2164791Y-2906572D01*
X2170023Y-2917139D01*
X2178151Y-2929331D01*
X2187702Y-2940507D01*
X2198573Y-2950413D01*
X2210511Y-2958896D01*
X2223465Y-2965805D01*
X2237130Y-2971139D01*
X2251405Y-2974695D01*
G37*
G36*
X150368Y-2646578D02*
G01*
X306832Y-2646578D01*
X315214Y-2645714D01*
X322834Y-2643428D01*
X329844Y-2639669D01*
X335940Y-2634640D01*
X340969Y-2628544D01*
X344728Y-2621534D01*
X347014Y-2613914D01*
X347878Y-2605532D01*
X347878Y-2449068D01*
X347014Y-2440686D01*
X344728Y-2433066D01*
X340969Y-2426055D01*
X335940Y-2419959D01*
X329844Y-2414930D01*
X322834Y-2411171D01*
X315214Y-2408885D01*
X306832Y-2408072D01*
X263042Y-2408072D01*
X259029Y-2407208D01*
X255676Y-2404872D01*
X253542Y-2401417D01*
X252882Y-2397404D01*
X253898Y-2393442D01*
X256387Y-2390190D01*
X259994Y-2388209D01*
X271678Y-2384501D01*
X284988Y-2378354D01*
X297484Y-2370632D01*
X308914Y-2361438D01*
X319125Y-2350871D01*
X328015Y-2339136D01*
X335330Y-2326436D01*
X341071Y-2312924D01*
X345084Y-2298801D01*
X347319Y-2284323D01*
X347776Y-2269642D01*
X346405Y-2255012D01*
X343306Y-2240686D01*
X338378Y-2226818D01*
X331876Y-2213660D01*
X323748Y-2201468D01*
X314198Y-2190292D01*
X303326Y-2180386D01*
X291388Y-2171903D01*
X278434Y-2164994D01*
X264769Y-2159660D01*
X250291Y-2156053D01*
X246735Y-2154377D01*
X244094Y-2151481D01*
X242722Y-2147824D01*
X242874Y-2143912D01*
X244449Y-2140356D01*
X247243Y-2137664D01*
X250901Y-2136190D01*
X257657Y-2134920D01*
X271678Y-2130501D01*
X284988Y-2124354D01*
X297484Y-2116632D01*
X308914Y-2107438D01*
X319125Y-2096871D01*
X328015Y-2085136D01*
X335330Y-2072436D01*
X341071Y-2058924D01*
X345084Y-2044801D01*
X347319Y-2030323D01*
X347776Y-2015642D01*
X346405Y-2001012D01*
X343306Y-1986686D01*
X338378Y-1972818D01*
X331876Y-1959660D01*
X323748Y-1947468D01*
X314198Y-1936292D01*
X303326Y-1926386D01*
X291388Y-1917903D01*
X278434Y-1910994D01*
X264769Y-1905660D01*
X250494Y-1902104D01*
X235915Y-1900275D01*
X221284Y-1900275D01*
X206705Y-1902104D01*
X192430Y-1905660D01*
X178765Y-1910994D01*
X165811Y-1917903D01*
X153873Y-1926386D01*
X143002Y-1936292D01*
X133451Y-1947468D01*
X125323Y-1959660D01*
X118821Y-1972818D01*
X113893Y-1986686D01*
X110794Y-2001012D01*
X109423Y-2015642D01*
X109880Y-2030323D01*
X112115Y-2044801D01*
X116128Y-2058924D01*
X121869Y-2072436D01*
X129184Y-2085136D01*
X138074Y-2096871D01*
X148285Y-2107438D01*
X159715Y-2116632D01*
X172212Y-2124354D01*
X185521Y-2130501D01*
X199542Y-2134920D01*
X206298Y-2136190D01*
X209956Y-2137664D01*
X212750Y-2140356D01*
X214325Y-2143912D01*
X214477Y-2147824D01*
X213106Y-2151481D01*
X210464Y-2154377D01*
X206908Y-2156053D01*
X192430Y-2159660D01*
X178765Y-2164994D01*
X165811Y-2171903D01*
X153873Y-2180386D01*
X143002Y-2190292D01*
X133451Y-2201468D01*
X125323Y-2213660D01*
X118821Y-2226818D01*
X113893Y-2240686D01*
X110794Y-2255012D01*
X109423Y-2269642D01*
X109880Y-2284323D01*
X112115Y-2298801D01*
X116128Y-2312924D01*
X121869Y-2326436D01*
X129184Y-2339136D01*
X138074Y-2350871D01*
X148285Y-2361438D01*
X159715Y-2370632D01*
X172212Y-2378354D01*
X185521Y-2384501D01*
X197205Y-2388209D01*
X200812Y-2390190D01*
X203301Y-2393442D01*
X204317Y-2397404D01*
X203657Y-2401417D01*
X201523Y-2404872D01*
X198170Y-2407208D01*
X194157Y-2408072D01*
X150368Y-2408072D01*
X141986Y-2408885D01*
X134366Y-2411171D01*
X127355Y-2414930D01*
X121259Y-2419959D01*
X116230Y-2426055D01*
X112471Y-2433066D01*
X110185Y-2440686D01*
X109372Y-2449068D01*
X109372Y-2605532D01*
X110185Y-2613914D01*
X112471Y-2621534D01*
X116230Y-2628544D01*
X121259Y-2634640D01*
X127355Y-2639669D01*
X134366Y-2643428D01*
X141986Y-2645714D01*
G37*
G36*
X2017268Y-2646578D02*
G01*
X2173732Y-2646578D01*
X2182114Y-2645714D01*
X2189734Y-2643428D01*
X2196744Y-2639669D01*
X2202840Y-2634640D01*
X2207869Y-2628544D01*
X2211628Y-2621534D01*
X2213914Y-2613914D01*
X2214727Y-2605532D01*
X2214727Y-2449068D01*
X2213914Y-2440686D01*
X2211628Y-2433066D01*
X2207869Y-2426055D01*
X2202840Y-2419959D01*
X2196744Y-2414930D01*
X2189734Y-2411171D01*
X2182114Y-2408885D01*
X2173732Y-2408072D01*
X2129942Y-2408072D01*
X2125929Y-2407208D01*
X2122576Y-2404872D01*
X2120442Y-2401417D01*
X2119782Y-2397404D01*
X2120798Y-2393442D01*
X2123287Y-2390190D01*
X2126894Y-2388209D01*
X2138578Y-2384501D01*
X2151888Y-2378354D01*
X2164384Y-2370632D01*
X2175814Y-2361438D01*
X2186025Y-2350871D01*
X2194915Y-2339136D01*
X2202230Y-2326436D01*
X2207971Y-2312924D01*
X2211984Y-2298801D01*
X2214219Y-2284323D01*
X2214676Y-2269642D01*
X2213305Y-2255012D01*
X2210206Y-2240686D01*
X2205278Y-2226818D01*
X2198776Y-2213660D01*
X2190648Y-2201468D01*
X2181098Y-2190292D01*
X2170226Y-2180386D01*
X2158288Y-2171903D01*
X2145334Y-2164994D01*
X2131669Y-2159660D01*
X2117191Y-2156053D01*
X2113635Y-2154377D01*
X2110994Y-2151481D01*
X2109622Y-2147824D01*
X2109774Y-2143912D01*
X2111349Y-2140356D01*
X2114143Y-2137664D01*
X2117801Y-2136190D01*
X2124557Y-2134920D01*
X2138578Y-2130501D01*
X2151888Y-2124354D01*
X2164384Y-2116632D01*
X2175814Y-2107438D01*
X2186025Y-2096871D01*
X2194915Y-2085136D01*
X2202230Y-2072436D01*
X2207971Y-2058924D01*
X2211984Y-2044801D01*
X2214219Y-2030323D01*
X2214676Y-2015642D01*
X2213305Y-2001012D01*
X2210206Y-1986686D01*
X2205278Y-1972818D01*
X2198776Y-1959660D01*
X2190648Y-1947468D01*
X2181098Y-1936292D01*
X2170226Y-1926386D01*
X2158288Y-1917903D01*
X2145334Y-1910994D01*
X2131669Y-1905660D01*
X2117394Y-1902104D01*
X2102815Y-1900275D01*
X2088184Y-1900275D01*
X2073605Y-1902104D01*
X2059330Y-1905660D01*
X2045665Y-1910994D01*
X2032711Y-1917903D01*
X2020773Y-1926386D01*
X2009902Y-1936292D01*
X2000351Y-1947468D01*
X1992223Y-1959660D01*
X1985721Y-1972818D01*
X1980793Y-1986686D01*
X1977694Y-2001012D01*
X1976323Y-2015642D01*
X1976780Y-2030323D01*
X1979015Y-2044801D01*
X1983028Y-2058924D01*
X1988769Y-2072436D01*
X1996084Y-2085136D01*
X2004974Y-2096871D01*
X2015185Y-2107438D01*
X2026615Y-2116632D01*
X2039112Y-2124354D01*
X2052421Y-2130501D01*
X2066442Y-2134920D01*
X2073198Y-2136190D01*
X2076856Y-2137664D01*
X2079650Y-2140356D01*
X2081225Y-2143912D01*
X2081377Y-2147824D01*
X2080006Y-2151481D01*
X2077364Y-2154377D01*
X2073808Y-2156053D01*
X2059330Y-2159660D01*
X2045665Y-2164994D01*
X2032711Y-2171903D01*
X2020773Y-2180386D01*
X2009902Y-2190292D01*
X2000351Y-2201468D01*
X1992223Y-2213660D01*
X1985721Y-2226818D01*
X1980793Y-2240686D01*
X1977694Y-2255012D01*
X1976323Y-2269642D01*
X1976780Y-2284323D01*
X1979015Y-2298801D01*
X1983028Y-2312924D01*
X1988769Y-2326436D01*
X1996084Y-2339136D01*
X2004974Y-2350871D01*
X2015185Y-2361438D01*
X2026615Y-2370632D01*
X2039112Y-2378354D01*
X2052421Y-2384501D01*
X2064105Y-2388209D01*
X2067712Y-2390190D01*
X2070201Y-2393442D01*
X2071217Y-2397404D01*
X2070557Y-2401417D01*
X2068423Y-2404872D01*
X2065070Y-2407208D01*
X2061057Y-2408072D01*
X2017268Y-2408072D01*
X2008886Y-2408885D01*
X2001266Y-2411171D01*
X1994255Y-2414930D01*
X1988159Y-2419959D01*
X1983130Y-2426055D01*
X1979371Y-2433066D01*
X1977085Y-2440686D01*
X1976272Y-2449068D01*
X1976272Y-2605532D01*
X1977085Y-2613914D01*
X1979371Y-2621534D01*
X1983130Y-2628544D01*
X1988159Y-2634640D01*
X1994255Y-2639669D01*
X2001266Y-2643428D01*
X2008886Y-2645714D01*
G37*
G36*
X1745284Y-2646324D02*
G01*
X1759915Y-2646324D01*
X1774494Y-2644495D01*
X1788769Y-2640939D01*
X1802434Y-2635605D01*
X1815388Y-2628696D01*
X1827326Y-2620213D01*
X1838198Y-2610307D01*
X1847748Y-2599131D01*
X1855876Y-2586939D01*
X1862378Y-2573782D01*
X1867306Y-2559913D01*
X1870405Y-2545588D01*
X1871776Y-2530957D01*
X1871319Y-2516276D01*
X1869084Y-2501798D01*
X1865071Y-2487676D01*
X1859330Y-2474163D01*
X1852015Y-2461463D01*
X1843125Y-2449728D01*
X1832914Y-2439162D01*
X1821484Y-2429967D01*
X1808988Y-2422245D01*
X1795678Y-2416098D01*
X1781657Y-2411679D01*
X1774901Y-2410409D01*
X1771243Y-2408936D01*
X1768449Y-2406243D01*
X1766874Y-2402687D01*
X1766722Y-2398776D01*
X1768093Y-2395118D01*
X1770735Y-2392222D01*
X1774291Y-2390546D01*
X1788769Y-2386939D01*
X1802434Y-2381605D01*
X1815388Y-2374696D01*
X1827326Y-2366213D01*
X1838198Y-2356307D01*
X1847748Y-2345131D01*
X1855876Y-2332939D01*
X1862378Y-2319782D01*
X1867306Y-2305913D01*
X1870405Y-2291588D01*
X1871776Y-2276957D01*
X1871319Y-2262276D01*
X1869084Y-2247798D01*
X1865071Y-2233676D01*
X1859330Y-2220163D01*
X1852015Y-2207463D01*
X1843125Y-2195728D01*
X1832914Y-2185162D01*
X1821484Y-2175967D01*
X1808988Y-2168245D01*
X1795678Y-2162098D01*
X1781657Y-2157679D01*
X1774901Y-2156409D01*
X1771243Y-2154936D01*
X1768449Y-2152243D01*
X1766874Y-2148687D01*
X1766722Y-2144776D01*
X1768093Y-2141118D01*
X1770735Y-2138222D01*
X1774291Y-2136546D01*
X1788769Y-2132939D01*
X1802434Y-2127605D01*
X1815388Y-2120696D01*
X1827326Y-2112213D01*
X1838198Y-2102307D01*
X1847748Y-2091131D01*
X1855876Y-2078939D01*
X1862378Y-2065782D01*
X1867306Y-2051913D01*
X1870405Y-2037588D01*
X1871776Y-2022957D01*
X1871319Y-2008276D01*
X1869084Y-1993798D01*
X1865071Y-1979675D01*
X1859330Y-1966163D01*
X1852015Y-1953463D01*
X1843125Y-1941728D01*
X1832914Y-1931162D01*
X1821484Y-1921967D01*
X1808988Y-1914245D01*
X1795678Y-1908098D01*
X1781657Y-1903679D01*
X1774901Y-1902409D01*
X1771243Y-1900936D01*
X1768449Y-1898243D01*
X1766874Y-1894687D01*
X1766722Y-1890775D01*
X1768093Y-1887118D01*
X1770735Y-1884222D01*
X1774291Y-1882546D01*
X1788769Y-1878939D01*
X1802434Y-1873605D01*
X1815388Y-1866696D01*
X1827326Y-1858213D01*
X1838198Y-1848307D01*
X1847748Y-1837131D01*
X1855876Y-1824939D01*
X1862378Y-1811782D01*
X1867306Y-1797913D01*
X1870405Y-1783588D01*
X1871776Y-1768957D01*
X1871319Y-1754276D01*
X1869084Y-1739798D01*
X1865071Y-1725675D01*
X1859330Y-1712163D01*
X1852015Y-1699463D01*
X1843125Y-1687728D01*
X1832914Y-1677162D01*
X1821484Y-1667967D01*
X1808988Y-1660245D01*
X1795678Y-1654098D01*
X1781657Y-1649679D01*
X1774901Y-1648409D01*
X1771243Y-1646936D01*
X1768449Y-1644243D01*
X1766874Y-1640687D01*
X1766722Y-1636776D01*
X1768093Y-1633118D01*
X1770735Y-1630222D01*
X1774291Y-1628546D01*
X1788769Y-1624939D01*
X1802434Y-1619605D01*
X1815388Y-1612696D01*
X1827326Y-1604213D01*
X1838198Y-1594307D01*
X1847748Y-1583131D01*
X1855876Y-1570939D01*
X1862378Y-1557782D01*
X1867306Y-1543913D01*
X1870405Y-1529588D01*
X1871776Y-1514957D01*
X1871319Y-1500276D01*
X1869084Y-1485798D01*
X1865071Y-1471676D01*
X1859330Y-1458163D01*
X1852015Y-1445463D01*
X1843125Y-1433728D01*
X1832914Y-1423162D01*
X1821484Y-1413967D01*
X1808988Y-1406245D01*
X1795678Y-1400098D01*
X1783994Y-1396390D01*
X1780387Y-1394409D01*
X1777898Y-1391158D01*
X1776882Y-1387195D01*
X1777542Y-1383182D01*
X1779676Y-1379728D01*
X1783029Y-1377391D01*
X1787042Y-1376578D01*
X1830832Y-1376578D01*
X1839214Y-1375714D01*
X1846834Y-1373428D01*
X1853844Y-1369669D01*
X1859940Y-1364640D01*
X1864969Y-1358544D01*
X1868728Y-1351534D01*
X1871014Y-1343914D01*
X1871878Y-1335532D01*
X1871878Y-1179068D01*
X1871014Y-1170686D01*
X1868728Y-1163066D01*
X1864969Y-1156055D01*
X1859940Y-1149959D01*
X1853844Y-1144930D01*
X1846834Y-1141171D01*
X1839214Y-1138885D01*
X1830832Y-1138072D01*
X1674368Y-1138072D01*
X1665986Y-1138885D01*
X1658366Y-1141171D01*
X1651355Y-1144930D01*
X1645259Y-1149959D01*
X1640230Y-1156055D01*
X1636471Y-1163066D01*
X1634185Y-1170686D01*
X1633372Y-1179068D01*
X1633372Y-1335532D01*
X1634185Y-1343914D01*
X1636471Y-1351534D01*
X1640230Y-1358544D01*
X1645259Y-1364640D01*
X1651355Y-1369669D01*
X1658366Y-1373428D01*
X1665986Y-1375714D01*
X1674368Y-1376578D01*
X1718157Y-1376578D01*
X1722170Y-1377391D01*
X1725523Y-1379728D01*
X1727657Y-1383182D01*
X1728317Y-1387195D01*
X1727301Y-1391158D01*
X1724812Y-1394409D01*
X1721205Y-1396390D01*
X1709521Y-1400098D01*
X1696212Y-1406245D01*
X1683715Y-1413967D01*
X1672285Y-1423162D01*
X1662074Y-1433728D01*
X1653184Y-1445463D01*
X1645869Y-1458163D01*
X1640128Y-1471676D01*
X1636115Y-1485798D01*
X1633880Y-1500276D01*
X1633423Y-1514957D01*
X1634794Y-1529588D01*
X1637893Y-1543913D01*
X1642821Y-1557782D01*
X1649323Y-1570939D01*
X1657451Y-1583131D01*
X1667002Y-1594307D01*
X1677873Y-1604213D01*
X1689811Y-1612696D01*
X1702765Y-1619605D01*
X1716430Y-1624939D01*
X1730908Y-1628546D01*
X1734464Y-1630222D01*
X1737106Y-1633118D01*
X1738477Y-1636776D01*
X1738325Y-1640687D01*
X1736750Y-1644243D01*
X1733956Y-1646936D01*
X1730298Y-1648409D01*
X1723542Y-1649679D01*
X1709521Y-1654098D01*
X1696212Y-1660245D01*
X1683715Y-1667967D01*
X1672285Y-1677162D01*
X1662074Y-1687728D01*
X1653184Y-1699463D01*
X1645869Y-1712163D01*
X1640128Y-1725675D01*
X1636115Y-1739798D01*
X1633880Y-1754276D01*
X1633423Y-1768957D01*
X1634794Y-1783588D01*
X1637893Y-1797913D01*
X1642821Y-1811782D01*
X1649323Y-1824939D01*
X1657451Y-1837131D01*
X1667002Y-1848307D01*
X1677873Y-1858213D01*
X1689811Y-1866696D01*
X1702765Y-1873605D01*
X1716430Y-1878939D01*
X1730908Y-1882546D01*
X1734464Y-1884222D01*
X1737106Y-1887118D01*
X1738477Y-1890775D01*
X1738325Y-1894687D01*
X1736750Y-1898243D01*
X1733956Y-1900936D01*
X1730298Y-1902409D01*
X1723542Y-1903679D01*
X1709521Y-1908098D01*
X1696212Y-1914245D01*
X1683715Y-1921967D01*
X1672285Y-1931162D01*
X1662074Y-1941728D01*
X1653184Y-1953463D01*
X1645869Y-1966163D01*
X1640128Y-1979675D01*
X1636115Y-1993798D01*
X1633880Y-2008276D01*
X1633423Y-2022957D01*
X1634794Y-2037588D01*
X1637893Y-2051913D01*
X1642821Y-2065782D01*
X1649323Y-2078939D01*
X1657451Y-2091131D01*
X1667002Y-2102307D01*
X1677873Y-2112213D01*
X1689811Y-2120696D01*
X1702765Y-2127605D01*
X1716430Y-2132939D01*
X1730908Y-2136546D01*
X1734464Y-2138222D01*
X1737106Y-2141118D01*
X1738477Y-2144776D01*
X1738325Y-2148687D01*
X1736750Y-2152243D01*
X1733956Y-2154936D01*
X1730298Y-2156409D01*
X1723542Y-2157679D01*
X1709521Y-2162098D01*
X1696212Y-2168245D01*
X1683715Y-2175967D01*
X1672285Y-2185162D01*
X1662074Y-2195728D01*
X1653184Y-2207463D01*
X1645869Y-2220163D01*
X1640128Y-2233676D01*
X1636115Y-2247798D01*
X1633880Y-2262276D01*
X1633423Y-2276957D01*
X1634794Y-2291588D01*
X1637893Y-2305913D01*
X1642821Y-2319782D01*
X1649323Y-2332939D01*
X1657451Y-2345131D01*
X1667002Y-2356307D01*
X1677873Y-2366213D01*
X1689811Y-2374696D01*
X1702765Y-2381605D01*
X1716430Y-2386939D01*
X1730908Y-2390546D01*
X1734464Y-2392222D01*
X1737106Y-2395118D01*
X1738477Y-2398776D01*
X1738325Y-2402687D01*
X1736750Y-2406243D01*
X1733956Y-2408936D01*
X1730298Y-2410409D01*
X1723542Y-2411679D01*
X1709521Y-2416098D01*
X1696212Y-2422245D01*
X1683715Y-2429967D01*
X1672285Y-2439162D01*
X1662074Y-2449728D01*
X1653184Y-2461463D01*
X1645869Y-2474163D01*
X1640128Y-2487676D01*
X1636115Y-2501798D01*
X1633880Y-2516276D01*
X1633423Y-2530957D01*
X1634794Y-2545588D01*
X1637893Y-2559913D01*
X1642821Y-2573782D01*
X1649323Y-2586939D01*
X1657451Y-2599131D01*
X1667002Y-2610307D01*
X1677873Y-2620213D01*
X1689811Y-2628696D01*
X1702765Y-2635605D01*
X1716430Y-2640939D01*
X1730705Y-2644495D01*
G37*
G36*
X3612184Y-2646324D02*
G01*
X3626815Y-2646324D01*
X3641394Y-2644495D01*
X3655669Y-2640939D01*
X3669334Y-2635605D01*
X3682288Y-2628696D01*
X3694226Y-2620213D01*
X3705098Y-2610307D01*
X3714648Y-2599131D01*
X3722776Y-2586939D01*
X3729278Y-2573782D01*
X3734206Y-2559913D01*
X3737305Y-2545588D01*
X3738676Y-2530957D01*
X3738219Y-2516276D01*
X3735984Y-2501798D01*
X3731971Y-2487676D01*
X3726230Y-2474163D01*
X3718915Y-2461463D01*
X3710025Y-2449728D01*
X3699814Y-2439162D01*
X3688384Y-2429967D01*
X3675887Y-2422245D01*
X3662578Y-2416098D01*
X3648557Y-2411679D01*
X3641801Y-2410409D01*
X3638143Y-2408936D01*
X3635349Y-2406243D01*
X3633774Y-2402687D01*
X3633622Y-2398776D01*
X3634994Y-2395118D01*
X3637635Y-2392222D01*
X3641191Y-2390546D01*
X3655669Y-2386939D01*
X3669334Y-2381605D01*
X3682288Y-2374696D01*
X3694226Y-2366213D01*
X3705098Y-2356307D01*
X3714648Y-2345131D01*
X3722776Y-2332939D01*
X3729278Y-2319782D01*
X3734206Y-2305913D01*
X3737305Y-2291588D01*
X3738676Y-2276957D01*
X3738219Y-2262276D01*
X3735984Y-2247798D01*
X3731971Y-2233676D01*
X3726230Y-2220163D01*
X3718915Y-2207463D01*
X3710025Y-2195728D01*
X3699814Y-2185162D01*
X3688384Y-2175967D01*
X3675887Y-2168245D01*
X3662578Y-2162098D01*
X3648557Y-2157679D01*
X3641801Y-2156409D01*
X3638143Y-2154936D01*
X3635349Y-2152243D01*
X3633774Y-2148687D01*
X3633622Y-2144776D01*
X3634994Y-2141118D01*
X3637635Y-2138222D01*
X3641191Y-2136546D01*
X3655669Y-2132939D01*
X3669334Y-2127605D01*
X3682288Y-2120696D01*
X3694226Y-2112213D01*
X3705098Y-2102307D01*
X3714648Y-2091131D01*
X3722776Y-2078939D01*
X3729278Y-2065782D01*
X3734206Y-2051913D01*
X3737305Y-2037588D01*
X3738676Y-2022957D01*
X3738219Y-2008276D01*
X3735984Y-1993798D01*
X3731971Y-1979675D01*
X3726230Y-1966163D01*
X3718915Y-1953463D01*
X3710025Y-1941728D01*
X3699814Y-1931162D01*
X3688384Y-1921967D01*
X3675887Y-1914245D01*
X3662578Y-1908098D01*
X3648557Y-1903679D01*
X3641801Y-1902409D01*
X3638143Y-1900936D01*
X3635349Y-1898243D01*
X3633774Y-1894687D01*
X3633622Y-1890775D01*
X3634994Y-1887118D01*
X3637635Y-1884222D01*
X3641191Y-1882546D01*
X3655669Y-1878939D01*
X3669334Y-1873605D01*
X3682288Y-1866696D01*
X3694226Y-1858213D01*
X3705098Y-1848307D01*
X3714648Y-1837131D01*
X3722776Y-1824939D01*
X3729278Y-1811782D01*
X3734206Y-1797913D01*
X3737305Y-1783588D01*
X3738676Y-1768957D01*
X3738219Y-1754276D01*
X3735984Y-1739798D01*
X3731971Y-1725675D01*
X3726230Y-1712163D01*
X3718915Y-1699463D01*
X3710025Y-1687728D01*
X3699814Y-1677162D01*
X3688384Y-1667967D01*
X3675887Y-1660245D01*
X3662578Y-1654098D01*
X3648557Y-1649679D01*
X3641801Y-1648409D01*
X3638143Y-1646936D01*
X3635349Y-1644243D01*
X3633774Y-1640687D01*
X3633622Y-1636776D01*
X3634994Y-1633118D01*
X3637635Y-1630222D01*
X3641191Y-1628546D01*
X3655669Y-1624939D01*
X3669334Y-1619605D01*
X3682288Y-1612696D01*
X3694226Y-1604213D01*
X3705098Y-1594307D01*
X3714648Y-1583131D01*
X3722776Y-1570939D01*
X3729278Y-1557782D01*
X3734206Y-1543913D01*
X3737305Y-1529588D01*
X3738676Y-1514957D01*
X3738219Y-1500276D01*
X3735984Y-1485798D01*
X3731971Y-1471676D01*
X3726230Y-1458163D01*
X3718915Y-1445463D01*
X3710025Y-1433728D01*
X3699814Y-1423162D01*
X3688384Y-1413967D01*
X3675887Y-1406245D01*
X3662578Y-1400098D01*
X3650894Y-1396390D01*
X3647287Y-1394409D01*
X3644798Y-1391158D01*
X3643782Y-1387195D01*
X3644442Y-1383182D01*
X3646576Y-1379728D01*
X3649929Y-1377391D01*
X3653942Y-1376578D01*
X3697732Y-1376578D01*
X3706114Y-1375714D01*
X3713734Y-1373428D01*
X3720744Y-1369669D01*
X3726840Y-1364640D01*
X3731869Y-1358544D01*
X3735628Y-1351534D01*
X3737914Y-1343914D01*
X3738727Y-1335532D01*
X3738727Y-1179068D01*
X3737914Y-1170686D01*
X3735628Y-1163066D01*
X3731869Y-1156055D01*
X3726840Y-1149959D01*
X3720744Y-1144930D01*
X3713734Y-1141171D01*
X3706114Y-1138885D01*
X3697732Y-1138072D01*
X3541268Y-1138072D01*
X3532886Y-1138885D01*
X3525265Y-1141171D01*
X3518255Y-1144930D01*
X3512159Y-1149959D01*
X3507130Y-1156055D01*
X3503371Y-1163066D01*
X3501085Y-1170686D01*
X3500272Y-1179068D01*
X3500272Y-1335532D01*
X3501085Y-1343914D01*
X3503371Y-1351534D01*
X3507130Y-1358544D01*
X3512159Y-1364640D01*
X3518255Y-1369669D01*
X3525265Y-1373428D01*
X3532886Y-1375714D01*
X3541268Y-1376578D01*
X3585057Y-1376578D01*
X3589070Y-1377391D01*
X3592423Y-1379728D01*
X3594557Y-1383182D01*
X3595217Y-1387195D01*
X3594201Y-1391158D01*
X3591712Y-1394409D01*
X3588105Y-1396390D01*
X3576421Y-1400098D01*
X3563112Y-1406245D01*
X3550615Y-1413967D01*
X3539185Y-1423162D01*
X3528974Y-1433728D01*
X3520084Y-1445463D01*
X3512769Y-1458163D01*
X3507028Y-1471676D01*
X3503015Y-1485798D01*
X3500780Y-1500276D01*
X3500323Y-1514957D01*
X3501694Y-1529588D01*
X3504793Y-1543913D01*
X3509721Y-1557782D01*
X3516223Y-1570939D01*
X3524351Y-1583131D01*
X3533901Y-1594307D01*
X3544773Y-1604213D01*
X3556711Y-1612696D01*
X3569665Y-1619605D01*
X3583330Y-1624939D01*
X3597808Y-1628546D01*
X3601364Y-1630222D01*
X3604006Y-1633118D01*
X3605377Y-1636776D01*
X3605225Y-1640687D01*
X3603650Y-1644243D01*
X3600856Y-1646936D01*
X3597198Y-1648409D01*
X3590442Y-1649679D01*
X3576421Y-1654098D01*
X3563112Y-1660245D01*
X3550615Y-1667967D01*
X3539185Y-1677162D01*
X3528974Y-1687728D01*
X3520084Y-1699463D01*
X3512769Y-1712163D01*
X3507028Y-1725675D01*
X3503015Y-1739798D01*
X3500780Y-1754276D01*
X3500323Y-1768957D01*
X3501694Y-1783588D01*
X3504793Y-1797913D01*
X3509721Y-1811782D01*
X3516223Y-1824939D01*
X3524351Y-1837131D01*
X3533901Y-1848307D01*
X3544773Y-1858213D01*
X3556711Y-1866696D01*
X3569665Y-1873605D01*
X3583330Y-1878939D01*
X3597808Y-1882546D01*
X3601364Y-1884222D01*
X3604006Y-1887118D01*
X3605377Y-1890775D01*
X3605225Y-1894687D01*
X3603650Y-1898243D01*
X3600856Y-1900936D01*
X3597198Y-1902409D01*
X3590442Y-1903679D01*
X3576421Y-1908098D01*
X3563112Y-1914245D01*
X3550615Y-1921967D01*
X3539185Y-1931162D01*
X3528974Y-1941728D01*
X3520084Y-1953463D01*
X3512769Y-1966163D01*
X3507028Y-1979675D01*
X3503015Y-1993798D01*
X3500780Y-2008276D01*
X3500323Y-2022957D01*
X3501694Y-2037588D01*
X3504793Y-2051913D01*
X3509721Y-2065782D01*
X3516223Y-2078939D01*
X3524351Y-2091131D01*
X3533901Y-2102307D01*
X3544773Y-2112213D01*
X3556711Y-2120696D01*
X3569665Y-2127605D01*
X3583330Y-2132939D01*
X3597808Y-2136546D01*
X3601364Y-2138222D01*
X3604006Y-2141118D01*
X3605377Y-2144776D01*
X3605225Y-2148687D01*
X3603650Y-2152243D01*
X3600856Y-2154936D01*
X3597198Y-2156409D01*
X3590442Y-2157679D01*
X3576421Y-2162098D01*
X3563112Y-2168245D01*
X3550615Y-2175967D01*
X3539185Y-2185162D01*
X3528974Y-2195728D01*
X3520084Y-2207463D01*
X3512769Y-2220163D01*
X3507028Y-2233676D01*
X3503015Y-2247798D01*
X3500780Y-2262276D01*
X3500323Y-2276957D01*
X3501694Y-2291588D01*
X3504793Y-2305913D01*
X3509721Y-2319782D01*
X3516223Y-2332939D01*
X3524351Y-2345131D01*
X3533901Y-2356307D01*
X3544773Y-2366213D01*
X3556711Y-2374696D01*
X3569665Y-2381605D01*
X3583330Y-2386939D01*
X3597808Y-2390546D01*
X3601364Y-2392222D01*
X3604006Y-2395118D01*
X3605377Y-2398776D01*
X3605225Y-2402687D01*
X3603650Y-2406243D01*
X3600856Y-2408936D01*
X3597198Y-2410409D01*
X3590442Y-2411679D01*
X3576421Y-2416098D01*
X3563112Y-2422245D01*
X3550615Y-2429967D01*
X3539185Y-2439162D01*
X3528974Y-2449728D01*
X3520084Y-2461463D01*
X3512769Y-2474163D01*
X3507028Y-2487676D01*
X3503015Y-2501798D01*
X3500780Y-2516276D01*
X3500323Y-2530957D01*
X3501694Y-2545588D01*
X3504793Y-2559913D01*
X3509721Y-2573782D01*
X3516223Y-2586939D01*
X3524351Y-2599131D01*
X3533901Y-2610307D01*
X3544773Y-2620213D01*
X3556711Y-2628696D01*
X3569665Y-2635605D01*
X3583330Y-2640939D01*
X3597605Y-2644495D01*
G37*
G36*
X4140200Y-2616708D02*
G01*
X4157776Y-2615742D01*
X4175201Y-2612948D01*
X4192168Y-2608326D01*
X4208576Y-2601925D01*
X4224223Y-2593797D01*
X4238904Y-2584043D01*
X4252468Y-2572816D01*
X4264761Y-2560167D01*
X4275632Y-2546350D01*
X4284980Y-2531414D01*
X4292650Y-2515565D01*
X4298645Y-2499004D01*
X4302810Y-2481884D01*
X4305147Y-2464409D01*
X4305655Y-2446782D01*
X4304233Y-2429256D01*
X4300982Y-2411933D01*
X4295902Y-2395067D01*
X4289044Y-2378811D01*
X4280509Y-2363419D01*
X4270349Y-2348992D01*
X4258767Y-2335733D01*
X4245813Y-2323795D01*
X4231690Y-2313279D01*
X4216501Y-2304338D01*
X4200448Y-2297074D01*
X4183735Y-2291537D01*
X4166514Y-2287828D01*
X4148988Y-2285949D01*
X4131411Y-2285949D01*
X4113885Y-2287828D01*
X4096664Y-2291537D01*
X4079951Y-2297074D01*
X4063898Y-2304338D01*
X4048709Y-2313279D01*
X4034586Y-2323795D01*
X4021632Y-2335733D01*
X4010050Y-2348992D01*
X3999890Y-2363419D01*
X3991356Y-2378811D01*
X3984498Y-2395067D01*
X3979418Y-2411933D01*
X3976166Y-2429256D01*
X3974744Y-2446782D01*
X3975252Y-2464409D01*
X3977589Y-2481884D01*
X3981754Y-2499004D01*
X3987749Y-2515565D01*
X3995420Y-2531414D01*
X4004767Y-2546350D01*
X4015638Y-2560167D01*
X4027932Y-2572816D01*
X4041495Y-2584043D01*
X4056176Y-2593797D01*
X4071823Y-2601925D01*
X4088231Y-2608326D01*
X4105198Y-2612948D01*
X4122623Y-2615742D01*
G37*
G36*
X2628900Y-2293975D02*
G01*
X2640076Y-2293112D01*
X2650998Y-2290470D01*
X2661361Y-2286203D01*
X2668066Y-2282088D01*
X2671521Y-2280767D01*
X2675178Y-2280767D01*
X2678684Y-2282088D01*
X2685338Y-2286203D01*
X2695702Y-2290470D01*
X2706624Y-2293112D01*
X2717800Y-2293975D01*
X2728976Y-2293112D01*
X2739898Y-2290470D01*
X2750261Y-2286203D01*
X2759811Y-2280310D01*
X2768346Y-2273046D01*
X2775610Y-2264511D01*
X2781503Y-2254961D01*
X2785770Y-2244598D01*
X2788412Y-2233676D01*
X2789275Y-2222500D01*
X2788412Y-2211324D01*
X2785770Y-2200402D01*
X2781503Y-2190038D01*
X2775610Y-2180488D01*
X2773426Y-2177948D01*
X2771648Y-2174849D01*
X2771038Y-2171344D01*
X2771038Y-1854555D01*
X2771648Y-1851050D01*
X2773426Y-1847951D01*
X2775610Y-1845411D01*
X2781503Y-1835861D01*
X2785770Y-1825498D01*
X2788412Y-1814575D01*
X2789275Y-1803400D01*
X2788412Y-1792224D01*
X2785770Y-1781302D01*
X2781503Y-1770938D01*
X2775610Y-1761388D01*
X2768346Y-1752854D01*
X2759811Y-1745589D01*
X2750261Y-1739696D01*
X2739898Y-1735429D01*
X2728976Y-1732788D01*
X2717800Y-1731924D01*
X2706624Y-1732788D01*
X2695702Y-1735429D01*
X2685338Y-1739696D01*
X2678684Y-1743811D01*
X2675178Y-1745132D01*
X2671521Y-1745132D01*
X2668066Y-1743811D01*
X2661361Y-1739696D01*
X2650998Y-1735429D01*
X2640076Y-1732788D01*
X2628900Y-1731924D01*
X2617724Y-1732788D01*
X2606802Y-1735429D01*
X2596438Y-1739696D01*
X2586888Y-1745589D01*
X2578354Y-1752854D01*
X2571089Y-1761388D01*
X2565196Y-1770938D01*
X2560929Y-1781302D01*
X2558288Y-1792224D01*
X2557424Y-1803400D01*
X2558288Y-1814575D01*
X2560929Y-1825498D01*
X2565196Y-1835861D01*
X2571089Y-1845411D01*
X2573274Y-1847951D01*
X2575052Y-1851050D01*
X2575661Y-1854555D01*
X2575661Y-2171344D01*
X2575052Y-2174849D01*
X2573274Y-2177948D01*
X2571089Y-2180488D01*
X2565196Y-2190038D01*
X2560929Y-2200402D01*
X2558288Y-2211324D01*
X2557424Y-2222500D01*
X2558288Y-2233676D01*
X2560929Y-2244598D01*
X2565196Y-2254961D01*
X2571089Y-2264511D01*
X2578354Y-2273046D01*
X2586888Y-2280310D01*
X2596438Y-2286203D01*
X2606802Y-2290470D01*
X2617724Y-2293112D01*
G37*
G36*
X4140200Y-2146706D02*
G01*
X4157776Y-2145741D01*
X4175201Y-2142947D01*
X4192168Y-2138324D01*
X4208576Y-2131923D01*
X4224223Y-2123795D01*
X4238904Y-2114042D01*
X4252468Y-2102815D01*
X4264761Y-2090166D01*
X4275632Y-2076348D01*
X4284980Y-2061413D01*
X4292650Y-2045563D01*
X4298645Y-2029002D01*
X4302810Y-2011883D01*
X4305147Y-1994407D01*
X4305655Y-1976780D01*
X4304233Y-1959254D01*
X4300982Y-1941931D01*
X4295902Y-1925066D01*
X4289044Y-1908810D01*
X4280509Y-1893417D01*
X4270349Y-1878990D01*
X4258767Y-1865731D01*
X4245813Y-1853793D01*
X4231690Y-1843278D01*
X4216501Y-1834337D01*
X4200448Y-1827072D01*
X4183735Y-1821535D01*
X4166514Y-1817827D01*
X4148988Y-1815947D01*
X4131411Y-1815947D01*
X4113885Y-1817827D01*
X4096664Y-1821535D01*
X4079951Y-1827072D01*
X4063898Y-1834337D01*
X4048709Y-1843278D01*
X4034586Y-1853793D01*
X4021632Y-1865731D01*
X4010050Y-1878990D01*
X3999890Y-1893417D01*
X3991356Y-1908810D01*
X3984498Y-1925066D01*
X3979418Y-1941931D01*
X3976166Y-1959254D01*
X3974744Y-1976780D01*
X3975252Y-1994407D01*
X3977589Y-2011883D01*
X3981754Y-2029002D01*
X3987749Y-2045563D01*
X3995420Y-2061413D01*
X4004767Y-2076348D01*
X4015638Y-2090166D01*
X4027932Y-2102815D01*
X4041495Y-2114042D01*
X4056176Y-2123795D01*
X4071823Y-2131923D01*
X4088231Y-2138324D01*
X4105198Y-2142947D01*
X4122623Y-2145741D01*
G37*
G36*
X4140200Y-1676704D02*
G01*
X4157776Y-1675739D01*
X4175201Y-1672945D01*
X4192168Y-1668322D01*
X4208576Y-1661922D01*
X4224223Y-1653793D01*
X4238904Y-1644040D01*
X4252468Y-1632813D01*
X4264761Y-1620164D01*
X4275632Y-1606346D01*
X4284980Y-1591411D01*
X4292650Y-1575562D01*
X4298645Y-1559001D01*
X4302810Y-1541881D01*
X4305147Y-1524406D01*
X4305655Y-1506778D01*
X4304233Y-1489252D01*
X4300982Y-1471930D01*
X4295902Y-1455064D01*
X4289044Y-1438808D01*
X4280509Y-1423416D01*
X4270349Y-1408988D01*
X4258767Y-1395730D01*
X4245813Y-1383792D01*
X4231690Y-1373276D01*
X4216501Y-1364335D01*
X4200448Y-1357071D01*
X4183735Y-1351534D01*
X4166514Y-1347825D01*
X4148988Y-1345946D01*
X4131411Y-1345946D01*
X4113885Y-1347825D01*
X4096664Y-1351534D01*
X4079951Y-1357071D01*
X4063898Y-1364335D01*
X4048709Y-1373276D01*
X4034586Y-1383792D01*
X4021632Y-1395730D01*
X4010050Y-1408988D01*
X3999890Y-1423416D01*
X3991356Y-1438808D01*
X3984498Y-1455064D01*
X3979418Y-1471930D01*
X3976166Y-1489252D01*
X3974744Y-1506778D01*
X3975252Y-1524406D01*
X3977589Y-1541881D01*
X3981754Y-1559001D01*
X3987749Y-1575562D01*
X3995420Y-1591411D01*
X4004767Y-1606346D01*
X4015638Y-1620164D01*
X4027932Y-1632813D01*
X4041495Y-1644040D01*
X4056176Y-1653793D01*
X4071823Y-1661922D01*
X4088231Y-1668322D01*
X4105198Y-1672945D01*
X4122623Y-1675739D01*
G37*
G36*
X228600Y-1630527D02*
G01*
X243230Y-1629613D01*
X257657Y-1626920D01*
X271678Y-1622501D01*
X284988Y-1616354D01*
X297484Y-1608632D01*
X308914Y-1599438D01*
X319125Y-1588871D01*
X328015Y-1577136D01*
X335330Y-1564436D01*
X341071Y-1550924D01*
X345084Y-1536801D01*
X347319Y-1522323D01*
X347776Y-1507642D01*
X346405Y-1493012D01*
X343306Y-1478686D01*
X338378Y-1464818D01*
X331876Y-1451660D01*
X323748Y-1439468D01*
X314198Y-1428292D01*
X303326Y-1418386D01*
X291388Y-1409903D01*
X278434Y-1402994D01*
X264769Y-1397660D01*
X250291Y-1394053D01*
X246735Y-1392377D01*
X244094Y-1389481D01*
X242722Y-1385824D01*
X242874Y-1381912D01*
X244449Y-1378356D01*
X247243Y-1375664D01*
X250901Y-1374190D01*
X257657Y-1372920D01*
X271678Y-1368501D01*
X284988Y-1362354D01*
X297484Y-1354632D01*
X308914Y-1345438D01*
X319125Y-1334871D01*
X328015Y-1323136D01*
X335330Y-1310436D01*
X341071Y-1296924D01*
X345084Y-1282801D01*
X347319Y-1268323D01*
X347776Y-1253642D01*
X346405Y-1239012D01*
X343306Y-1224686D01*
X338378Y-1210818D01*
X331876Y-1197660D01*
X323748Y-1185468D01*
X314198Y-1174292D01*
X303326Y-1164386D01*
X291388Y-1155903D01*
X278434Y-1148994D01*
X264769Y-1143660D01*
X250494Y-1140104D01*
X235915Y-1138275D01*
X221284Y-1138275D01*
X206705Y-1140104D01*
X192430Y-1143660D01*
X178765Y-1148994D01*
X165811Y-1155903D01*
X153873Y-1164386D01*
X143002Y-1174292D01*
X133451Y-1185468D01*
X125323Y-1197660D01*
X118821Y-1210818D01*
X113893Y-1224686D01*
X110794Y-1239012D01*
X109423Y-1253642D01*
X109880Y-1268323D01*
X112115Y-1282801D01*
X116128Y-1296924D01*
X121869Y-1310436D01*
X129184Y-1323136D01*
X138074Y-1334871D01*
X148285Y-1345438D01*
X159715Y-1354632D01*
X172212Y-1362354D01*
X185521Y-1368501D01*
X199542Y-1372920D01*
X206298Y-1374190D01*
X209956Y-1375664D01*
X212750Y-1378356D01*
X214325Y-1381912D01*
X214477Y-1385824D01*
X213106Y-1389481D01*
X210464Y-1392377D01*
X206908Y-1394053D01*
X192430Y-1397660D01*
X178765Y-1402994D01*
X165811Y-1409903D01*
X153873Y-1418386D01*
X143002Y-1428292D01*
X133451Y-1439468D01*
X125323Y-1451660D01*
X118821Y-1464818D01*
X113893Y-1478686D01*
X110794Y-1493012D01*
X109423Y-1507642D01*
X109880Y-1522323D01*
X112115Y-1536801D01*
X116128Y-1550924D01*
X121869Y-1564436D01*
X129184Y-1577136D01*
X138074Y-1588871D01*
X148285Y-1599438D01*
X159715Y-1608632D01*
X172212Y-1616354D01*
X185521Y-1622501D01*
X199542Y-1626920D01*
X213969Y-1629613D01*
G37*
G36*
X2095500Y-1630527D02*
G01*
X2110130Y-1629613D01*
X2124557Y-1626920D01*
X2138578Y-1622501D01*
X2151888Y-1616354D01*
X2164384Y-1608632D01*
X2175814Y-1599438D01*
X2186025Y-1588871D01*
X2194915Y-1577136D01*
X2202230Y-1564436D01*
X2207971Y-1550924D01*
X2211984Y-1536801D01*
X2214219Y-1522323D01*
X2214676Y-1507642D01*
X2213305Y-1493012D01*
X2210206Y-1478686D01*
X2205278Y-1464818D01*
X2198776Y-1451660D01*
X2190648Y-1439468D01*
X2181098Y-1428292D01*
X2170226Y-1418386D01*
X2158288Y-1409903D01*
X2145334Y-1402994D01*
X2131669Y-1397660D01*
X2117191Y-1394053D01*
X2113635Y-1392377D01*
X2110994Y-1389481D01*
X2109622Y-1385824D01*
X2109774Y-1381912D01*
X2111349Y-1378356D01*
X2114143Y-1375664D01*
X2117801Y-1374190D01*
X2124557Y-1372920D01*
X2138578Y-1368501D01*
X2151888Y-1362354D01*
X2164384Y-1354632D01*
X2175814Y-1345438D01*
X2186025Y-1334871D01*
X2194915Y-1323136D01*
X2202230Y-1310436D01*
X2207971Y-1296924D01*
X2211984Y-1282801D01*
X2214219Y-1268323D01*
X2214676Y-1253642D01*
X2213305Y-1239012D01*
X2210206Y-1224686D01*
X2205278Y-1210818D01*
X2198776Y-1197660D01*
X2190648Y-1185468D01*
X2181098Y-1174292D01*
X2170226Y-1164386D01*
X2158288Y-1155903D01*
X2145334Y-1148994D01*
X2131669Y-1143660D01*
X2117394Y-1140104D01*
X2102815Y-1138275D01*
X2088184Y-1138275D01*
X2073605Y-1140104D01*
X2059330Y-1143660D01*
X2045665Y-1148994D01*
X2032711Y-1155903D01*
X2020773Y-1164386D01*
X2009902Y-1174292D01*
X2000351Y-1185468D01*
X1992223Y-1197660D01*
X1985721Y-1210818D01*
X1980793Y-1224686D01*
X1977694Y-1239012D01*
X1976323Y-1253642D01*
X1976780Y-1268323D01*
X1979015Y-1282801D01*
X1983028Y-1296924D01*
X1988769Y-1310436D01*
X1996084Y-1323136D01*
X2004974Y-1334871D01*
X2015185Y-1345438D01*
X2026615Y-1354632D01*
X2039112Y-1362354D01*
X2052421Y-1368501D01*
X2066442Y-1372920D01*
X2073198Y-1374190D01*
X2076856Y-1375664D01*
X2079650Y-1378356D01*
X2081225Y-1381912D01*
X2081377Y-1385824D01*
X2080006Y-1389481D01*
X2077364Y-1392377D01*
X2073808Y-1394053D01*
X2059330Y-1397660D01*
X2045665Y-1402994D01*
X2032711Y-1409903D01*
X2020773Y-1418386D01*
X2009902Y-1428292D01*
X2000351Y-1439468D01*
X1992223Y-1451660D01*
X1985721Y-1464818D01*
X1980793Y-1478686D01*
X1977694Y-1493012D01*
X1976323Y-1507642D01*
X1976780Y-1522323D01*
X1979015Y-1536801D01*
X1983028Y-1550924D01*
X1988769Y-1564436D01*
X1996084Y-1577136D01*
X2004974Y-1588871D01*
X2015185Y-1599438D01*
X2026615Y-1608632D01*
X2039112Y-1616354D01*
X2052421Y-1622501D01*
X2066442Y-1626920D01*
X2080869Y-1629613D01*
G37*
G36*
X2889453Y-1156309D02*
G01*
X3028746Y-1156309D01*
X3041446Y-1155446D01*
X3053537Y-1152956D01*
X3065170Y-1148791D01*
X3076092Y-1143101D01*
X3086201Y-1135989D01*
X3095244Y-1127556D01*
X3103016Y-1118006D01*
X3109468Y-1107440D01*
X3114344Y-1096111D01*
X3117697Y-1084224D01*
X3119374Y-1071981D01*
X3119374Y-1059637D01*
X3117697Y-1047394D01*
X3114344Y-1035507D01*
X3109468Y-1024178D01*
X3103016Y-1013612D01*
X3095244Y-1004062D01*
X3086201Y-995629D01*
X3076092Y-988466D01*
X3065170Y-982827D01*
X3053537Y-978662D01*
X3041446Y-976172D01*
X3028746Y-975309D01*
X2889453Y-975309D01*
X2876804Y-976172D01*
X2864662Y-978662D01*
X2853029Y-982827D01*
X2842107Y-988466D01*
X2831998Y-995629D01*
X2822956Y-1004062D01*
X2815183Y-1013612D01*
X2808732Y-1024178D01*
X2803855Y-1035507D01*
X2800502Y-1047394D01*
X2798826Y-1059637D01*
X2798826Y-1071981D01*
X2800502Y-1084224D01*
X2803855Y-1096111D01*
X2808732Y-1107440D01*
X2815183Y-1118006D01*
X2822956Y-1127556D01*
X2831998Y-1135989D01*
X2842107Y-1143101D01*
X2853029Y-1148791D01*
X2864662Y-1152956D01*
X2876804Y-1155446D01*
G37*
G36*
X342900Y-937056D02*
G01*
X358902Y-936142D01*
X374700Y-933399D01*
X390093Y-928878D01*
X404876Y-922629D01*
X418846Y-914755D01*
X431850Y-905306D01*
X443636Y-894486D01*
X454151Y-882345D01*
X463194Y-869086D01*
X470712Y-854913D01*
X476504Y-839978D01*
X480618Y-824433D01*
X482904Y-808583D01*
X483362Y-792530D01*
X481990Y-776528D01*
X478790Y-760831D01*
X473811Y-745591D01*
X467156Y-730961D01*
X458876Y-717245D01*
X449072Y-704545D01*
X437896Y-693013D01*
X425500Y-682904D01*
X411988Y-674217D01*
X397611Y-667105D01*
X382473Y-661720D01*
X366877Y-658114D01*
X350926Y-656285D01*
X334873Y-656285D01*
X318922Y-658114D01*
X303326Y-661720D01*
X288188Y-667105D01*
X273812Y-674217D01*
X260299Y-682904D01*
X247904Y-693013D01*
X236728Y-704545D01*
X226923Y-717245D01*
X218643Y-730961D01*
X211988Y-745591D01*
X207010Y-760831D01*
X203809Y-776528D01*
X202438Y-792530D01*
X202895Y-808583D01*
X205181Y-824433D01*
X209296Y-839978D01*
X215087Y-854913D01*
X222605Y-869086D01*
X231648Y-882345D01*
X242163Y-894486D01*
X253949Y-905306D01*
X266954Y-914755D01*
X280924Y-922629D01*
X295706Y-928878D01*
X311099Y-933399D01*
X326898Y-936142D01*
G37*
G36*
X4144873Y-936802D02*
G01*
X4160926Y-936802D01*
X4176877Y-934974D01*
X4192473Y-931367D01*
X4207611Y-925982D01*
X4221988Y-918870D01*
X4235500Y-910183D01*
X4247896Y-900074D01*
X4259072Y-888542D01*
X4268876Y-875842D01*
X4277156Y-862126D01*
X4283811Y-847496D01*
X4288790Y-832256D01*
X4291990Y-816559D01*
X4293362Y-800557D01*
X4292904Y-784504D01*
X4290618Y-768654D01*
X4286504Y-753110D01*
X4280712Y-738174D01*
X4273194Y-724001D01*
X4264152Y-710742D01*
X4253636Y-698652D01*
X4241850Y-687781D01*
X4228846Y-678332D01*
X4214876Y-670458D01*
X4200093Y-664210D01*
X4184700Y-659688D01*
X4168901Y-656945D01*
X4152900Y-656031D01*
X4136898Y-656945D01*
X4121099Y-659688D01*
X4105706Y-664210D01*
X4090924Y-670458D01*
X4076954Y-678332D01*
X4063949Y-687781D01*
X4052163Y-698652D01*
X4041648Y-710742D01*
X4032605Y-724001D01*
X4025087Y-738174D01*
X4019296Y-753110D01*
X4015181Y-768654D01*
X4012895Y-784504D01*
X4012437Y-800557D01*
X4013809Y-816559D01*
X4017010Y-832256D01*
X4021988Y-847496D01*
X4028643Y-862126D01*
X4036923Y-875842D01*
X4046728Y-888542D01*
X4057904Y-900074D01*
X4070299Y-910183D01*
X4083812Y-918870D01*
X4098188Y-925982D01*
X4113326Y-931367D01*
X4128922Y-934974D01*
G37*
G36*
X3035757Y-457962D02*
G01*
X3051759Y-456590D01*
X3067456Y-453390D01*
X3082696Y-448411D01*
X3097326Y-441756D01*
X3111042Y-433476D01*
X3123742Y-423672D01*
X3135274Y-412496D01*
X3145383Y-400100D01*
X3154070Y-386588D01*
X3161182Y-372211D01*
X3166567Y-357073D01*
X3170174Y-341477D01*
X3172002Y-325526D01*
X3172002Y-309473D01*
X3170174Y-293522D01*
X3166567Y-277926D01*
X3161182Y-262788D01*
X3154070Y-248412D01*
X3145383Y-234899D01*
X3135274Y-222504D01*
X3123742Y-211328D01*
X3111042Y-201523D01*
X3097326Y-193243D01*
X3082696Y-186588D01*
X3067456Y-181610D01*
X3051759Y-178409D01*
X3035757Y-177038D01*
X3019704Y-177495D01*
X3003854Y-179781D01*
X2988310Y-183896D01*
X2973374Y-189687D01*
X2959201Y-197205D01*
X2945942Y-206248D01*
X2933852Y-216763D01*
X2922981Y-228549D01*
X2913532Y-241554D01*
X2905658Y-255524D01*
X2899410Y-270306D01*
X2894888Y-285699D01*
X2892145Y-301498D01*
X2891231Y-317500D01*
X2892145Y-333502D01*
X2894888Y-349300D01*
X2899410Y-364693D01*
X2905658Y-379476D01*
X2913532Y-393446D01*
X2922981Y-406450D01*
X2933852Y-418236D01*
X2945942Y-428751D01*
X2959201Y-437794D01*
X2973374Y-445312D01*
X2988310Y-451104D01*
X3003854Y-455218D01*
X3019704Y-457504D01*
G37*
G36*
X2534869Y-457962D02*
G01*
X2550871Y-456590D01*
X2566568Y-453390D01*
X2581808Y-448411D01*
X2596438Y-441756D01*
X2610154Y-433476D01*
X2622854Y-423672D01*
X2634386Y-412496D01*
X2644495Y-400100D01*
X2653182Y-386588D01*
X2660294Y-372211D01*
X2665679Y-357073D01*
X2669286Y-341477D01*
X2671114Y-325526D01*
X2671114Y-309473D01*
X2669286Y-293522D01*
X2665679Y-277926D01*
X2660294Y-262788D01*
X2653182Y-248412D01*
X2644495Y-234899D01*
X2634386Y-222504D01*
X2622854Y-211328D01*
X2610154Y-201523D01*
X2596438Y-193243D01*
X2581808Y-186588D01*
X2566568Y-181610D01*
X2550871Y-178409D01*
X2534869Y-177038D01*
X2518816Y-177495D01*
X2502966Y-179781D01*
X2487422Y-183896D01*
X2472486Y-189687D01*
X2458313Y-197205D01*
X2445054Y-206248D01*
X2432964Y-216763D01*
X2422093Y-228549D01*
X2412644Y-241554D01*
X2404770Y-255524D01*
X2398522Y-270306D01*
X2394000Y-285699D01*
X2391257Y-301498D01*
X2390343Y-317500D01*
X2391257Y-333502D01*
X2394000Y-349300D01*
X2398522Y-364693D01*
X2404770Y-379476D01*
X2412644Y-393446D01*
X2422093Y-406450D01*
X2432964Y-418236D01*
X2445054Y-428751D01*
X2458313Y-437794D01*
X2472486Y-445312D01*
X2487422Y-451104D01*
X2502966Y-455218D01*
X2518816Y-457504D01*
G37*
G36*
X1531569Y-457962D02*
G01*
X1547571Y-456590D01*
X1563268Y-453390D01*
X1578508Y-448411D01*
X1593138Y-441756D01*
X1606854Y-433476D01*
X1619554Y-423672D01*
X1631086Y-412496D01*
X1641195Y-400100D01*
X1649882Y-386588D01*
X1656994Y-372211D01*
X1662379Y-357073D01*
X1665986Y-341477D01*
X1667814Y-325526D01*
X1667814Y-309473D01*
X1665986Y-293522D01*
X1662379Y-277926D01*
X1656994Y-262788D01*
X1649882Y-248412D01*
X1641195Y-234899D01*
X1631086Y-222504D01*
X1619554Y-211328D01*
X1606854Y-201523D01*
X1593138Y-193243D01*
X1578508Y-186588D01*
X1563268Y-181610D01*
X1547571Y-178409D01*
X1531569Y-177038D01*
X1515516Y-177495D01*
X1499666Y-179781D01*
X1484122Y-183896D01*
X1469186Y-189687D01*
X1455013Y-197205D01*
X1441754Y-206248D01*
X1429664Y-216763D01*
X1418793Y-228549D01*
X1409344Y-241554D01*
X1401470Y-255524D01*
X1395222Y-270306D01*
X1390700Y-285699D01*
X1387957Y-301498D01*
X1387043Y-317500D01*
X1387957Y-333502D01*
X1390700Y-349300D01*
X1395222Y-364693D01*
X1401470Y-379476D01*
X1409344Y-393446D01*
X1418793Y-406450D01*
X1429664Y-418236D01*
X1441754Y-428751D01*
X1455013Y-437794D01*
X1469186Y-445312D01*
X1484122Y-451104D01*
X1499666Y-455218D01*
X1515516Y-457504D01*
G37*
G36*
X2032457Y-457962D02*
G01*
X2048459Y-456590D01*
X2064156Y-453390D01*
X2079396Y-448411D01*
X2094026Y-441756D01*
X2107742Y-433476D01*
X2120442Y-423672D01*
X2131974Y-412496D01*
X2142083Y-400100D01*
X2150770Y-386588D01*
X2157882Y-372211D01*
X2163267Y-357073D01*
X2166874Y-341477D01*
X2168702Y-325526D01*
X2168702Y-309473D01*
X2166874Y-293522D01*
X2163267Y-277926D01*
X2157882Y-262788D01*
X2150770Y-248412D01*
X2142083Y-234899D01*
X2131974Y-222504D01*
X2120442Y-211328D01*
X2107742Y-201523D01*
X2094026Y-193243D01*
X2079396Y-186588D01*
X2064156Y-181610D01*
X2048459Y-178409D01*
X2032457Y-177038D01*
X2016404Y-177495D01*
X2000554Y-179781D01*
X1985010Y-183896D01*
X1970074Y-189687D01*
X1955901Y-197205D01*
X1942642Y-206248D01*
X1930552Y-216763D01*
X1919681Y-228549D01*
X1910232Y-241554D01*
X1902358Y-255524D01*
X1896110Y-270306D01*
X1891588Y-285699D01*
X1888845Y-301498D01*
X1887931Y-317500D01*
X1888845Y-333502D01*
X1891588Y-349300D01*
X1896110Y-364693D01*
X1902358Y-379476D01*
X1910232Y-393446D01*
X1919681Y-406450D01*
X1930552Y-418236D01*
X1942642Y-428751D01*
X1955901Y-437794D01*
X1970074Y-445312D01*
X1985010Y-451104D01*
X2000554Y-455218D01*
X2016404Y-457504D01*
G37*
G36*
X342900Y-436168D02*
G01*
X358902Y-435254D01*
X374700Y-432511D01*
X390093Y-427990D01*
X404876Y-421741D01*
X418846Y-413867D01*
X431850Y-404418D01*
X443636Y-393598D01*
X454151Y-381457D01*
X463194Y-368198D01*
X470712Y-354025D01*
X476504Y-339090D01*
X480618Y-323545D01*
X482904Y-307695D01*
X483362Y-291642D01*
X481990Y-275640D01*
X478790Y-259943D01*
X473811Y-244703D01*
X467156Y-230073D01*
X458876Y-216357D01*
X449072Y-203657D01*
X437896Y-192125D01*
X425500Y-182016D01*
X411988Y-173329D01*
X397611Y-166217D01*
X382473Y-160832D01*
X366877Y-157226D01*
X350926Y-155397D01*
X334873Y-155397D01*
X318922Y-157226D01*
X303326Y-160832D01*
X288188Y-166217D01*
X273812Y-173329D01*
X260299Y-182016D01*
X247904Y-192125D01*
X236728Y-203657D01*
X226923Y-216357D01*
X218643Y-230073D01*
X211988Y-244703D01*
X207010Y-259943D01*
X203809Y-275640D01*
X202438Y-291642D01*
X202895Y-307695D01*
X205181Y-323545D01*
X209296Y-339090D01*
X215087Y-354025D01*
X222605Y-368198D01*
X231648Y-381457D01*
X242163Y-393598D01*
X253949Y-404418D01*
X266954Y-413867D01*
X280924Y-421741D01*
X295706Y-427990D01*
X311099Y-432511D01*
X326898Y-435254D01*
G37*
G36*
X4144873Y-435914D02*
G01*
X4160926Y-435914D01*
X4176877Y-434085D01*
X4192473Y-430479D01*
X4207611Y-425094D01*
X4221988Y-417982D01*
X4235500Y-409295D01*
X4247896Y-399186D01*
X4259072Y-387654D01*
X4268876Y-374954D01*
X4277156Y-361238D01*
X4283811Y-346608D01*
X4288790Y-331368D01*
X4291990Y-315671D01*
X4293362Y-299669D01*
X4292904Y-283616D01*
X4290618Y-267766D01*
X4286504Y-252221D01*
X4280712Y-237286D01*
X4273194Y-223113D01*
X4264152Y-209854D01*
X4253636Y-197764D01*
X4241850Y-186893D01*
X4228846Y-177444D01*
X4214876Y-169570D01*
X4200093Y-163322D01*
X4184700Y-158800D01*
X4168901Y-156057D01*
X4152900Y-155143D01*
X4136898Y-156057D01*
X4121099Y-158800D01*
X4105706Y-163322D01*
X4090924Y-169570D01*
X4076954Y-177444D01*
X4063949Y-186893D01*
X4052163Y-197764D01*
X4041648Y-209854D01*
X4032605Y-223113D01*
X4025087Y-237286D01*
X4019296Y-252221D01*
X4015181Y-267766D01*
X4012895Y-283616D01*
X4012437Y-299669D01*
X4013809Y-315671D01*
X4017010Y-331368D01*
X4021988Y-346608D01*
X4028643Y-361238D01*
X4036923Y-374954D01*
X4046728Y-387654D01*
X4057904Y-399186D01*
X4070299Y-409295D01*
X4083812Y-417982D01*
X4098188Y-425094D01*
X4113326Y-430479D01*
X4128922Y-434085D01*
G37*

%LPD*%
D10*
X1600200Y-3073400D02*
G01*
X901700Y-3073400D01*
X2063750Y-2857500D02*
G01*
X1371600Y-2857500D01*
X1371600Y-2857500D02*
G01*
X927100Y-2413000D01*
X927100Y-1384300D02*
G01*
X927100Y-2413000D01*
D11*
X2717800Y-1803400D02*
G01*
X2717800Y-2222500D01*
X2628900Y-1803400D02*
G01*
X2628900Y-2222500D01*
D12*
G01*
X3505200Y-7010400D03*
G01*
X3505200Y-6756400D03*
G01*
X3505200Y-6502400D03*
G01*
X3505200Y-6248400D03*
G01*
X3505200Y-5994400D03*
G01*
X3505200Y-5740400D03*
G01*
X3505200Y-5486400D03*
G01*
X3505200Y-5232400D03*
G01*
X3505200Y-4978400D03*
G01*
X3505200Y-4724400D03*
G01*
X3505200Y-4470400D03*
G01*
X3505200Y-4216400D03*
G01*
X3505200Y-3962400D03*
G01*
X3505200Y-3708400D03*
D13*
G01*
X3505200Y-3454400D03*
D12*
G01*
X952500Y-3454400D03*
G01*
X952500Y-3708400D03*
G01*
X952500Y-3962400D03*
G01*
X952500Y-4216400D03*
G01*
X952500Y-4470400D03*
G01*
X952500Y-4724400D03*
G01*
X952500Y-4978400D03*
G01*
X952500Y-5232400D03*
G01*
X952500Y-5486400D03*
G01*
X952500Y-5740400D03*
G01*
X952500Y-5994400D03*
G01*
X952500Y-6248400D03*
G01*
X952500Y-6502400D03*
G01*
X952500Y-6756400D03*
D14*
G01*
X952500Y-7010400D03*
D12*
G01*
X1752600Y-2527300D03*
G01*
X1752600Y-2273300D03*
G01*
X1752600Y-2019300D03*
G01*
X1752600Y-1765300D03*
G01*
X1752600Y-1511300D03*
D13*
G01*
X1752600Y-1257300D03*
D12*
G01*
X228600Y-1257300D03*
G01*
X228600Y-1511300D03*
G01*
X228600Y-1765300D03*
G01*
X228600Y-2019300D03*
G01*
X228600Y-2273300D03*
D14*
G01*
X228600Y-2527300D03*
D12*
G01*
X2095500Y-1257300D03*
G01*
X2095500Y-1511300D03*
G01*
X2095500Y-1765300D03*
G01*
X2095500Y-2019300D03*
G01*
X2095500Y-2273300D03*
D14*
G01*
X2095500Y-2527300D03*
D12*
G01*
X3619500Y-2527300D03*
G01*
X3619500Y-2273300D03*
G01*
X3619500Y-2019300D03*
G01*
X3619500Y-1765300D03*
G01*
X3619500Y-1511300D03*
D13*
G01*
X3619500Y-1257300D03*
D15*
G01*
X3031743Y-317500D03*
G01*
X2530856Y-317500D03*
G01*
X2028443Y-317500D03*
G01*
X1527555Y-317500D03*
G01*
X4152900Y-796544D03*
G01*
X4152900Y-295655D03*
D12*
G01*
X1181100Y-2070100D03*
G01*
X927100Y-2070100D03*
D16*
G01*
X673100Y-2070100D03*
D12*
G01*
X1181100Y-2413000D03*
G01*
X927100Y-2413000D03*
D16*
G01*
X673100Y-2413000D03*
D12*
G01*
X1181100Y-1384300D03*
G01*
X927100Y-1384300D03*
D16*
G01*
X673100Y-1384300D03*
D12*
G01*
X1181100Y-1727200D03*
G01*
X927100Y-1727200D03*
D16*
G01*
X673100Y-1727200D03*
D15*
G01*
X342900Y-295655D03*
G01*
X342900Y-796544D03*
D17*
G01*
X4129887Y-4711700D03*
G01*
X365912Y-4711700D03*
G01*
X365912Y-6553200D03*
G01*
X4129887Y-6553200D03*
D16*
G01*
X2273300Y-3619500D03*
D12*
G01*
X2273300Y-3365500D03*
G01*
X2273300Y-3111500D03*
G01*
X2273300Y-2857500D03*
D18*
G01*
X2959100Y-3328390D03*
G01*
X2959100Y-1065809D03*
D19*
G01*
X4140200Y-1511198D03*
G01*
X4140200Y-1981200D03*
G01*
X4140200Y-2451201D03*
D20*
G01*
X2717800Y-1803400D03*
G01*
X2628900Y-1803400D03*
G01*
X2628900Y-2222500D03*
G01*
X2717800Y-2222500D03*
D21*
G01*
X2082800Y-2857500D03*
G01*
X1600200Y-3073400D03*
G01*
X901700Y-3073400D03*
M02*
