G04 Layer: BottomSolderMaskLayer*
G04 EasyEDA v6.5.42, 2024-06-13 11:32:13*
G04 d1ebce20da0e461893040d04fa24d534,1f4b798e1f424c36b07c5063a1ef9d4e,10*
G04 Gerber Generator version 0.2*
G04 Scale: 100 percent, Rotated: No, Reflected: No *
G04 Dimensions in millimeters *
G04 leading zeros omitted , absolute positions ,4 integer and 5 decimal *
%FSLAX45Y45*%
%MOMM*%

%AMMACRO1*1,1,$1,$2,$3*1,1,$1,$4,$5*1,1,$1,0-$2,0-$3*1,1,$1,0-$4,0-$5*20,1,$1,$2,$3,$4,$5,0*20,1,$1,$4,$5,0-$2,0-$3,0*20,1,$1,0-$2,0-$3,0-$4,0-$5,0*20,1,$1,0-$4,0-$5,$2,$3,0*4,1,4,$2,$3,$4,$5,0-$2,0-$3,0-$4,0-$5,$2,$3,0*%
%ADD10C,1.6764*%
%ADD11R,1.6764X1.6764*%
%ADD12MACRO1,0.1016X0.7874X-0.7874X0.7874X0.7874*%
%ADD13C,2.1016*%
%ADD14MACRO1,0.1016X-0.7874X0.7874X0.7874X0.7874*%
%ADD15C,1.9016*%
%ADD16O,2.5015952X1.1015979999999999*%
%ADD17C,2.6016*%

%LPD*%
D10*
G01*
X3505200Y-7010400D03*
G01*
X3505200Y-6756400D03*
G01*
X3505200Y-6502400D03*
G01*
X3505200Y-6248400D03*
G01*
X3505200Y-5994400D03*
G01*
X3505200Y-5740400D03*
G01*
X3505200Y-5486400D03*
G01*
X3505200Y-5232400D03*
G01*
X3505200Y-4978400D03*
G01*
X3505200Y-4724400D03*
G01*
X3505200Y-4470400D03*
G01*
X3505200Y-4216400D03*
G01*
X3505200Y-3962400D03*
G01*
X3505200Y-3708400D03*
D11*
G01*
X3505200Y-3454400D03*
D10*
G01*
X952500Y-3454400D03*
G01*
X952500Y-3708400D03*
G01*
X952500Y-3962400D03*
G01*
X952500Y-4216400D03*
G01*
X952500Y-4470400D03*
G01*
X952500Y-4724400D03*
G01*
X952500Y-4978400D03*
G01*
X952500Y-5232400D03*
G01*
X952500Y-5486400D03*
G01*
X952500Y-5740400D03*
G01*
X952500Y-5994400D03*
G01*
X952500Y-6248400D03*
G01*
X952500Y-6502400D03*
G01*
X952500Y-6756400D03*
D12*
G01*
X952500Y-7010400D03*
D10*
G01*
X1752600Y-2527300D03*
G01*
X1752600Y-2273300D03*
G01*
X1752600Y-2019300D03*
G01*
X1752600Y-1765300D03*
G01*
X1752600Y-1511300D03*
D11*
G01*
X1752600Y-1257300D03*
D10*
G01*
X228600Y-1257300D03*
G01*
X228600Y-1511300D03*
G01*
X228600Y-1765300D03*
G01*
X228600Y-2019300D03*
G01*
X228600Y-2273300D03*
D12*
G01*
X228600Y-2527300D03*
D10*
G01*
X2095500Y-1257300D03*
G01*
X2095500Y-1511300D03*
G01*
X2095500Y-1765300D03*
G01*
X2095500Y-2019300D03*
G01*
X2095500Y-2273300D03*
D12*
G01*
X2095500Y-2527300D03*
D10*
G01*
X3619500Y-2527300D03*
G01*
X3619500Y-2273300D03*
G01*
X3619500Y-2019300D03*
G01*
X3619500Y-1765300D03*
G01*
X3619500Y-1511300D03*
D11*
G01*
X3619500Y-1257300D03*
D13*
G01*
X3031743Y-317500D03*
G01*
X2530856Y-317500D03*
G01*
X2028443Y-317500D03*
G01*
X1527555Y-317500D03*
G01*
X4152900Y-796544D03*
G01*
X4152900Y-295655D03*
D10*
G01*
X1181100Y-2070100D03*
G01*
X927100Y-2070100D03*
D14*
G01*
X673100Y-2070100D03*
D10*
G01*
X1181100Y-2413000D03*
G01*
X927100Y-2413000D03*
D14*
G01*
X673100Y-2413000D03*
D10*
G01*
X1181100Y-1384300D03*
G01*
X927100Y-1384300D03*
D14*
G01*
X673100Y-1384300D03*
D10*
G01*
X1181100Y-1727200D03*
G01*
X927100Y-1727200D03*
D14*
G01*
X673100Y-1727200D03*
D13*
G01*
X342900Y-295655D03*
G01*
X342900Y-796544D03*
D15*
G01*
X4129887Y-4711700D03*
G01*
X365912Y-4711700D03*
G01*
X365912Y-6553200D03*
G01*
X4129887Y-6553200D03*
D11*
G01*
X2273300Y-3619500D03*
D10*
G01*
X2273300Y-3365500D03*
G01*
X2273300Y-3111500D03*
G01*
X2273300Y-2857500D03*
D16*
G01*
X2959100Y-3328390D03*
G01*
X2959100Y-1065809D03*
D17*
G01*
X4140200Y-1511198D03*
G01*
X4140200Y-1981200D03*
G01*
X4140200Y-2451201D03*
M02*
